<?xml version="1.0" standalone="no"?>
<!DOCTYPE svg PUBLIC "-//W3C//DTD SVG 1.1//EN" "http://www.w3.org/Graphics/SVG/1.1/DTD/svg11.dtd" >
<svg xmlns="http://www.w3.org/2000/svg" xmlns:xlink="http://www.w3.org/1999/xlink" version="1.1" viewBox="0 -49 1361 1814">
   <path fill="#292929" d="M131 1765
q-53 0 -92 -39t-39 -92v-1552q0 -54 39 -92.5t92 -38.5h1098q54 0 93 38.5t39 92.5v1552q0 53 -39 92t-93 39h-1098z" />
   <path fill="#99C794"
d="M602 810q-24 0 -41.5 -14t-17.5 -37q0 -18 10 -28.5t24 -19.5l9 -9q8 -7 14 -15t6 -18v-107q0 -8 -6.5 -16.5t-15.5 -18.5q-12 -13 -23 -28.5t-11 -33.5t10.5 -33t23.5 -28q9 -10 15.5 -18.5t6.5 -17.5v-108q0 -11 -7 -19.5t-16 -16.5l-6 -6q-14 -8 -24 -19t-10 -29
q0 -27 20 -39t32 -12q9 0 16 -4t13 -9q9 -7 21.5 -13t34.5 -6t35 6t21 13q7 5 14 9t16 4q12 0 32 12t20 39q0 18 -10 29t-23 19q-3 2 -5 3q-10 9 -17.5 18.5t-7.5 20.5v108q0 9 6.5 17.5t15.5 18.5q13 13 23.5 28t10.5 33t-11 33.5t-23 28.5q-9 10 -15.5 18.5t-6.5 16.5v107
q0 11 6.5 19t15.5 16q4 4 8 7q13 9 23 19.5t10 28.5q0 23 -17.5 37t-41.5 14q-13 0 -21.5 -3t-15.5 -7t-16.5 -7t-25.5 -3t-25.5 3t-16.5 8q-7 4 -15 6.5t-21 2.5zM647 398h67v-185q10 -7 16.5 -18t6.5 -23q0 -19 -16.5 -34t-40.5 -15q-23 0 -39.5 15t-16.5 34q0 24 23 41
v185zM628 454h104q10 0 16.5 -5.5t6.5 -12.5q0 -6 -6.5 -11t-16.5 -5h-104q-10 0 -16 5t-6 11q0 17 22 18zM628 510h104q10 0 16.5 -5.5t6.5 -11.5q0 -14 -23 -16h-104q-19 0 -22 16q0 16 22 17zM680 761q35 0 34 -30v-198h-67v198q0 27 33 30zM602 1610q-24 0 -41.5 -14
t-17.5 -38q0 -17 10 -28t24 -19q4 -5 9 -9q8 -8 14 -15.5t6 -18.5v-106q0 -8 -6.5 -16.5t-15.5 -18.5q-12 -13 -23 -28.5t-11 -33.5t10.5 -33t23.5 -28q9 -10 15.5 -19t6.5 -17v-108q0 -11 -7 -19.5t-16 -16.5q-3 -3 -6 -7q-14 -8 -24 -19t-10 -28q0 -27 20 -39.5t32 -12.5
q9 0 16 -3.5t13 -8.5q9 -7 21.5 -13.5t34.5 -6.5t35 6.5t21 13.5q7 5 14 8.5t16 3.5q12 0 32 12.5t20 39.5q0 17 -10 28t-23 19q-3 2 -5 4q-10 9 -17.5 18t-7.5 21v108q0 8 6.5 17t15.5 19q13 13 23.5 28t10.5 33t-11 33.5t-23 28.5q-9 10 -15.5 18.5t-6.5 16.5v106
q0 11 6.5 19.5t15.5 16.5q4 4 8 7q13 8 23 19t10 28q0 24 -17.5 38t-41.5 14q-13 0 -21.5 -3t-15.5 -7t-16.5 -7.5t-25.5 -3.5t-25.5 3.5t-16.5 7.5t-15 7t-21 3zM647 1198h67v-185q10 -7 16.5 -18t6.5 -23q0 -20 -16.5 -34.5t-40.5 -14.5q-23 0 -39.5 14.5t-16.5 34.5
q0 23 23 41v185zM628 1254h104q10 0 16.5 -5.5t6.5 -12.5q0 -6 -6.5 -11t-16.5 -5h-104q-10 0 -16 5t-6 11q0 17 22 18zM628 1310h104q10 0 16.5 -5.5t6.5 -12.5q0 -13 -23 -15h-104q-19 0 -22 15q0 17 22 18zM680 1561q35 0 34 -30v-198h-67v198q0 26 33 30z" />
</svg>
