<svg xmlns="http://www.w3.org/2000/svg" viewBox="0 -49 1361 1814">
   <path fill="#292929"
      d="M131 1765q-53 0-92-39t-39-92V82q0-54 39-92.5T131-49h1098q54 0 93 38.5t39 92.5v1552q0 53-39 92t-93 39H131z" />
   <path fill="#EC5F67"
      d="M606 552q-24 0-41-14t-17-38q0-17 11.5-28.5T585 451q10-7 18-14t8-16v-15q0-9-7-17t-16-16q-11-10-20-22t-9-27q0-14 9-26t20-22q9-8 16-16t7-17v-15q0-9-7.5-16T585 198q-14-9-25.5-20.5T548 148q0-26 17.5-38.5T595 97q9 0 16-3.5t13-8.5q9-7 21.5-13t34.5-6 35 6 21 13q7 5 14 8.5t16 3.5q12 0 29.5 12.5T813 148q0 18-11.5 29.5T776 198q-10 7-18 14t-8 16v15q0 9 7 17t16 16q11 10 20 22t9 26q0 15-9 27t-20 22q-9 8-16 16t-7 17v15q0 9 8 16t19 14q13 9 24.5 20.5T813 500q0 24-17 38t-41 14q-13 0-20.5-2.5T721 543t-15-7.5-26-3.5-25.5 3.5T640 543t-13.5 6.5T606 552zm41-266h67V185l1-1q6-6 14-16t8-22q0-20-16.5-36T680 94q-23 0-39.5 16T624 146q0 13 8.5 23.5T647 185v101zm33 221q17 0 25.5-10t8.5-24V365h-67v108q0 14 8.5 24t24.5 10zm-52-164h104q10 0 16.5-6t6.5-13q0-13-23-15H628q-19 0-22 15 0 17 22 19zm-22 749q-24 0-41-14.5t-17-37.5q0-18 11.5-29.5T585 991q11-7 18.5-14t7.5-16v-15q0-9-7-17t-16-16q-11-10-20-22t-9-27q0-14 9-26t20-22q9-8 16-16t7-17v-15q0-10-8-17t-18-14q-14-8-25.5-19.5T548 688q0-27 17.5-39t29.5-12q9 0 16-4t13-9q9-7 21.5-13t34.5-6 35 6 21 13q7 5 14 9t16 4q12 0 29.5 12t17.5 39q0 18-11.5 29.5T777 737q-11 7-19 14t-8 17v15q0 9 7 17t16 16q11 10 20 22t9 26q0 15-9 27t-20 22q-9 8-16 16t-7 17v15q0 9 8 16t18 14q14 8 25.5 19.5T813 1040q0 23-17 37.5t-41 14.5q-13 0-20.5-3t-13.5-7-15-7.5-26-3.5-25.5 3.5-14.5 7.5-13.5 7-20.5 3zm41-266h67V725q6-6 14.5-16.5T737 686q0-20-16.5-36T680 634q-23 0-39.5 16T624 686q0 12 8.5 22.5T647 725v101zm-19 56h104q10 0 16.5-5.5T755 864q0-13-23-15H628q-19 0-22 15 0 17 22 18zm52 165q17 0 25.5-10.5t8.5-23.5V905h-67v108q0 13 8.5 23.5T680 1047zm-74 584q-24 0-41-14t-17-38q0-18 11.5-29t25.5-20q11-7 18.5-13.5t7.5-15.5v-16q0-9-7-16.5t-16-16.5q-11-10-20-21.5t-9-26.5 9.5-26.5T589 1355q9-8 15.5-16t6.5-16v-15q0-10-8-17t-18-14q-14-8-25.5-19.5T548 1228q0-27 17.5-39t29.5-12q9 0 16-4t13-9q9-7 21.5-13t34.5-6 35 6 21 13q7 5 14 9t16 4q12 0 29.5 12t17.5 39q0 18-11.5 29.5T777 1277q-11 7-19 14t-8 17v15q0 8 6.5 16t15.5 16q11 11 20.5 22.5t9.5 26.5-9 26.5-20 21.5q-9 9-16 16.5t-7 16.5v16q0 9 8 15.5t18 13.5q14 9 25.5 20t11.5 29q0 24-17 38t-41 14q-13 0-20.5-3t-13.5-6q-6-4-15-7.5t-26-3.5-25.5 3.5-14.5 7.5q-6 3-13.5 6t-20.5 3zm22-209h104q10 0 16.5-5.5t6.5-12.5q0-14-23-16H628q-19 0-22 16 0 17 22 18zm19-56h67v-101l4-4q6-7 12.5-16t6.5-19q0-20-16.5-36t-40.5-16q-23 0-39.5 16t-16.5 36q0 12 8.5 22.5T647 1265v101zm33 220q17 0 25.5-10t8.5-23v-109h-67v109q0 13 8.5 23t24.5 10" />
   <path fill="#99C794"
      d="M252 552q-23 0-40.5-14T194 500q0-17 11.5-28.5T230 451q11-7 19-14t8-16v-15q0-9-7-17t-16-16q-11-10-20-22t-9-27q0-14 9-26t20-22q9-8 16-16t7-17v-15q0-9-8-16t-18-14q-14-9-25.5-20.5T194 148q0-26 18-38.5T241 97q10 0 16.5-3.5T271 84q9-6 21.5-12t34.5-6 34.5 6T383 84q6 6 13 9.5t17 3.5q11 0 29 12.5t18 38.5q0 18-12 29.5T422 198q-10 7-18 14t-8 16v15q0 9 7 17t16 16q11 10 20 22t9 26q0 15-9 27t-20 22q-9 8-16 16t-7 17v15q0 9 8 16t19 14q14 9 25.5 20.5T460 500q0 24-17.5 38T401 552q-13 0-20-2.5t-13-6.5-15-7.5-26-3.5-26 3.5-15 7.5-13.5 6.5T252 552zm707 0q-23 0-40.5-14T901 500q0-17 11.5-28.5T938 451q10-7 18-14t8-16v-15q0-9-7-17t-16-16q-11-10-20-22t-9-27q0-14 9-26t20-22q9-8 16-16t7-17v-15q0-9-7.5-16T938 198q-14-9-25.5-20.5T901 148q0-26 18-38.5T948 97q10 0 17-3.5t14-9.5q8-6 20.5-12t34.5-6 34.5 6 21.5 12q7 6 13.5 9.5T1120 97q12 0 29.5 12.5T1167 148q0 18-11.5 29.5T1130 198q-11 7-18.5 14t-7.5 16v15q0 9 6.5 17t15.5 16q11 10 20 22t9 26q0 15-9 27t-20 22q-9 8-15.5 16t-6.5 17v15q0 9 7.5 16t18.5 14q14 9 25.5 20.5T1167 500q0 24-17.5 38t-41.5 14q-13 0-20-2.5t-13-6.5-15-7.5-26-3.5-25.5 3.5T993 543q-6 4-13.5 6.5T959 552zM293 286h68V185q6-5 14-15.5t8-23.5q0-20-16.5-36T327 94q-24 0-40 16t-16 36q0 13 8 23.5t14 15.5v101zm707 0h68V185q6-5 14-15.5t8-23.5q0-20-16-36t-40-16-40 16-16 36q0 13 8 23.5t14 15.5v101zm-725 57h104q10 0 16-6t6-13q0-13-22-15H275q-21 0-23 15 0 17 23 19zm708 0h103q10 0 16-6t6-13q0-13-22-15H983q-10 0-17 4.5t-7 10.5q0 9 7 14t17 5zM327 507q16 0 25-10t9-24V365h-68v108q0 14 8.5 24t25.5 10zm707 0q17 0 25.5-10t8.5-24V365h-68v108q0 14 8.5 24t25.5 10zm-782 585q-23 0-40.5-14.5T194 1040q0-18 11.5-29.5T231 991q10-7 18-14t8-16v-15q0-9-7-17t-16-16q-11-10-20-22t-9-27q0-14 9-26t20-22q9-8 16-16t7-17v-15q0-10-8-17t-19-14q-13-8-24.5-19.5T194 688q0-27 18-39t29-12q10 0 16.5-4t13.5-9q9-7 21.5-13t34.5-6 34.5 6 21.5 13q6 5 13 9t17 4q11 0 29 12t18 39q0 18-11.5 29.5T423 737q-11 7-19 14t-8 17v15q0 9 7 17t16 16q11 10 20 22t9 26q0 15-9 27t-20 22q-9 8-16 16t-7 17v15q0 9 8 16t18 14q14 8 26 19.5t12 29.5q0 23-17.5 37.5T401 1092q-13 0-20-3t-13-7-15-7.5-26-3.5-26 3.5-15 7.5-13.5 7-20.5 3zm707 0q-23 0-40.5-14.5T901 1040q0-18 11.5-29.5T938 991q11-7 18.5-14t7.5-16v-15q0-9-7-17t-16-16q-11-10-20-22t-9-27q0-14 9-26t20-22q9-8 16-16t7-17v-15q0-10-8-17t-18-14q-14-8-25.5-19.5T901 688q0-27 18-39t29-12q10 0 17-4t14-9q8-7 20.5-13t34.5-6 34.5 6 21.5 13q7 5 13.5 9t16.5 4q12 0 29.5 12t17.5 39q0 18-11.5 29.5T1130 737q-11 7-18.5 14t-7.5 17v15q0 9 6.5 17t15.5 16q11 10 20 22t9 26q0 15-9 27t-20 22q-9 8-15.5 16t-6.5 17v15q0 9 7.5 16t18.5 14q14 8 25.5 19.5t11.5 29.5q0 23-17.5 37.5T1108 1092q-13 0-20-3t-13-7-15-7.5-26-3.5-25.5 3.5-15.5 7.5q-6 4-13.5 7t-20.5 3zM293 826h68V725q6-6 14-16.5t8-22.5q0-20-16.5-36T327 634q-24 0-40 16t-16 36q0 12 8 22.5t14 16.5v101zm707 0h68V725q6-6 14-16.5t8-22.5q0-20-16-36t-40-16-40 16-16 36q0 12 8 22.5t14 16.5v101zm-725 56h104q10 0 16-5.5t6-12.5q0-13-22-15H275q-21 0-23 15 0 17 23 18zm708 0h103q10 0 16-5.5t6-12.5q0-13-22-15H983q-10 0-17 4.5t-7 10.5q0 17 24 18zm-656 165q16 0 25-10.5t9-23.5V905h-68v108q0 13 8.5 23.5T327 1047zm707 0q17 0 25.5-10.5t8.5-23.5V905h-68v108q0 13 8.5 23.5t25.5 10.5zm-782 584q-23 0-40.5-14t-17.5-38q0-18 11.5-29t25.5-20q10-7 18-13.5t8-15.5v-16q0-9-7-16.5t-16-16.5q-11-10-20-21.5t-9-26.5 9-26.5 21-22.5q8-8 15-16t7-16v-15q0-10-8-17t-19-14q-13-8-24.5-19.5T194 1228q0-27 18-39t29-12q10 0 16.5-4t13.5-9q9-7 21.5-13t34.5-6 34.5 6 21.5 13q6 5 13 9t17 4q11 0 29 12t18 39q0 18-11.5 29.5T423 1277q-11 7-19 14t-8 17v15q0 8 6.5 16t15.5 16q11 11 20.5 22.5t9.5 26.5-9.5 26.5T418 1452q-9 9-15.5 16.5T396 1485v16q0 9 8 15.5t18 13.5q14 9 26 20t12 29q0 24-17.5 38t-41.5 14q-13 0-20-3t-13-6q-6-4-15-7.5t-26-3.5-26 3.5-15 7.5q-6 3-13.5 6t-20.5 3zm707 0q-23 0-40.5-14t-17.5-38q0-18 11.5-29t25.5-20q11-7 18.5-13.5t7.5-15.5v-16q0-9-6.5-16.5T942 1452q-11-10-20.5-21.5T912 1404t9.5-26.5T942 1355q9-8 15.5-16t6.5-16v-15q0-10-8-17t-18-14q-14-8-25.5-19.5T901 1228q0-27 18-39t29-12q10 0 17-4t14-9q8-7 20.5-13t34.5-6 34.5 6 21.5 13q7 5 13.5 9t16.5 4q12 0 29.5 12t17.5 39q0 18-11.5 29.5T1130 1277q-11 7-18.5 14t-7.5 17v15q0 8 6.5 16t14.5 16q12 11 21 22.5t9 26.5-9 26.5-20 21.5q-9 9-15.5 16.5t-6.5 16.5v16q0 9 7.5 15.5t18.5 13.5q14 9 25.5 20t11.5 29q0 24-17.5 38t-41.5 14q-13 0-20-3t-13-6q-6-4-15-7.5t-26-3.5-25.5 3.5-15.5 7.5q-6 3-13.5 6t-20.5 3zm-666-265h68v-101q1-2 3-3 6-7 12.5-16.5t6.5-19.5q0-20-16.5-36t-39.5-16q-24 0-40 16t-16 36q0 10 6.5 19.5T290 1262q2 1 3 3v101zm707 0h68v-101q1-2 3-3 6-7 12.5-16.5t6.5-19.5q0-20-16-36t-40-16-40 16-16 36q0 10 7 19.5t13 16.5q1 1 2 3v101zm-725 56h104q10 0 16-5.5t6-12.5q0-14-22-16H275q-21 0-23 16 0 17 23 18zm708 0h103q10 0 16-5.5t6-12.5q0-14-22-16H983q-10 0-17 4.5t-7 11.5q0 17 24 18zm-656 164q16 0 25-10t9-23v-109h-68v109q0 13 8.5 23t25.5 10zm707 0q17 0 25.5-10t8.5-23v-109h-68v109q0 13 8.5 23t25.5 10z" />
   </svg>