<?xml version="1.0" standalone="no"?>
<!DOCTYPE svg PUBLIC "-//W3C//DTD SVG 1.1//EN" "http://www.w3.org/Graphics/SVG/1.1/DTD/svg11.dtd" >
<svg xmlns="http://www.w3.org/2000/svg" xmlns:xlink="http://www.w3.org/1999/xlink" version="1.1" viewBox="0 -49 1361 1814">
   <path fill="#292929" d="M131 1765
q-53 0 -92 -39t-39 -92v-1552q0 -54 39 -92.5t92 -38.5h1098q54 0 93 38.5t39 92.5v1552q0 53 -39 92t-93 39h-1098z" />
   <path fill="#99C794"
d="M331 810q-24 0 -41 -14t-17 -37q0 -18 9.5 -28.5t23.5 -19.5q4 -3 7 -7q9 -8 16 -16t7 -19v-107q0 -8 -6.5 -16.5t-15.5 -18.5q-13 -13 -23.5 -28.5t-10.5 -33.5t10.5 -33t22.5 -28q9 -10 16 -18.5t7 -17.5v-108q0 -11 -8 -20.5t-18 -18.5q-2 -1 -4 -3q-14 -8 -23.5 -19
t-9.5 -29q0 -27 19.5 -39t32.5 -12q9 0 15.5 -4t13.5 -9q8 -7 21 -13t36 -6q22 0 34.5 6t20.5 13q7 5 13.5 9t15.5 4q13 0 33 12t20 39q0 18 -10 29t-24 19q-3 3 -7 6q-9 8 -16 16.5t-7 19.5v108q0 9 6.5 17.5t16.5 18.5q12 13 22.5 28t10.5 33t-10.5 33.5t-23.5 28.5
q-9 10 -15.5 18.5t-6.5 16.5v107q0 10 6.5 18t14.5 15q4 5 9 9q14 9 24 19.5t10 28.5q0 23 -17.5 37t-41.5 14q-13 0 -21.5 -3t-15.5 -6q-7 -5 -16.5 -8t-24.5 -3q-16 0 -25.5 3t-17.5 7q-7 4 -15 7t-22 3zM871 810q-23 0 -40.5 -14t-17.5 -37q0 -18 10.5 -28.5t23.5 -19.5
q5 -4 9 -9q9 -7 15 -15t6 -18v-107q0 -8 -6.5 -16.5t-16.5 -18.5q-12 -13 -23 -28.5t-11 -33.5t10.5 -33t23.5 -28q9 -10 16 -18.5t7 -17.5v-108q0 -11 -7 -19.5t-16 -16.5q-3 -3 -7 -6q-13 -8 -23.5 -19t-10.5 -29t10 -29.5t22 -16.5t20 -5q9 0 16 -4t14 -9q9 -7 21.5 -13
t34.5 -6t34.5 6t20.5 13q7 5 14 9t16 4q8 0 20.5 5t22 16.5t9.5 29.5t-10 29t-24 19q-3 2 -5 5q-10 8 -17 17t-7 20v108q0 9 7 17.5t16 18.5q12 13 23 28t11 33t-11 33.5t-23 28.5q-10 10 -16.5 18.5t-6.5 16.5v107q0 10 6.5 18t14.5 16l8 8q14 9 24 19.5t10 28.5
q0 23 -17.5 37t-40.5 14q-13 0 -21.5 -3t-15.5 -7q-8 -4 -17.5 -7t-24.5 -3q-16 0 -25.5 3t-17.5 7q-7 4 -15 7t-22 3zM376 398h68v-185q23 -17 23 -41q0 -19 -16.5 -34t-39.5 -15q-24 0 -41 15t-17 34q0 12 6.5 23t16.5 18v185zM917 398h68v-185q22 -17 22 -41
q0 -19 -16 -34t-40 -15t-40 15t-16 34q0 24 22 41v185zM358 454h104q10 0 16 -5.5t6 -12.5q0 -6 -6 -11t-16 -5h-104q-10 0 -16 5t-6 11q0 17 22 18zM899 454h103q11 0 17 -5.5t6 -12.5q0 -6 -6 -11t-17 -5h-103q-10 0 -16 5t-6 11q0 17 22 18zM358 510h104q10 0 16 -5.5
t6 -11.5q0 -14 -22 -16h-104q-20 0 -22 16q0 16 22 17zM899 510h103q11 0 17 -5.5t6 -11.5q0 -14 -23 -16h-103q-20 0 -22 16q0 16 22 17zM411 761q33 0 33 -30v-198h-68v198q0 27 35 30zM951 761q34 0 34 -30v-198h-68v198q0 27 34 30zM331 1610q-24 0 -41 -14t-17 -38
q0 -17 9.5 -28t23.5 -19q4 -3 7 -7q9 -8 16 -16.5t7 -19.5v-106q0 -8 -6.5 -16.5t-15.5 -18.5q-13 -13 -23.5 -28.5t-10.5 -33.5t10.5 -33t22.5 -28q9 -10 16 -19t7 -17v-108q0 -12 -8 -21t-18 -18l-4 -4q-14 -8 -23.5 -19t-9.5 -28q0 -27 19.5 -39.5t32.5 -12.5
q9 0 15.5 -3.5t13.5 -8.5q8 -7 21 -13.5t36 -6.5q22 0 34.5 6.5t20.5 13.5q7 5 13.5 8.5t15.5 3.5q13 0 33 12.5t20 39.5q0 17 -10 28t-24 19q-3 4 -7 7q-9 8 -16 16.5t-7 19.5v108q0 8 6.5 17t16.5 19q12 13 22.5 28t10.5 33t-10.5 33.5t-23.5 28.5q-9 10 -15.5 18.5
t-6.5 16.5v106q0 11 6.5 18.5t14.5 15.5l9 9q14 8 24 19t10 28q0 24 -17.5 38t-41.5 14q-13 0 -21.5 -3t-15.5 -7t-16.5 -7.5t-24.5 -3.5q-16 0 -25.5 3.5t-17.5 7.5q-7 4 -15 7t-22 3zM871 1610q-23 0 -40.5 -14t-17.5 -38q0 -17 10.5 -28t23.5 -19l9 -9q9 -8 15 -15.5
t6 -18.5v-106q0 -8 -6.5 -16.5t-16.5 -18.5q-12 -13 -23 -28.5t-11 -33.5t10.5 -33t23.5 -28q9 -10 16 -19t7 -17v-108q0 -11 -7 -19.5t-16 -16.5l-7 -7q-13 -8 -23.5 -19t-10.5 -28q0 -18 10 -29.5t22 -17t20 -5.5q9 0 16 -3.5t14 -8.5q9 -7 21.5 -13.5t34.5 -6.5t34.5 6.5
t20.5 13.5q7 5 14 8.5t16 3.5q8 0 20.5 5.5t22 17t9.5 29.5q0 17 -10 28t-24 19q-3 3 -5 6q-10 8 -17 17t-7 20v108q0 8 7 17t16 19q12 13 23 28t11 33t-11 33.5t-23 28.5q-10 10 -16.5 18.5t-6.5 16.5v106q0 11 6.5 19t14.5 16l8 8q14 8 24 19t10 28q0 24 -17.5 38
t-40.5 14q-13 0 -21.5 -3t-15.5 -7q-8 -4 -17.5 -7.5t-24.5 -3.5q-16 0 -25.5 3.5t-17.5 7.5q-7 4 -15 7t-22 3zM376 1198h68v-185q23 -18 23 -41q0 -20 -16.5 -34.5t-39.5 -14.5q-24 0 -41 14.5t-17 34.5q0 12 6.5 23t16.5 18v185zM917 1198h68v-185q22 -18 22 -41
q0 -20 -16 -34.5t-40 -14.5t-40 14.5t-16 34.5q0 23 22 41v185zM358 1254h104q10 0 16 -5.5t6 -12.5q0 -6 -6 -11t-16 -5h-104q-10 0 -16 5t-6 11q0 17 22 18zM899 1254h103q11 0 17 -5.5t6 -12.5q0 -6 -6 -11t-17 -5h-103q-10 0 -16 5t-6 11q0 17 22 18zM358 1310h104
q10 0 16 -5.5t6 -12.5q0 -13 -22 -15h-104q-20 0 -22 15q0 17 22 18zM899 1310h103q11 0 17 -5.5t6 -12.5q0 -13 -23 -15h-103q-20 0 -22 15q0 17 22 18zM411 1561q33 0 33 -30v-198h-68v198q0 26 35 30zM951 1561q34 0 34 -30v-198h-68v198q0 26 34 30z" />
</svg>
