<?xml version="1.0" standalone="no"?>
<!DOCTYPE svg PUBLIC "-//W3C//DTD SVG 1.1//EN" "http://www.w3.org/Graphics/SVG/1.1/DTD/svg11.dtd" >
<svg xmlns="http://www.w3.org/2000/svg" xmlns:xlink="http://www.w3.org/1999/xlink" version="1.1" viewBox="0 -49 1361 1814">
   <path fill="#292929" d="M131 1765q-53 0 -92 -39t-39 -92v-1552q0 -54 39 -92.5t92 -38.5h1098q54 0 93 38.5t39 92.5v1552q0 53 -39 92t-93 39h-1098z" />
   <path fill="#EC5F67" d="M602 1211q-24 0 -41.5 -14t-17.5 -38q0 -16 10 -27.5t24 -19.5q3 -4 7 -7q9 -8 15.5 -16.5t6.5 -19.5v-106q0 -8 -6.5 -17t-15.5 -18q-13 -13 -23.5 -28t-10.5 -33q0 -19 11 -34t23 -28q9 -10 15.5 -18.5
t6.5 -16.5v-108q0 -11 -6.5 -19.5t-15.5 -16.5q-4 -3 -7 -7q-14 -9 -24 -20t-10 -27q0 -27 20 -39.5t32 -12.5q9 0 16 -3.5t13 -8.5q9 -7 21.5 -13.5t34.5 -6.5t35 6.5t21 13.5q7 5 14 8.5t16 3.5q12 0 32 12.5t20 39.5q0 16 -10 27t-23 20q-3 3 -6 5q-10 8 -17 17t-7 21
v108q0 8 6.5 16.5t15.5 18.5q12 13 23 28t11 34q0 18 -10.5 33t-23.5 28q-9 9 -15.5 18t-6.5 17v106q0 12 7 21t17 17q3 2 6 5q13 8 23 19.5t10 27.5q0 24 -17.5 38t-41.5 14q-13 0 -21.5 -3t-15.5 -7t-16.5 -7t-25.5 -3t-25.5 3.5t-16.5 7.5q-7 3 -15 6t-21 3zM647 798h67
v-183q23 -18 23 -41q0 -21 -16.5 -35.5t-40.5 -14.5q-23 0 -39.5 14.5t-16.5 35.5q0 23 23 41v183zM628 856h104q10 0 16.5 -6.5t6.5 -12.5q0 -13 -23 -16h-104q-19 0 -22 16q0 18 22 19zM628 912h104q10 0 16.5 -6t6.5 -13q0 -13 -23 -15h-104q-19 0 -22 15q0 18 22 19z
M680 1161q35 0 34 -28v-199h-67v199q0 26 33 28z" />
   <path fill="#99C794"
d="M252 810q-23 0 -40.5 -14t-17.5 -37q0 -18 9.5 -28.5t24.5 -19.5l8 -8q8 -8 14.5 -16t6.5 -18v-107q0 -8 -6.5 -16.5t-16.5 -18.5q-12 -13 -23 -28.5t-11 -33.5t11 -33t23 -28q9 -10 16 -18.5t7 -17.5v-108q0 -11 -7.5 -20t-16.5 -17q-2 -3 -5 -5q-15 -8 -24.5 -19
t-9.5 -29t9.5 -29.5t22 -16.5t20.5 -5q9 0 16 -4t14 -9q8 -7 20.5 -13t34.5 -6t34.5 6t21.5 13q7 5 13.5 9t16.5 4q8 0 20 5t22 16.5t10 29.5t-10 29t-24 19q-3 2 -6 5q-9 8 -16 17t-7 20v108q0 9 6.5 17.5t16.5 18.5q12 13 22.5 28t10.5 33t-10.5 33.5t-23.5 28.5
q-9 10 -15.5 18.5t-6.5 16.5v107q0 10 6 18t15 16l8 8q14 9 24 19.5t10 28.5q0 23 -17.5 37t-40.5 14q-14 0 -22 -3t-16 -7q-7 -4 -16.5 -7t-25.5 -3q-15 0 -24.5 3t-17.5 7q-7 4 -15.5 7t-21.5 3zM951 810q-24 0 -41.5 -14t-17.5 -37q0 -18 10 -28.5t24 -19.5l8 -8
q9 -8 15 -16t6 -18v-107q0 -8 -6.5 -16.5t-15.5 -18.5q-13 -13 -23.5 -28.5t-10.5 -33.5t10.5 -33t22.5 -28q10 -10 16.5 -18.5t6.5 -17.5v-108q0 -11 -7 -20t-16 -17q-3 -3 -6 -5q-14 -8 -24 -19t-10 -29t10 -29.5t22 -16.5t20 -5q10 0 16.5 -4t13.5 -9q9 -7 21.5 -13
t34.5 -6t34.5 6t20.5 13q7 5 14 9t17 4q7 0 19.5 5t22 16.5t9.5 29.5t-10 29t-24 19q-3 3 -7 6q-9 8 -15.5 16.5t-6.5 19.5v108q0 9 6.5 17.5t16.5 18.5q12 13 23 28t11 33t-11 33.5t-24 28.5q-9 10 -15.5 18.5t-6.5 16.5v107q0 10 6 18t14 15l9 9q14 9 24 19.5t10 28.5
q0 23 -17.5 37t-41.5 14q-13 0 -21 -2.5t-15 -6.5q-7 -5 -16.5 -8t-25.5 -3t-25.5 3t-16.5 7t-15.5 7t-21.5 3zM297 398h68v-185q22 -17 22 -41q0 -19 -16 -34t-40 -15t-40 15t-16 34q0 24 22 41v185zM996 398h68v-185q22 -17 22 -41q0 -19 -16.5 -34t-39.5 -15
q-24 0 -40 15t-16 34q0 24 22 41v185zM280 454h103q10 0 16.5 -5.5t6.5 -12.5q0 -6 -6.5 -11t-16.5 -5h-103q-10 0 -16.5 5t-6.5 11q0 17 23 18zM978 454h104q9 0 15.5 -5.5t6.5 -12.5q0 -6 -6.5 -11t-15.5 -5h-104q-11 0 -17 5t-6 11q0 17 23 18zM280 510h103
q10 0 16.5 -5.5t6.5 -11.5q0 -7 -6.5 -11.5t-16.5 -4.5h-103q-10 0 -16.5 4.5t-6.5 11.5q0 16 23 17zM978 510h104q9 0 15.5 -5.5t6.5 -11.5q0 -14 -22 -16h-104q-21 0 -23 16q0 16 23 17zM331 761q33 0 34 -30v-198h-68v198q0 27 34 30zM1030 761q33 0 34 -30v-198h-68v198
q0 27 34 30zM252 1610q-23 0 -40.5 -14t-17.5 -38q0 -17 9.5 -28t24.5 -19l8 -8q8 -8 14.5 -16t6.5 -19v-106q0 -8 -6.5 -16.5t-16.5 -18.5q-12 -13 -23 -28.5t-11 -33.5t11 -33t23 -28q9 -10 16 -19t7 -17v-108q0 -11 -7.5 -20t-16.5 -17q-2 -3 -5 -6q-15 -8 -24.5 -19
t-9.5 -28q0 -18 9.5 -29.5t22 -17t20.5 -5.5q9 0 16 -3.5t14 -8.5q8 -7 20.5 -13.5t34.5 -6.5t34.5 6.5t21.5 13.5q7 5 13.5 8.5t16.5 3.5q8 0 20 5.5t22 17t10 29.5q0 17 -10 28t-24 19l-6 6q-9 8 -16 17t-7 20v108q0 8 6.5 17t16.5 19q12 13 22.5 28t10.5 33t-10.5 33.5
t-23.5 28.5q-9 10 -15.5 18.5t-6.5 16.5v106q0 11 6 19t15 16l8 8q14 8 24 19t10 28q0 24 -17.5 38t-40.5 14q-14 0 -22 -3t-16 -7q-7 -4 -16.5 -7.5t-25.5 -3.5q-15 0 -24.5 3.5t-17.5 7.5q-7 4 -15.5 7t-21.5 3zM951 1610q-24 0 -41.5 -14t-17.5 -38q0 -17 10 -28t24 -19
l8 -8q9 -8 15 -16t6 -19v-106q0 -8 -6.5 -16.5t-15.5 -18.5q-13 -13 -23.5 -28.5t-10.5 -33.5t10.5 -33t22.5 -28q10 -10 16.5 -19t6.5 -17v-108q0 -11 -7 -20t-16 -17l-6 -6q-14 -8 -24 -19t-10 -28q0 -18 10 -29.5t22 -17t20 -5.5q10 0 16.5 -3.5t13.5 -8.5
q9 -7 21.5 -13.5t34.5 -6.5t34.5 6.5t20.5 13.5q7 5 14 8.5t17 3.5q7 0 19.5 5.5t22 17t9.5 29.5q0 17 -10 28t-24 19q-3 4 -7 7q-9 8 -15.5 16.5t-6.5 19.5v108q0 8 6.5 17t16.5 19q12 13 23 28t11 33t-11 33.5t-24 28.5q-9 10 -15.5 18.5t-6.5 16.5v106q0 11 6 18.5
t14 15.5q5 4 9 9q14 8 24 19t10 28q0 24 -17.5 38t-41.5 14q-13 0 -21 -3t-15 -7t-16.5 -7.5t-25.5 -3.5t-25.5 3.5t-16.5 7.5t-15.5 7t-21.5 3zM297 1198h68v-185q22 -18 22 -41q0 -20 -16 -34.5t-40 -14.5t-40 14.5t-16 34.5q0 23 22 41v185zM996 1198h68v-185
q22 -18 22 -41q0 -20 -16.5 -34.5t-39.5 -14.5q-24 0 -40 14.5t-16 34.5q0 23 22 41v185zM280 1254h103q10 0 16.5 -5.5t6.5 -12.5q0 -6 -6.5 -11t-16.5 -5h-103q-10 0 -16.5 5t-6.5 11q0 17 23 18zM978 1254h104q9 0 15.5 -5.5t6.5 -12.5q0 -6 -6.5 -11t-15.5 -5h-104
q-11 0 -17 5t-6 11q0 17 23 18zM280 1310h103q10 0 16.5 -5.5t6.5 -12.5q0 -6 -6.5 -10.5t-16.5 -4.5h-103q-10 0 -16.5 4.5t-6.5 10.5q0 17 23 18zM978 1310h104q9 0 15.5 -5.5t6.5 -12.5q0 -13 -22 -15h-104q-21 0 -23 15q0 17 23 18zM331 1561q33 0 34 -30v-198h-68v198
q0 26 34 30zM1030 1561q33 0 34 -30v-198h-68v198q0 26 34 30z" />
</svg>
