<?xml version="1.0" standalone="no"?>
<!DOCTYPE svg PUBLIC "-//W3C//DTD SVG 1.1//EN" "http://www.w3.org/Graphics/SVG/1.1/DTD/svg11.dtd" >
<svg xmlns="http://www.w3.org/2000/svg" xmlns:xlink="http://www.w3.org/1999/xlink" version="1.1" viewBox="0 -49 1361 1814">
   <path fill="#292929" d="M131 1765q-53 0 -92 -39t-39 -92v-1552q0 -54 39 -92.5t92 -38.5h1098q54 0 93 38.5t39 92.5v1552q0 53 -39 92t-93 39h-1098z" />
   <path fill="#EC5F67" d="M606 552q-24 0 -41 -14t-17 -38q0 -17 11.5 -28.5t25.5 -20.5q10 -7 18 -14t8 -16v-15q0 -9 -7 -17t-16 -16q-11 -10 -20 -22t-9 -27
q0 -14 9 -26t20 -22q9 -8 16 -16t7 -17v-15q0 -9 -7.5 -16t-18.5 -14q-14 -9 -25.5 -20.5t-11.5 -29.5q0 -26 17.5 -38.5t29.5 -12.5q9 0 16 -3.5t13 -8.5q9 -7 21.5 -13t34.5 -6t35 6t21 13q7 5 14 8.5t16 3.5q12 0 29.5 12.5t17.5 38.5q0 18 -11.5 29.5t-25.5 20.5
q-10 7 -18 14t-8 16v15q0 9 7 17t16 16q11 10 20 22t9 26q0 15 -9 27t-20 22q-9 8 -16 16t-7 17v15q0 9 8 16t19 14q13 9 24.5 20.5t11.5 28.5q0 24 -17 38t-41 14q-13 0 -20.5 -2.5t-13.5 -6.5t-15 -7.5t-26 -3.5t-25.5 3.5t-14.5 7.5t-13.5 6.5t-20.5 2.5zM647 286h67
v-101l1 -1q6 -6 14 -16t8 -22q0 -20 -16.5 -36t-40.5 -16q-23 0 -39.5 16t-16.5 36q0 13 8.5 23.5t14.5 15.5v101zM628 343h104q10 0 16.5 -6t6.5 -13q0 -13 -23 -15h-104q-19 0 -22 15q0 17 22 19zM680 507q17 0 25.5 -10t8.5 -24v-108h-67v108q0 14 8.5 24t24.5 10z
" />
   <path fill="#99C794"
d="M252 1092q-23 0 -40.5 -14.5t-17.5 -37.5q0 -18 11.5 -29.5t25.5 -19.5q10 -7 18 -14t8 -16v-15q0 -9 -7 -17t-16 -16q-11 -10 -20 -22t-9 -27q0 -14 9 -26t20 -22q9 -8 16 -16t7 -17v-15q0 -10 -8 -17t-19 -14q-13 -8 -24.5 -19.5t-11.5 -29.5q0 -27 18 -39t29 -12
q10 0 16.5 -4t13.5 -9q9 -7 21.5 -13t34.5 -6t34.5 6t21.5 13q6 5 13 9t17 4q11 0 29 12t18 39q0 18 -11.5 29.5t-25.5 19.5q-11 7 -19 14t-8 17v15q0 9 7 17t16 16q11 10 20 22t9 26q0 15 -9 27t-20 22q-9 8 -16 16t-7 17v15q0 9 8 16t18 14q14 8 26 19.5t12 29.5
q0 23 -17.5 37.5t-41.5 14.5q-13 0 -20 -3t-13 -7t-15 -7.5t-26 -3.5t-26 3.5t-15 7.5t-13.5 7t-20.5 3zM606 1092q-24 0 -41 -14.5t-17 -37.5q0 -18 11.5 -29.5t25.5 -19.5q11 -7 18.5 -14t7.5 -16v-15q0 -9 -7 -17t-16 -16q-11 -10 -20 -22t-9 -27q0 -14 9 -26t20 -22
q9 -8 16 -16t7 -17v-15q0 -10 -8 -17t-18 -14q-14 -8 -25.5 -19.5t-11.5 -29.5q0 -27 17.5 -39t29.5 -12q9 0 16 -4t13 -9q9 -7 21.5 -13t34.5 -6t35 6t21 13q7 5 14 9t16 4q12 0 29.5 12t17.5 39q0 18 -11.5 29.5t-24.5 19.5q-11 7 -19 14t-8 17v15q0 9 7 17t16 16
q11 10 20 22t9 26q0 15 -9 27t-20 22q-9 8 -16 16t-7 17v15q0 9 8 16t18 14q14 8 25.5 19.5t11.5 29.5q0 23 -17 37.5t-41 14.5q-13 0 -20.5 -3t-13.5 -7t-15 -7.5t-26 -3.5t-25.5 3.5t-14.5 7.5t-13.5 7t-20.5 3zM959 1092q-23 0 -40.5 -14.5t-17.5 -37.5q0 -18 11.5 -29.5
t25.5 -19.5q11 -7 18.5 -14t7.5 -16v-15q0 -9 -7 -17t-16 -16q-11 -10 -20 -22t-9 -27q0 -14 9 -26t20 -22q9 -8 16 -16t7 -17v-15q0 -10 -8 -17t-18 -14q-14 -8 -25.5 -19.5t-11.5 -29.5q0 -27 18 -39t29 -12q10 0 17 -4t14 -9q8 -7 20.5 -13t34.5 -6t34.5 6t21.5 13
q7 5 13.5 9t16.5 4q12 0 29.5 12t17.5 39q0 18 -11.5 29.5t-25.5 19.5q-11 7 -18.5 14t-7.5 17v15q0 9 6.5 17t15.5 16q11 10 20 22t9 26q0 15 -9 27t-20 22q-9 8 -15.5 16t-6.5 17v15q0 9 7.5 16t18.5 14q14 8 25.5 19.5t11.5 29.5q0 23 -17.5 37.5t-41.5 14.5
q-13 0 -20 -3t-13 -7t-15 -7.5t-26 -3.5t-25.5 3.5t-15.5 7.5q-6 4 -13.5 7t-20.5 3zM293 826h68v-101q6 -6 14 -16.5t8 -22.5q0 -20 -16.5 -36t-39.5 -16q-24 0 -40 16t-16 36q0 12 8 22.5t14 16.5v101zM647 826h67v-101q6 -6 14.5 -16.5t8.5 -22.5q0 -20 -16.5 -36
t-40.5 -16q-23 0 -39.5 16t-16.5 36q0 12 8.5 22.5t14.5 16.5v101zM1000 826h68v-101q6 -6 14 -16.5t8 -22.5q0 -20 -16 -36t-40 -16t-40 16t-16 36q0 12 8 22.5t14 16.5v101zM275 882h104q10 0 16 -5.5t6 -12.5q0 -13 -22 -15h-104q-21 0 -23 15q0 17 23 18zM628 882h104
q10 0 16.5 -5.5t6.5 -12.5q0 -13 -23 -15h-104q-19 0 -22 15q0 17 22 18zM983 882h103q10 0 16 -5.5t6 -12.5q0 -13 -22 -15h-103q-10 0 -17 4.5t-7 10.5q0 17 24 18zM327 1047q16 0 25 -10.5t9 -23.5v-108h-68v108q0 13 8.5 23.5t25.5 10.5zM680 1047q17 0 25.5 -10.5
t8.5 -23.5v-108h-67v108q0 13 8.5 23.5t24.5 10.5zM1034 1047q17 0 25.5 -10.5t8.5 -23.5v-108h-68v108q0 13 8.5 23.5t25.5 10.5zM252 1631q-23 0 -40.5 -14t-17.5 -38q0 -18 11.5 -29t25.5 -20q10 -7 18 -13.5t8 -15.5v-16q0 -9 -7 -16.5t-16 -16.5q-11 -10 -20 -21.5
t-9 -26.5t9 -26.5t21 -22.5q8 -8 15 -16t7 -16v-15q0 -10 -8 -17t-19 -14q-13 -8 -24.5 -19.5t-11.5 -29.5q0 -27 18 -39t29 -12q10 0 16.5 -4t13.5 -9q9 -7 21.5 -13t34.5 -6t34.5 6t21.5 13q6 5 13 9t17 4q11 0 29 12t18 39q0 18 -11.5 29.5t-25.5 19.5q-11 7 -19 14
t-8 17v15q0 8 6.5 16t15.5 16q11 11 20.5 22.5t9.5 26.5t-9.5 26.5t-20.5 21.5q-9 9 -15.5 16.5t-6.5 16.5v16q0 9 8 15.5t18 13.5q14 9 26 20t12 29q0 24 -17.5 38t-41.5 14q-13 0 -20 -3t-13 -6q-6 -4 -15 -7.5t-26 -3.5t-26 3.5t-15 7.5q-6 3 -13.5 6t-20.5 3zM606 1631
q-24 0 -41 -14t-17 -38q0 -18 11.5 -29t25.5 -20q11 -7 18.5 -13.5t7.5 -15.5v-16q0 -9 -7 -16.5t-16 -16.5q-11 -10 -20 -21.5t-9 -26.5t9.5 -26.5t20.5 -22.5q9 -8 15.5 -16t6.5 -16v-15q0 -10 -8 -17t-18 -14q-14 -8 -25.5 -19.5t-11.5 -29.5q0 -27 17.5 -39t29.5 -12
q9 0 16 -4t13 -9q9 -7 21.5 -13t34.5 -6t35 6t21 13q7 5 14 9t16 4q12 0 29.5 12t17.5 39q0 18 -11.5 29.5t-24.5 19.5q-11 7 -19 14t-8 17v15q0 8 6.5 16t15.5 16q11 11 20.5 22.5t9.5 26.5t-9 26.5t-20 21.5q-9 9 -16 16.5t-7 16.5v16q0 9 8 15.5t18 13.5q14 9 25.5 20
t11.5 29q0 24 -17 38t-41 14q-13 0 -20.5 -3t-13.5 -6q-6 -4 -15 -7.5t-26 -3.5t-25.5 3.5t-14.5 7.5q-6 3 -13.5 6t-20.5 3zM959 1631q-23 0 -40.5 -14t-17.5 -38q0 -18 11.5 -29t25.5 -20q11 -7 18.5 -13.5t7.5 -15.5v-16q0 -9 -6.5 -16.5t-15.5 -16.5
q-11 -10 -20.5 -21.5t-9.5 -26.5t9.5 -26.5t20.5 -22.5q9 -8 15.5 -16t6.5 -16v-15q0 -10 -8 -17t-18 -14q-14 -8 -25.5 -19.5t-11.5 -29.5q0 -27 18 -39t29 -12q10 0 17 -4t14 -9q8 -7 20.5 -13t34.5 -6t34.5 6t21.5 13q7 5 13.5 9t16.5 4q12 0 29.5 12t17.5 39
q0 18 -11.5 29.5t-25.5 19.5q-11 7 -18.5 14t-7.5 17v15q0 8 6.5 16t14.5 16q12 11 21 22.5t9 26.5t-9 26.5t-20 21.5q-9 9 -15.5 16.5t-6.5 16.5v16q0 9 7.5 15.5t18.5 13.5q14 9 25.5 20t11.5 29q0 24 -17.5 38t-41.5 14q-13 0 -20 -3t-13 -6q-6 -4 -15 -7.5t-26 -3.5
t-25.5 3.5t-15.5 7.5q-6 3 -13.5 6t-20.5 3zM293 1366h68v-101q1 -2 3 -3q6 -7 12.5 -16.5t6.5 -19.5q0 -20 -16.5 -36t-39.5 -16q-24 0 -40 16t-16 36q0 10 6.5 19.5t12.5 16.5q2 1 3 3v101zM647 1366h67v-101l4 -4q6 -7 12.5 -16t6.5 -19q0 -20 -16.5 -36t-40.5 -16
q-23 0 -39.5 16t-16.5 36q0 12 8.5 22.5t14.5 16.5v101zM1000 1366h68v-101q1 -2 3 -3q6 -7 12.5 -16.5t6.5 -19.5q0 -20 -16 -36t-40 -16t-40 16t-16 36q0 10 7 19.5t13 16.5q1 1 2 3v101zM275 1422h104q10 0 16 -5.5t6 -12.5q0 -14 -22 -16h-104q-21 0 -23 16q0 17 23 18z
M628 1422h104q10 0 16.5 -5.5t6.5 -12.5q0 -14 -23 -16h-104q-19 0 -22 16q0 17 22 18zM983 1422h103q10 0 16 -5.5t6 -12.5q0 -14 -22 -16h-103q-10 0 -17 4.5t-7 11.5q0 17 24 18zM327 1586q16 0 25 -10t9 -23v-109h-68v109q0 13 8.5 23t25.5 10zM680 1586q17 0 25.5 -10
t8.5 -23v-109h-67v109q0 13 8.5 23t24.5 10zM1034 1586q17 0 25.5 -10t8.5 -23v-109h-68v109q0 13 8.5 23t25.5 10z" />
</svg>
