<?xml version="1.0" standalone="no"?>
<!DOCTYPE svg PUBLIC "-//W3C//DTD SVG 1.1//EN" "http://www.w3.org/Graphics/SVG/1.1/DTD/svg11.dtd" >
<svg xmlns="http://www.w3.org/2000/svg" xmlns:xlink="http://www.w3.org/1999/xlink" version="1.1" viewBox="0 -49 1361 1814">
   <path fill="#292929" d="M131 1765q-53 0 -92 -39t-39 -92v-1552q0 -54 39 -92.5t92 -38.5h1098
q54 0 93 38.5t39 92.5v1552q0 53 -39 92t-93 39h-1098z" />
   <path fill="#99C794"
d="M578 1023q12 0 20 -9t8 -21t-8 -20t-20 -8t-21 8t-9 20t9 21t21 9zM828 848q14 0 23.5 -10t9.5 -23q0 -14 -9.5 -23.5t-23.5 -9.5t-24 9.5t-10 23.5q0 13 10 23t24 10zM664 848q14 0 23.5 -10t9.5 -23q0 -14 -9.5 -23.5t-23.5 -9.5t-24 9.5t-10 23.5q0 13 10 23t24 10z
M500 848q14 0 23.5 -10t9.5 -23q0 -14 -9.5 -23.5t-23.5 -9.5q-13 0 -23.5 9.5t-10.5 23.5q0 13 10.5 23t23.5 10zM911 706q13 0 23 -9.5t10 -23.5t-10 -23.5t-23 -9.5q-14 0 -24 9.5t-10 23.5t10 23.5t24 9.5zM747 706q14 0 23.5 -9.5t9.5 -23.5t-9.5 -23.5t-23.5 -9.5
t-24 9.5t-10 23.5t10 23.5t24 9.5zM583 706q14 0 23.5 -9.5t9.5 -23.5t-9.5 -23.5t-23.5 -9.5t-24 9.5t-10 23.5t10 23.5t24 9.5zM419 706q14 0 24 -9.5t10 -23.5t-10 -23.5t-24 -9.5q-13 0 -23.5 9.5t-10.5 23.5t10.5 23.5t23.5 9.5zM500 565q14 0 23.5 -9.5t9.5 -23.5
t-9.5 -23.5t-23.5 -9.5q-13 0 -23.5 9.5t-10.5 23.5t10.5 23.5t23.5 9.5zM664 565q14 0 23.5 -9.5t9.5 -23.5t-9.5 -23.5t-23.5 -9.5t-24 9.5t-10 23.5t10 23.5t24 9.5zM828 565q14 0 23.5 -9.5t9.5 -23.5t-9.5 -23.5t-23.5 -9.5t-24 9.5t-10 23.5t10 23.5t24 9.5zM747 424
q14 0 23.5 -10t9.5 -23q0 -14 -9.5 -24t-23.5 -10t-24 10t-10 24q0 13 10 23t24 10zM583 424q14 0 23.5 -10t9.5 -23q0 -14 -9.5 -24t-23.5 -10t-24 10t-10 24q0 13 10 23t24 10zM627 897q-50 -36 -96 7q-26 -7 -51 0l15 16l-10 6q-78 -50 -101 -55q-34 -7 -97.5 -10.5
t-155.5 -18.5q-35 -5 -33 -14q-2 -14 73 -6t107 9q-137 -82 -143 -91t4 -12q7 -2 113 57q-13 -26 -13 -59q0 -58 41 -99q30 -29 68 -38q-20 -10 -36 -26q-42 -42 -42 -100t42 -99q37 -38 90 -42q-14 -27 -14 -60q0 -58 41.5 -99.5t99.5 -41.5q59 0 100 41q13 13 22 28
q9 -15 21 -28q42 -41 100 -41q59 0 100 41.5t41 99.5q0 33 -13 60q57 1 97 42q42 41 42 99t-42 100q-14 13 -29 23h5q59 0 100.5 41t41.5 99t-41.5 99.5t-100.5 41.5h-69q-9 13 -47 42q-83 -24 -146 2q-29 -27 -84 -14zM828 882q27 0 46.5 -20t19.5 -47q0 -28 -19.5 -48
t-46.5 -20q-28 0 -47.5 20t-19.5 48q0 27 19.5 47t47.5 20zM664 882q28 0 47 -20t19 -47q0 -28 -19 -48t-47 -20q-27 0 -47 20t-20 48q0 27 20 47t47 20zM500 882q28 0 47.5 -20t19.5 -47q0 -28 -19.5 -48t-47.5 -20q-27 0 -47 20t-20 48q0 27 20 47t47 20zM911 740
q27 0 46.5 -19.5t19.5 -47.5t-19.5 -47.5t-46.5 -19.5q-28 0 -47.5 19.5t-19.5 47.5t19.5 47.5t47.5 19.5zM747 740q28 0 47 -19.5t19 -47.5t-19 -47.5t-47 -19.5t-47.5 19.5t-19.5 47.5t19.5 47.5t47.5 19.5zM583 740q28 0 47 -19.5t19 -47.5t-19 -47.5t-47 -19.5
q-27 0 -47 19.5t-20 47.5t20 47.5t47 19.5zM419 740q28 0 47.5 -19.5t19.5 -47.5t-19.5 -47.5t-47.5 -19.5q-27 0 -47 19.5t-20 47.5t20 47.5t47 19.5zM500 599q28 0 47.5 -19.5t19.5 -47.5q0 -27 -19.5 -47t-47.5 -20q-27 0 -47 20t-20 47q0 28 20 47.5t47 19.5zM664 599
q28 0 47 -19.5t19 -47.5q0 -27 -19 -47t-47 -20q-27 0 -47 20t-20 47q0 28 20 47.5t47 19.5zM828 599q27 0 46.5 -19.5t19.5 -47.5q0 -27 -19.5 -47t-46.5 -20q-28 0 -47.5 20t-19.5 47q0 28 19.5 47.5t47.5 19.5zM747 458q28 0 47 -20t19 -47q0 -28 -19 -48t-47 -20
t-47.5 20t-19.5 48q0 27 19.5 47t47.5 20zM583 458q28 0 47 -20t19 -47q0 -28 -19 -48t-47 -20q-27 0 -47 20t-20 48q0 27 20 47t47 20zM903 778q113 31 113 18q0 -11 -85 -42q-10 3 -20 3q-15 0 -27 -4q2 1 3 2q11 11 16 23zM911 826q82 18 85 6q3 -11 -88 -42q4 12 4 25
q0 5 -1 11zM428 773q-81 33 -97 43q-16 11 9 12q22 1 77 -7v-6q0 -23 11 -42zM418 834l-45 12q34 2 58 16q-9 -12 -13 -28zM377 746q-57 27 -67 35q-11 9 4 8q12 0 110 -32h-5q-24 0 -42 -11zM347 715q-53 19 -67 29q-16 12 7 10q20 -1 80 -16q-4 -2 -6 -6q-9 -8 -14 -17z
M886 592q50 -19 59 -30q10 -12 1 -17q-8 -4 -34 -7q-2 31 -26 54zM911 517q55 -4 59 -9q5 -5 -1 -9q-7 -3 -68 -8q7 12 10 26zM889 475l58 -13q39 -8 33 -15t-39 -4l-87 9q18 7 33 20q1 2 2 3zM527 453q-1 -2 -3 -4q-10 -9 -16 -21l-32 -11q-40 -15 10 -4l17 2q-3 -9 -4 -19
q-132 -21 -136 -19t-4 7t38 19t117 40q-165 -14 -174.5 -11t-4 10.5t36.5 12.5l75 12q22 -19 53 -19q15 0 27 5zM434 482q-47 -2 -71 -2q-28 0 -26.5 10t23.5 13q20 3 61 3q4 -13 13 -24zM418 522q-50 8 -59 17q-10 8 7 11q16 2 52 -4q-1 -6 -1 -14q0 -4 1 -10zM426 571
q-19 10 -36 15q24 -2 49 3q-8 -8 -13 -18zM731 308q18 -115 1 -117q-17 -1 -31 130q14 -11 30 -13zM699 322q-13 -95 -24 -96q-11 0 -2 124q6 -10 15 -19q6 -6 11 -9zM794 322q33 -66 26 -75q-10 -10 -55 62q16 2 29 13zM763 309q24 -76 22 -85q-4 -8 -13 3t-39 81
q7 -1 14 -1q8 0 16 2zM818 345q23 -25 29 -40q7 -16 1 -18q-5 -3 -50 37q4 3 8 7q6 6 12 14zM830 377q25 -20 32 -29q8 -10 5 -15q-5 -3 -45 20q6 11 8 24zM805 451l121 -38q36 -11 25.5 -19.5t-42.5 -2.5l-80 17q-5 24 -23 41q-1 1 -1 2zM640 330q8 -110 0 -115
q-8 -6 -15 11q-6 16 -13 85q15 6 28 19zM610 310q-19 -121 -31 -115q-14 6 3 112h1q14 0 27 3zM579 307q-43 -94 -50 -88q-8 8 25 92q12 -3 25 -4zM553 312q-49 -73 -57 -66q-9 7 40 75q8 -6 17 -9zM529 326q-33 -31 -50 -41q-19 -11 -22 -7q-4 6 53 71q5 -9 14 -18z
M509 352q-64 -36 -68 -30t13 19q16 12 46 37q2 -15 9 -26zM458 1185l5 -1q20 -20 38 -35l-42 -14l-76 25zM244 1207l-23 7q-10 15 -20 29l42 14l76 -26zM521 1134q20 -16 38 -25q5 -2 9 -5l-12 -1l-64 21zM190 1260q-4 9 -9 17l30 -10zM1102 1277l-63 22q77 0 127 1h4z
M1176 1281l-12 -24l-30 10zM697 928q7 4 12 10q8 7 15 16l25 -9zM996 1242l-74 25l76 25l75 -25zM1104 1257l50 -16l-14 -22l-36 -12l-76 24zM889 1278l-18 6q10 7 16 14h60zM781 956l-45 15q6 11 11 24l33 11l75 -25zM888 970l8 -3q14 -11 27 -24q47 -50 -11 -31l-99 33z
M889 1207l-74 24l74 25l74 -25zM995 1220l76 -24l-75 -25l-75 25zM849 1265q2 1 4 3l2 -1zM1103 1184l9 -2q-15 -20 -34 -39l-50 17zM780 1027l-22 8v2q3 19 1 33l21 8l75 -26zM888 1042l46 -16q-28 -16 -56 -31l-66 22zM888 1135l-76 25l77 25l75 -25zM996 1150l66 -23
l-9 -9l-59 -19l-75 25zM780 1171l-20 6l4 6q14 15 32 33l60 -20zM888 1114l75 -26l-75 -25l-76 25zM780 1099l-30 10q-8 13 -19 22q-1 1 -2 1l51 18l75 -26zM995 1078l8 -3q-23 -18 -48 -34l-35 12zM744 1159l2 2l2 -1zM384 1039q-23 17 -42 35l11 4l74 -25zM459 1042l12 -4
q-12 -20 -16 -43q-26 15 -49 29zM351 1099l-52 17q-6 7 -11 12l61 21l77 -25zM458 1113l66 -22q-9 -5 -17 -11l-48 -17l-75 25zM274 1144q-17 20 -32 40h1l76 -24zM349 1293l23 -8l14 -18q5 -5 9 -10l-45 -15l-76 25zM244 1277l-74 25q0 7 15 7q40 -2 121 -1l13 -5z
M409 1241q12 -14 23 -26l-49 16zM352 1171l-76 25l75 24l76 -24zM462 951q-70 -32 -80 -40t-3 -16q9 -12 97 38q-8 7 -14 18zM455 968q-97 0 -99 -11q-2 -10 11 -12q12 -2 94 8q-4 9 -6 15zM567 1350q-3 77 1 123q5 49 16 69l-60 75l-14 -12l38 -51l-86 24l-7 -16l87 -26
l-68 -22l6 -17l65 20q-13 -91 -10 -167h32zM805 1350q-3 75 2 123q4 49 15 69l-59 75l-15 -12l38 -51l-86 24l-6 -16l86 -26l-68 -22l6 -17l66 20q-14 -93 -10 -167h31zM711 911l70 23l76 -25q42 -13 69 -17q57 -9 33 38q-17 33 -51 58q13 4 24 10q144 -83 230 -137
q86 -56 94.5 -44t-56.5 54q-61 39 -232 146q1 0 2 1l37 -18q115 -59 175 -83.5t68.5 -11.5t-80.5 52q-79 35 -169 81q18 13 36 28q81 -46 217 -79q15 -4 17.5 4.5t-21.5 15.5q-120 32 -193 77q113 104 166 228q2 10 -16 10q-65 -2 -185 -2q-28 0 -124 -1q-1 31 -44 31h-439
q-51 0 -56 -21q-154 0 -214 2q-18 0 -15 -10q53 -134 170 -245q65 -63 154 -102q0 -2 1 -6q2 -6 6 -15l1 -2q6 -11 14 -18q4 -4 9 -7l10 -6q16 -9 36 -16q31 -10 61 -10q40 0 87 20q10 -10 32 -3zM855 1294q-68 -56 -105.5 -100t-39.5 -47q-62 44 -96 56.5t-36.5 6.5
t48.5 -33t94 -61q27 -21 20 -76q-8 -53 -44 -88q-46 -43 -103 -40q-50 3 -81 19q-41 22 -39 52q3 42 35 73q38 36 93 30q16 -2 30.5 -11t17 -1t-73 47.5t-175.5 157.5q-43 55 14 53h414q73 0 27 -38z" />
</svg>
