<?xml version="1.0" standalone="no"?>
<!DOCTYPE svg PUBLIC "-//W3C//DTD SVG 1.1//EN" "http://www.w3.org/Graphics/SVG/1.1/DTD/svg11.dtd" >
<svg xmlns="http://www.w3.org/2000/svg" xmlns:xlink="http://www.w3.org/1999/xlink" version="1.1" viewBox="0 -49 1361 1814">
   <path fill="#292929" d="M131 1765q-53 0 -92 -39t-39 -92v-1552q0 -54 39 -92.5t92 -38.5h1098q54 0 93 38.5t39 92.5v1552q0 53 -39 92t-93 39h-1098z" />
   <path fill="#99C794"
d="M602 810q-24 0 -41.5 -14t-17.5 -37q0 -18 10 -28.5t24 -19.5l9 -9q8 -7 14 -15t6 -18v-107q0 -8 -6.5 -16.5t-15.5 -18.5q-12 -13 -23 -28.5t-11 -33.5t10.5 -33t23.5 -28q9 -10 15.5 -18.5t6.5 -17.5v-108q0 -11 -7 -19.5t-16 -16.5l-6 -6q-14 -8 -24 -19t-10 -29
q0 -27 20 -39t32 -12q9 0 16 -4t13 -9q9 -7 21.5 -13t34.5 -6t35 6t21 13q7 5 14 9t16 4q12 0 32 12t20 39q0 18 -10 29t-23 19q-3 2 -5 3q-10 9 -17.5 18.5t-7.5 20.5v108q0 9 6.5 17.5t15.5 18.5q13 13 23.5 28t10.5 33t-11 33.5t-23 28.5q-9 10 -15.5 18.5t-6.5 16.5v107
q0 11 6.5 19t15.5 16q4 4 8 7q13 9 23 19.5t10 28.5q0 23 -17.5 37t-41.5 14q-13 0 -21.5 -3t-15.5 -7t-16.5 -7t-25.5 -3t-25.5 3t-16.5 8q-7 4 -15 6.5t-21 2.5zM647 398h67v-185q10 -7 16.5 -18t6.5 -23q0 -19 -16.5 -34t-40.5 -15q-23 0 -39.5 15t-16.5 34q0 24 23 41
v185zM628 454h104q10 0 16.5 -5.5t6.5 -12.5q0 -6 -6.5 -11t-16.5 -5h-104q-10 0 -16 5t-6 11q0 17 22 18zM628 510h104q10 0 16.5 -5.5t6.5 -11.5q0 -14 -23 -16h-104q-19 0 -22 16q0 16 22 17zM680 761q35 0 34 -30v-198h-67v198q0 27 33 30zM252 1610q-23 0 -40.5 -14
t-17.5 -38q0 -17 9.5 -28t24.5 -19l8 -8q8 -8 14.5 -16t6.5 -19v-106q0 -8 -6.5 -16.5t-16.5 -18.5q-12 -13 -23 -28.5t-11 -33.5t11 -33t23 -28q9 -10 16 -19t7 -17v-108q0 -11 -7.5 -20t-16.5 -17q-2 -3 -5 -6q-15 -8 -24.5 -19t-9.5 -28q0 -18 9.5 -29.5t22 -17
t20.5 -5.5q9 0 16 -3.5t14 -8.5q8 -7 20.5 -13.5t34.5 -6.5t34.5 6.5t21.5 13.5q7 5 13.5 8.5t16.5 3.5q8 0 20 5.5t22 17t10 29.5q0 17 -10 28t-24 19l-6 6q-9 8 -16 17t-7 20v108q0 8 6.5 17t16.5 19q12 13 22.5 28t10.5 33t-10.5 33.5t-23.5 28.5q-9 10 -15.5 18.5
t-6.5 16.5v106q0 11 6 19t15 16l8 8q14 8 24 19t10 28q0 24 -17.5 38t-40.5 14q-14 0 -22 -3t-16 -7q-7 -4 -16.5 -7.5t-25.5 -3.5q-15 0 -24.5 3.5t-17.5 7.5q-7 4 -15.5 7t-21.5 3zM951 1610q-24 0 -41.5 -14t-17.5 -38q0 -17 10 -28t24 -19l8 -8q9 -8 15 -16t6 -19v-106
q0 -8 -6.5 -16.5t-15.5 -18.5q-13 -13 -23.5 -28.5t-10.5 -33.5t10.5 -33t22.5 -28q10 -10 16.5 -19t6.5 -17v-108q0 -11 -7 -20t-16 -17l-6 -6q-14 -8 -24 -19t-10 -28q0 -18 10 -29.5t22 -17t20 -5.5q10 0 16.5 -3.5t13.5 -8.5q9 -7 21.5 -13.5t34.5 -6.5t34.5 6.5
t20.5 13.5q7 5 14 8.5t17 3.5q7 0 19.5 5.5t22 17t9.5 29.5q0 17 -10 28t-24 19q-3 4 -7 7q-9 8 -15.5 16.5t-6.5 19.5v108q0 8 6.5 17t16.5 19q12 13 23 28t11 33t-11 33.5t-24 28.5q-9 10 -15.5 18.5t-6.5 16.5v106q0 11 6 18.5t14 15.5q5 4 9 9q14 8 24 19t10 28
q0 24 -17.5 38t-41.5 14q-13 0 -21 -3t-15 -7t-16.5 -7.5t-25.5 -3.5t-25.5 3.5t-16.5 7.5t-15.5 7t-21.5 3zM297 1198h68v-185q22 -18 22 -41q0 -20 -16 -34.5t-40 -14.5t-40 14.5t-16 34.5q0 23 22 41v185zM996 1198h68v-185q22 -18 22 -41q0 -20 -16.5 -34.5t-39.5 -14.5
q-24 0 -40 14.5t-16 34.5q0 23 22 41v185zM280 1254h103q10 0 16.5 -5.5t6.5 -12.5q0 -6 -6.5 -11t-16.5 -5h-103q-10 0 -16.5 5t-6.5 11q0 17 23 18zM978 1254h104q9 0 15.5 -5.5t6.5 -12.5q0 -6 -6.5 -11t-15.5 -5h-104q-11 0 -17 5t-6 11q0 17 23 18zM280 1310h103
q10 0 16.5 -5.5t6.5 -12.5q0 -6 -6.5 -10.5t-16.5 -4.5h-103q-10 0 -16.5 4.5t-6.5 10.5q0 17 23 18zM978 1310h104q9 0 15.5 -5.5t6.5 -12.5q0 -13 -22 -15h-104q-21 0 -23 15q0 17 23 18zM331 1561q33 0 34 -30v-198h-68v198q0 26 34 30zM1030 1561q33 0 34 -30v-198h-68
v198q0 26 34 30z" />
</svg>
