<?xml version="1.0" standalone="no"?>
<!DOCTYPE svg PUBLIC "-//W3C//DTD SVG 1.1//EN" "http://www.w3.org/Graphics/SVG/1.1/DTD/svg11.dtd" >
<svg xmlns="http://www.w3.org/2000/svg" xmlns:xlink="http://www.w3.org/1999/xlink" version="1.1" viewBox="0 -49 1361 1814">
   <path fill="#292929" d="M131 1765
q-53 0 -92 -39t-39 -92v-1552q0 -54 39 -92.5t92 -38.5h1098q54 0 93 38.5t39 92.5v1552q0 53 -39 92t-93 39h-1098z" />
   <path fill="#99C794"
d="M252 810q-23 0 -40.5 -14t-17.5 -37q0 -18 9.5 -28.5t24.5 -19.5l8 -8q8 -8 14.5 -16t6.5 -18v-107q0 -8 -6.5 -16.5t-16.5 -18.5q-12 -13 -23 -28.5t-11 -33.5t11 -33t23 -28q9 -10 16 -18.5t7 -17.5v-108q0 -11 -7.5 -20t-16.5 -17q-2 -3 -5 -5q-15 -8 -24.5 -19
t-9.5 -29t9.5 -29.5t22 -16.5t20.5 -5q9 0 16 -4t14 -9q8 -7 20.5 -13t34.5 -6t34.5 6t21.5 13q7 5 13.5 9t16.5 4q8 0 20 5t22 16.5t10 29.5t-10 29t-24 19q-3 2 -6 5q-9 8 -16 17t-7 20v108q0 9 6.5 17.5t16.5 18.5q12 13 22.5 28t10.5 33t-10.5 33.5t-23.5 28.5
q-9 10 -15.5 18.5t-6.5 16.5v45l63 -78q6 -7 7.5 -15t1.5 -17q0 -10 2 -21t11 -22q7 -8 16.5 -11.5t19.5 -4.5q9 -2 18 -5t14 -11l36 -37q0 -12 -7 -20t-17 -15q-11 -8 -19.5 -17.5t-8.5 -24.5q0 -24 18.5 -40t40.5 -16q12 0 20 3.5t15 8.5t16.5 9.5t26.5 4.5t26.5 -4.5
t16.5 -9.5t15 -8.5t21 -3.5q22 0 40.5 16t18.5 40q0 15 -9 24.5t-19 17.5q-10 7 -17 15t-7 20l34 37q6 8 14.5 11t18.5 5q11 1 20 4.5t16 11.5q9 11 11 22.5t2 21.5q0 9 1.5 16.5t6.5 14.5l65 78v-45q0 -8 -6.5 -16.5t-15.5 -18.5q-13 -13 -23.5 -28.5t-10.5 -33.5t10.5 -33
t22.5 -28q10 -10 16.5 -18.5t6.5 -17.5v-108q0 -11 -7 -20t-16 -17q-3 -3 -6 -5q-14 -8 -24 -19t-10 -29t10 -29.5t22 -16.5t20 -5q10 0 16.5 -4t13.5 -9q9 -7 21.5 -13t34.5 -6t34.5 6t20.5 13q7 5 14 9t17 4q7 0 19.5 5t22 16.5t9.5 29.5t-10 29t-24 19q-3 3 -7 6
q-9 8 -15.5 16.5t-6.5 19.5v108q0 9 6.5 17.5t16.5 18.5q12 13 23 28t11 33t-11 33.5t-24 28.5q-9 10 -15.5 18.5t-6.5 16.5v107q0 10 6 18t14 15l9 9q14 9 24 19.5t10 28.5q0 23 -17.5 37t-41.5 14q-13 0 -21 -2.5t-15 -6.5q-7 -5 -16.5 -8t-25.5 -3t-25.5 3t-16.5 7
t-15.5 7t-21.5 3q-24 0 -41.5 -14t-17.5 -37q0 -8 2 -12t4 -7q1 -1 1 -2l-106 -123q-6 -8 -15 -11t-19 -5q-10 -1 -19.5 -4.5t-16.5 -11.5q-9 -11 -11.5 -22.5t-2.5 -22.5q1 -18 -8 -32l-21 -22l-22 22q-9 14 -7 32q0 11 -2.5 22t-11.5 23q-7 8 -16.5 11.5t-19.5 4.5
q-10 2 -18.5 5t-14.5 11l-106 123q3 5 4.5 8.5t2 6t0.5 6.5q0 23 -17.5 37t-40.5 14q-14 0 -22 -3t-16 -7q-7 -4 -16.5 -7t-25.5 -3q-15 0 -24.5 3t-17.5 7q-7 4 -15.5 7t-21.5 3zM297 398h68v-185q22 -17 22 -41q0 -19 -16 -34t-40 -15t-40 15t-16 34q0 24 22 41v185z
M996 398h68v-185q22 -17 22 -41q0 -19 -16.5 -34t-39.5 -15q-24 0 -40 15t-16 34q0 24 22 41v185zM606 504l74 -91l75 91l36 -31l-86 -103v-49q0 -8 -5.5 -15t-19.5 -7q-13 0 -18.5 7t-5.5 15v49l-86 103zM280 454h103q10 0 16.5 -5.5t6.5 -12.5q0 -6 -6.5 -11t-16.5 -5
h-103q-10 0 -16.5 5t-6.5 11q0 17 23 18zM978 454h104q9 0 15.5 -5.5t6.5 -12.5q0 -6 -6.5 -11t-15.5 -5h-104q-11 0 -17 5t-6 11q0 17 23 18zM280 510h103q10 0 16.5 -5.5t6.5 -11.5q0 -7 -6.5 -11.5t-16.5 -4.5h-103q-10 0 -16.5 4.5t-6.5 11.5q0 16 23 17zM978 510h104
q9 0 15.5 -5.5t6.5 -11.5q0 -14 -22 -16h-104q-21 0 -23 16q0 16 23 17zM592 557q6 0 10 -3.5t4 -11.5q0 -7 -8 -18l-46 -38q-12 -7 -18 -7q-7 0 -11.5 5.5t-4.5 10.5t3 9t8 8l45 39q8 6 18 6zM768 557q5 0 10 -1.5t9 -4.5l45 -39q5 -4 8 -8t3 -9t-4.5 -10.5t-12.5 -5.5
q-6 0 -17 7l-45 38q-9 11 -9 18q0 8 4 11.5t9 3.5zM331 761q33 0 34 -30v-198h-68v198q0 27 34 30zM437 706l120 -142l-39 -31l-107 129v7q0 11 8 20t18 17zM924 706q11 -8 19 -17t8 -20v-7l-108 -129l-39 31zM1030 761q33 0 34 -30v-198h-68v198q0 27 34 30zM252 1610
q-23 0 -40.5 -14t-17.5 -38q0 -17 9.5 -28t24.5 -19l8 -8q8 -8 14.5 -16t6.5 -19v-106q0 -8 -6.5 -16.5t-16.5 -18.5q-12 -13 -23 -28.5t-11 -33.5t11 -33t23 -28q9 -10 16 -19t7 -17v-108q0 -11 -7.5 -20t-16.5 -17q-2 -3 -5 -6q-15 -8 -24.5 -19t-9.5 -28q0 -18 9.5 -29.5
t22 -17t20.5 -5.5q9 0 16 -3.5t14 -8.5q8 -7 20.5 -13.5t34.5 -6.5t34.5 6.5t21.5 13.5q7 5 13.5 8.5t16.5 3.5q8 0 20 5.5t22 17t10 29.5q0 6 -4 13q-1 4 -3 8l106 123q6 8 14.5 10.5t18.5 4.5t19.5 5t16.5 12q9 11 11.5 22t2.5 21q0 9 1.5 17.5t7.5 15.5l18 21h4l21 -21
q5 -7 6.5 -15t0.5 -17q0 -11 2 -22t11 -22q7 -9 17 -12t20 -5t18.5 -4.5t14.5 -10.5l104 -121q-5 -13 -5 -23q0 -18 10 -29.5t22 -17t20 -5.5q10 0 16.5 -3.5t13.5 -8.5q9 -7 21.5 -13.5t34.5 -6.5t34.5 6.5t20.5 13.5q7 5 14 8.5t17 3.5q7 0 19.5 5.5t22 17t9.5 29.5
q0 17 -10 28t-24 19q-3 4 -7 7q-9 8 -15.5 16.5t-6.5 19.5v108q0 8 6.5 17t16.5 19q12 13 23 28t11 33t-11 33.5t-24 28.5q-9 10 -15.5 18.5t-6.5 16.5v106q0 11 6 18.5t14 15.5q5 4 9 9q14 8 24 19t10 28q0 24 -17.5 38t-41.5 14q-13 0 -21 -3t-15 -7t-16.5 -7.5
t-25.5 -3.5t-25.5 3.5t-16.5 7.5t-15.5 7t-21.5 3q-24 0 -41.5 -14t-17.5 -38q0 -17 10 -28t24 -19l8 -8q9 -8 15 -16t6 -19v-106q0 -8 -6.5 -16.5t-15.5 -18.5q-13 -13 -23.5 -28.5t-10.5 -33.5t10.5 -33t22.5 -28q10 -10 16.5 -19t6.5 -17v-47l-63 79q-6 6 -7.5 14
t-2.5 18q0 10 -2 21t-11 22q-7 8 -16.5 11t-19.5 5q-9 2 -17.5 4.5t-13.5 9.5l-36 39q0 11 7 19t17 16q10 7 19 17t9 25q0 23 -18.5 39.5t-40.5 16.5q-13 0 -21 -4t-15 -9t-16.5 -9.5t-26.5 -4.5t-26.5 4.5t-16.5 9.5t-15 9t-20 4q-22 0 -40.5 -16.5t-18.5 -39.5
q0 -15 8.5 -25t19.5 -17q10 -8 17 -16t7 -19l-34 -39q-6 -7 -14.5 -9.5t-18.5 -4.5t-20 -5t-17 -11q-9 -12 -11 -23t-2 -22q0 -9 -1 -16.5t-6 -13.5l-65 -79v47q0 8 6.5 17t16.5 19q12 13 22.5 28t10.5 33t-10.5 33.5t-23.5 28.5q-9 10 -15.5 18.5t-6.5 16.5v106q0 11 6 19
t15 16l8 8q14 8 24 19t10 28q0 24 -17.5 38t-40.5 14q-14 0 -22 -3t-16 -7q-7 -4 -16.5 -7.5t-25.5 -3.5q-15 0 -24.5 3.5t-17.5 7.5q-7 4 -15.5 7t-21.5 3zM297 1198h68v-185q22 -18 22 -41q0 -20 -16 -34.5t-40 -14.5t-40 14.5t-16 34.5q0 23 22 41v185zM996 1198h68v-185
q22 -18 22 -41q0 -20 -16.5 -34.5t-39.5 -14.5q-24 0 -40 14.5t-16 34.5q0 23 22 41v185zM518 1195l39 -31l-120 -142q-10 8 -18 17.5t-8 20.5v7zM843 1195l108 -128v-7q0 -11 -8 -20.5t-19 -17.5l-120 142zM534 1249q6 0 18 -6l46 -39q8 -11 8 -17q0 -9 -4 -13t-10 -4
q-10 0 -18 8l-45 37q-11 9 -11 19q0 5 4.5 10t11.5 5zM826 1249q8 0 12.5 -5t4.5 -10q0 -10 -11 -19l-45 -37q-4 -4 -9 -6t-10 -2t-9 4t-4 13q0 6 9 17l45 39q11 6 17 6zM280 1254h103q10 0 16.5 -5.5t6.5 -12.5q0 -6 -6.5 -11t-16.5 -5h-103q-10 0 -16.5 5t-6.5 11
q0 17 23 18zM978 1254h104q9 0 15.5 -5.5t6.5 -12.5q0 -6 -6.5 -11t-15.5 -5h-104q-11 0 -17 5t-6 11q0 17 23 18zM680 1430q14 0 19.5 -7t5.5 -16v-50l86 -101l-36 -31l-75 89l-74 -89l-36 31l86 101v50q0 9 5.5 16t18.5 7zM280 1310h103q10 0 16.5 -5.5t6.5 -12.5
q0 -6 -6.5 -10.5t-16.5 -4.5h-103q-10 0 -16.5 4.5t-6.5 10.5q0 17 23 18zM978 1310h104q9 0 15.5 -5.5t6.5 -12.5q0 -13 -22 -15h-104q-21 0 -23 15q0 17 23 18zM331 1561q33 0 34 -30v-198h-68v198q0 26 34 30zM1030 1561q33 0 34 -30v-198h-68v198q0 26 34 30z" />
</svg>
