<?xml version="1.0" standalone="no"?>
<!DOCTYPE svg PUBLIC "-//W3C//DTD SVG 1.1//EN" "http://www.w3.org/Graphics/SVG/1.1/DTD/svg11.dtd" >
<svg xmlns="http://www.w3.org/2000/svg" xmlns:xlink="http://www.w3.org/1999/xlink" version="1.1" viewBox="0 -49 1361 1814">
   <path fill="#292929" d="M131 1765q-53 0 -92 -39t-39 -92v-1552
q0 -54 39 -92.5t92 -38.5h1098q54 0 93 38.5t39 92.5v1552q0 53 -39 92t-93 39h-1098z" />
   <path fill="#F5F5F5" d="M1151 740q-12 0 -26 -7.5t-30 -18.5l-12 -8q-1 0 -2 -1q-32 -22 -75.5 -43.5t-101.5 -21.5q-26 0 -39 5q-10 2 -19 2q-5 0 -11 -2t-6 -8t1 -11q2 -5 3 -13t1 -22q-77 30 -130 46q-66 22 -99 39t-35 45q-2 4 -6 4.5t-11 0.5q-45 0 -70 -28.5t-25 -68.5q0 -25 12 -44
q10 -20 14 -48q0 -10 -3 -17.5t-16 -13.5q-67 67 -154.5 119t-129.5 52q-7 0 -15.5 -2t-12.5 -8q65 -32 141.5 -89.5t133 -124t56.5 -121.5q0 -15 -6 -26t-14 -22q-6 -8 -11 -18q18 -22 22 -39q5 -16 19 -31q15 -16 33 -24q12 -7 23 -16q14 12 27 20q23 12 44 41
q49 0 123.5 -29.5t135.5 -59.5q4 -1 8 -3q12 -6 23 -11q41 -20 52 -20q9 0 38 1t62.5 6t58 15.5t24.5 28.5q0 62 -48 67q-30 0 -64 -13q-5 -2 -11 -3q-28 -10 -55 -10q-26 0 -64 15t-83 36q-38 19 -62.5 49.5t-32.5 82.5q55 -18 80.5 -30t33.5 -25.5t10 -34.5q16 1 36 10.5
t30 30.5q4 6 4.5 11t0.5 9q0 12 -4 25q-6 13 -6 31q0 24 1.5 37t4.5 34q2 13 4 34q59 26 118 49q3 2 7 3q44 17 80.5 34.5t59 38t22.5 49.5q0 25 -16.5 45t-40.5 20zM604 411q17 0 29 -5t25 -12q4 -12 10 -26q10 -22 19 -45.5t9 -38.5q0 -24 -27.5 -34t-47.5 -10
q-1 10 -2 32q-1 33 -6 69t-24 48q1 9 4 15.5t11 6.5zM658 589q25 0 77 -19t99 -43q-3 -18 -3 -33q0 -17 2 -33q1 -13 1 -21q0 -23 -5 -36t-20 -13q-14 0 -43 22t-65 37q-43 81 -43 139zM575 589q18 -20 30.5 -56t18.5 -66q-4 0 -9 2q-8 1 -14 1q-21 0 -40.5 -5t-25.5 -13
q-2 11 -2 24q0 32 10 59q7 20 7 35q0 4 -1 6q-1 3 -1 8q15 10 27 5z" />
   <path fill="#EC5F67"
d="M476 1075q-40 0 -104.5 -12t-95.5 -44q4 -2 8 -5q10 -8 26 -16t35 -8q39 0 74 12q5 2 10 3q36 11 82 11q48 0 68 -9.5t20 -46.5q0 -7 -4.5 -9t-10.5 -4q-5 -1 -10 -3.5t-9 -7.5q0 -9 3.5 -14.5t9.5 -11.5
q8 -7 18 -23q9 -13 17 -26q11 -19 21.5 -33t25.5 -14q8 0 13 7.5t5 17.5q0 25 -5 47t-12 44q-6 20 -11 42q4 8 8 10.5t10 2.5q10 0 28 -29t32.5 -63.5t14.5 -51.5q0 -11 -5.5 -17.5t-13.5 -12.5q-11 -7 -20 -21q6 -15 31 -37t58 -34q22 8 36.5 35t14.5 60q0 18 -6 33t-14 28
q-20 24 -25 66q29 -3 56 -10q29 -6 64.5 -10.5t83.5 -4.5q36 0 55 2.5t27.5 6.5t12.5 9q-7 16 -19.5 29t-37.5 24q-38 -2 -137 -2q-55 0 -115 14t-117 31l-12 4q-10 3 -20 5q-46 15 -89 25.5t-75 10.5zM893 1640q-25 0 -75.5 -17.5t-99 -39t-70.5 -34.5q-18 6 -28 16
q-10 11 -21 11q-19 0 -33.5 -4t-27.5 -9q-11 -4 -22 -7q0 6 -1 14q0 19 -4 37t-20 18q-11 0 -21.5 -17.5t-19 -41t-15.5 -43.5q-4 -15 -7 -23h-32q-44 0 -87 -15.5t-43 -43.5q0 -3 1 -7q2 -5 2 -12q32 0 60 5h4q6 1 13 2q24 5 50 5h10q-4 -36 -12 -68q-2 -8 -4 -17
q-11 -49 -11 -72q0 -4 2 -7t8 -9q32 6 44.5 28.5t18.5 53.5q0 2 1 3v3q9 41 31 81q27 0 48 -5.5t41 -12.5q3 -1 7 -2l4 -74q-17 0 -35 10q-3 1 -6 3q-5 7 -10 15q-8 18 -24 36q-14 -9 -26.5 -52t-12.5 -97q0 -27 1.5 -67t9.5 -74q129 -23 214 -46l14 -4q81 -26 122 -26
q26 0 40 8t14 28q0 12 -8 34q-9 25 -18 66.5t-9 104.5q0 17 1.5 42.5t3.5 43.5q26 2 72 10.5t93.5 26.5t81.5 47t34 72q0 45 -34 67.5t-83 22.5q-15 0 -34 8q-8 3 -15 5q-20 8 -40 14t-37 6zM640 1177q38 -6 63 -12q22 -5 45 -9q0 -17 1 -30t1 -29q-35 7 -57 15
q-21 8 -45 12q-2 16 -5 26q-3 12 -3 27zM543 1195q14 0 29 -4q8 -2 17 -4q0 -26 5 -51l-61 10v46zM640 1277q46 -4 90 -20q6 -1 13 -3v-28t2 -31q-40 12 -105 26v56zM535 1295q17 0 44 -4q2 -1 5 -1v-59q-22 4 -34 5q-9 1 -13 2t-5 3t0 7q1 4 1 11q0 9 1 18t1 18zM645 1392
q53 -10 100 -28q0 -21 -0.5 -35.5t-1.5 -31.5q-19 6 -44 12q-22 5 -54 13v70zM801 1574q17 0 29 -7t24 -16q14 -11 34 -21q21 -7 48 -9q20 -2 37.5 -6t29 -14t11.5 -32q0 -15 -28 -28.5t-63 -22.5t-60 -11q0 7 2 19q5 18 5 35q0 8 -2.5 16t-4.5 13q-19 12 -46.5 22t-48.5 10
q-4 -6 -8 -16t-7 -16q-22 6 -36 17q-12 9 -32 18q15 17 54 33t62 16zM660 1479q19 0 41 -11q19 -8 49 -17q-2 -9 -3 -20t1 -21q-46 8 -91 25q-5 2 -9 4q0 15 3 27.5t9 12.5zM511 1525q48 -11 79 -26l4 -2q-14 -22 -14 -41l-86 28z" />
</svg>
