<?xml version="1.0" standalone="no"?>
<!DOCTYPE svg PUBLIC "-//W3C//DTD SVG 1.1//EN" "http://www.w3.org/Graphics/SVG/1.1/DTD/svg11.dtd" >
<svg xmlns="http://www.w3.org/2000/svg" xmlns:xlink="http://www.w3.org/1999/xlink" version="1.1" viewBox="0 -49 1361 1814">
   <path fill="#292929" d="M131 1765q-53 0 -92 -39t-39 -92v-1552q0 -54 39 -92.5t92 -38.5h1098q54 0 93 38.5t39 92.5v1552q0 53 -39 92t-93 39h-1098z"/>
   <path fill="#F5F5F5" d="M486 309q-23 0 -50.5 -8.5t-47 -21t-19.5 -24.5q0 -5 16 -15t37 -19t33 -9q15 0 25 3q9 2 29 2q58 0 163.5 -28t187.5 -54q66 -20 74 -20q9 0 16.5 5.5t7.5 14.5q0 18 -26.5 47t-53.5 45q-113 21 -210 47q-56 15 -102.5 25t-79.5 10zM470 484q-21 0 -53.5 -4.5t-58 -13.5
t-25.5 -21q0 -8 21.5 -20t45 -21.5t30.5 -9.5h10q5 1 13 1.5t23 0.5q36 0 98.5 -17t129.5 -39q23 -7 45 -14q42 -14 75.5 -23t53.5 -9q7 0 13.5 6.5t6.5 14.5q0 22 -15.5 41t-29.5 30q-78 28 -203.5 63t-179.5 35zM1105 682q-30 0 -107 -51q-5 -2 -9 -5q-74 -45 -131 -61
q-29 -5 -65.5 -6.5t-63.5 -1.5q-32 0 -67 10.5t-77 26.5q-4 1 -7 2q-2 1 -4 1q-59 22 -129 41t-151 19q-15 0 -38 -2t-41 -8.5t-21 -17.5q0 -7 20.5 -16.5t49 -18.5t54.5 -13l53 -9q6 0 12 -1q63 -2 203 -36l197 -56q41 -14 64.5 -20.5t42.5 -6.5q20 0 31.5 4.5t31.5 14.5
q12 7 30 15q36 16 67 27q12 4 23 8q42 13 67.5 27.5t25.5 47.5q0 11 -7.5 32t-21.5 37.5t-32 16.5z" />
   <path fill="#EC5F67"
d="M476 1075q-40 0 -104.5 -12t-95.5 -44q4 -2 8 -5q10 -8 26 -16t35 -8q39 0 74 12q5 2 10 3q36 11 82 11q48 0 68 -9.5t20 -46.5q0 -7 -4.5 -9t-10.5 -4q-5 -1 -10 -3.5
t-9 -7.5q0 -9 3.5 -14.5t9.5 -11.5q8 -7 18 -23q9 -13 17 -26q11 -19 21.5 -33t25.5 -14q8 0 13 7.5t5 17.5q0 25 -5 47t-12 44q-6 20 -11 42q4 8 8 10.5t10 2.5q10 0 28 -29t32.5 -63.5t14.5 -51.5q0 -11 -5.5 -17.5t-13.5 -12.5q-11 -7 -20 -21q6 -15 31 -37t58 -34
q22 8 36.5 35t14.5 60q0 18 -6 33t-14 28q-20 24 -25 66q29 -3 56 -10q29 -6 64.5 -10.5t83.5 -4.5q36 0 55 2.5t27.5 6.5t12.5 9q-7 16 -19.5 29t-37.5 24q-38 -2 -137 -2q-55 0 -115 14t-117 31l-12 4q-10 3 -20 5q-46 15 -89 25.5t-75 10.5zM893 1640q-25 0 -75.5 -17.5
t-99 -39t-70.5 -34.5q-18 6 -28 16q-10 11 -21 11q-19 0 -33.5 -4t-27.5 -9q-11 -4 -22 -7q0 6 -1 14q0 19 -4 37t-20 18q-11 0 -21.5 -17.5t-19 -41t-15.5 -43.5q-4 -15 -7 -23h-32q-44 0 -87 -15.5t-43 -43.5q0 -3 1 -7q2 -5 2 -12q32 0 60 5h4q6 1 13 2q24 5 50 5h10
q-4 -36 -12 -68q-2 -8 -4 -17q-11 -49 -11 -72q0 -4 2 -7t8 -9q32 6 44.5 28.5t18.5 53.5q0 2 1 3v3q9 41 31 81q27 0 48 -5.5t41 -12.5q3 -1 7 -2l4 -74q-17 0 -35 10q-3 1 -6 3q-5 7 -10 15q-8 18 -24 36q-14 -9 -26.5 -52t-12.5 -97q0 -27 1.5 -67t9.5 -74
q129 -23 214 -46l14 -4q81 -26 122 -26q26 0 40 8t14 28q0 12 -8 34q-9 25 -18 66.5t-9 104.5q0 17 1.5 42.5t3.5 43.5q26 2 72 10.5t93.5 26.5t81.5 47t34 72q0 45 -34 67.5t-83 22.5q-15 0 -34 8q-8 3 -15 5q-20 8 -40 14t-37 6zM640 1177q38 -6 63 -12q22 -5 45 -9
q0 -17 1 -30t1 -29q-35 7 -57 15q-21 8 -45 12q-2 16 -5 26q-3 12 -3 27zM543 1195q14 0 29 -4q8 -2 17 -4q0 -26 5 -51l-61 10v46zM640 1277q46 -4 90 -20q6 -1 13 -3v-28t2 -31q-40 12 -105 26v56zM535 1295q17 0 44 -4q2 -1 5 -1v-59q-22 4 -34 5q-9 1 -13 2t-5 3t0 7
q1 4 1 11q0 9 1 18t1 18zM645 1392q53 -10 100 -28q0 -21 -0.5 -35.5t-1.5 -31.5q-19 6 -44 12q-22 5 -54 13v70zM801 1574q17 0 29 -7t24 -16q14 -11 34 -21q21 -7 48 -9q20 -2 37.5 -6t29 -14t11.5 -32q0 -15 -28 -28.5t-63 -22.5t-60 -11q0 7 2 19q5 18 5 35q0 8 -2.5 16
t-4.5 13q-19 12 -46.5 22t-48.5 10q-4 -6 -8 -16t-7 -16q-22 6 -36 17q-12 9 -32 18q15 17 54 33t62 16zM660 1479q19 0 41 -11q19 -8 49 -17q-2 -9 -3 -20t1 -21q-46 8 -91 25q-5 2 -9 4q0 15 3 27.5t9 12.5zM511 1525q48 -11 79 -26l4 -2q-14 -22 -14 -41l-86 28z" />
</svg>
