<?xml version="1.0" standalone="no"?>
<!DOCTYPE svg PUBLIC "-//W3C//DTD SVG 1.1//EN" "http://www.w3.org/Graphics/SVG/1.1/DTD/svg11.dtd" >
<svg xmlns="http://www.w3.org/2000/svg" xmlns:xlink="http://www.w3.org/1999/xlink" version="1.1" viewBox="0 -49 1361 1814">
   <path fill="#292929" d="M131 1765q-53 0 -92 -39t-39 -92v-1552q0 -54 39 -92.5t92 -38.5h1098q54 0 93 38.5t39 92.5v1552q0 53 -39 92t-93 39h-1098z" />
   <path fill="#6699CC"
d="M680 1411q-152 0 -277 -74.5t-199.5 -199.5t-74.5 -277t74.5 -277t199.5 -199.5t277 -74.5t277.5 74.5t200 199.5t74.5 277t-74.5 277t-200 199.5t-277.5 74.5zM680 1364q139 0 253.5 -68.5t183 -182.5t68.5 -253t-68.5 -253.5t-183 -183t-253.5 -68.5t-253 68.5
t-182.5 183t-68.5 253.5t68.5 253t182.5 182.5t253 68.5zM680 1341q-133 0 -241.5 -65t-173.5 -174t-65 -242t65 -242.5t173.5 -174t241.5 -64.5t242.5 64.5t174 174t64.5 242.5t-64.5 242t-174 174t-242.5 65zM549 516q49 -21 103 -24l17 -16v-54l-73 35l21 -64l-63 15
l-25 61zM812 516l19 -47l-23 -61l-64 -15l21 64l-72 -35v54l16 16q53 3 103 24zM405 570l43 -71l16 60q32 -20 42 -25q5 -2 7.5 -4t5 -5t6.5 -9l-21 -49l-49 -20q-46 26 -85 62l-5 21zM956 570l40 -40l-7 -25q-39 -33 -82 -58l-50 20l-21 49l7 12q26 13 54 31l16 -60z
M680 1218q99 0 180.5 -48.5t130 -129.5t48.5 -180t-48.5 -180.5t-130 -130t-180.5 -48.5t-180 48.5t-129.5 130t-48.5 180.5t48.5 180t129.5 129.5t180 48.5zM680 1195q-139 0 -236 -97.5t-97 -237.5t97 -237.5t236 -97.5q140 0 237.5 97.5t97.5 237.5t-97.5 237.5
t-237.5 97.5zM628 723q2 0 3 -1q8 -3 17 -3l-20 -88l13 -2l16 87q8 -2 18 -2v-142l-61 -40l-40 59zM732 723l55 -132l-40 -59l-62 40v142q12 0 19 2l16 -87l12 2l-19 88q9 0 15 3q2 0 4 1zM336 705l13 -8q13 -26 30 -54l-59 -16l70 -43l-39 -40l-26 7q-32 40 -57 82l19 50z
M1024 705l49 -22l20 -50q-26 -45 -61 -85l-22 -4l-40 40l71 43l-59 16q20 33 24 42q3 5 4.5 8t4.5 5.5t9 6.5zM581 752q8 -4 15 -10l-49 -75l9 -7l49 77q7 -6 14 -9l-52 -133l-72 -13l-15 71zM779 752l101 -99l-14 -71l-72 13l-52 133q7 3 14 9l49 -77l10 7l-50 75
q7 6 14 10zM549 799q3 -8 9 -15l-78 -49l7 -10l76 50q6 -7 9 -14l-99 -101l-70 14l14 72zM812 799l133 -53l13 -72l-70 -14l-99 101q3 7 9 14l75 -50l7 10l-77 49q6 7 9 15zM242 848h55l16 -17q3 -53 23 -103l-47 -19l-61 23l-14 64l64 -21zM1064 848h54l-34 -73l63 21
l-14 -64l-62 -23l-47 19q21 50 24 103zM680 993q55 0 95 -39.5t40 -93.5q0 -55 -40 -95t-95 -40q-54 0 -93.5 40t-39.5 95q0 54 39.5 93.5t93.5 39.5zM671 829l-38 -54l2 -19q21 -10 45 -10q26 0 45 10l2 19l-37 54q-2 -2 -5 -2h-5h-4.5t-4.5 2zM394 855h140q0 -5 0.5 -10.5
t1.5 -8.5l-86 -16l2 -12l87 19q0 -7 3 -13q1 -2 2 -6l-132 -54l-59 39zM826 855h142l40 -62l-59 -39l-132 54q1 2 1 4q3 6 3 15l88 -19l2 12l-87 16q1 3 1.5 8.5t0.5 10.5zM586 881l-19 -10v-11q0 -43 31 -74l16 3l41 49q-7 12 -7 22zM774 881l-61 -21q0 -10 -7 -22l41 -49
l16 -3q31 31 31 74v11zM680 871q-10 0 -11 -11q0 -10 11 -12q12 0 13 12q0 10 -13 11zM412 966l132 -54l-2 -6q-3 -5 -3 -14l-87 20l-2 -12l86 -17q-2 -8 -2 -18h-140l-41 61zM949 966l59 -40l-40 -61h-142q0 10 -2 18l87 17l-2 12l-88 -20q0 5 -0.5 8.5t-2.5 7.5q0 2 -1 4z
M289 1011l47 -20q-20 -49 -23 -103l-16 -17h-55l36 73l-64 -21l14 63zM1071 1011l62 -25l14 -63l-63 21l34 -73h-54l-16 17q-3 54 -24 103zM657 970q-49 -13 -74 -54l11 -16l61 -19q1 2 4.5 4.5t9.5 4.5v67zM704 970l-11 -13v-67q5 -2 8.5 -4.5t4.5 -4.5l61 19l10 16
q-24 41 -73 54zM473 1060l99 -101q-3 -7 -9 -15l-76 49l-7 -9l78 -49q-6 -7 -9 -14l-132 52l-14 73zM888 1060l70 -14l-13 -73l-133 -52q-3 7 -9 14l77 49l-7 9l-75 -49q-6 8 -9 15zM495 1137l72 -14l52 -132q-7 -3 -14 -9l-49 78l-9 -7l49 -76q-6 -5 -13 -8q-1 0 -2 -1
l-101 99zM866 1137l14 -70l-101 -99q-7 3 -14 9l50 76l-10 7l-49 -78q-7 6 -14 9l52 132zM614 1187l61 -40v-141q-10 0 -18 -2l-16 86l-13 -2l20 -87q-9 0 -17 -3q-1 -1 -3 -1l-54 131zM747 1187l40 -59l-55 -131q-2 1 -4 1q-6 3 -15 3l19 87l-12 2l-16 -86q-7 2 -19 2v141z
M351 1175l39 -40l-70 -42l59 -17q-21 -33 -25 -42q-2 -5 -4 -7.5t-5 -5t-9 -6.5l-49 21l-19 49q26 47 61 85zM1010 1175l27 -7q30 -39 56 -83l-20 -49l-49 -21l-12 7q-13 27 -30 54l59 17l-71 42zM455 1272l49 -19l21 -49l-7 -12q-7 -3 -13 -7q-20 -11 -41 -24l-16 59
l-43 -70l-40 39l7 26q39 32 83 57zM907 1272q46 -26 85 -61l4 -22l-40 -39l-43 70l-16 -59q-33 21 -42 25q-5 2 -7.5 4t-5 5t-6.5 9l21 49zM617 1326l-21 -64l73 36v-54l-17 -17q-54 -3 -103 -23l-20 47l25 61zM744 1326l64 -14l23 -61l-19 -47q-50 20 -103 23l-16 17v54
l72 -36z
" />
</svg>
