<?xml version="1.0" standalone="no"?>
<!DOCTYPE svg PUBLIC "-//W3C//DTD SVG 1.1//EN" "http://www.w3.org/Graphics/SVG/1.1/DTD/svg11.dtd" >
<svg xmlns="http://www.w3.org/2000/svg" xmlns:xlink="http://www.w3.org/1999/xlink" version="1.1" viewBox="0 -49 1361 1814">
   <path fill="#292929" d="M131 1765q-53 0 -92 -39t-39 -92v-1552q0 -54 39 -92.5t92 -38.5h1098q54 0 93 38.5t39 92.5v1552q0 53 -39 92t-93 39h-1098z" />
   <path fill="#6699CC"
d="M680 791q-127 0 -217.5 -90.5t-90.5 -217.5t90.5 -217.5t217.5 -90.5q128 0 218.5 90.5t90.5 217.5t-90.5 217.5t-218.5 90.5zM680 737q106 0 180.5 -74t74.5 -180t-74.5 -180t-180.5 -74t-180 74t-74 180t74 180t180 74zM680 709q-93 0 -159 -66t-66 -160q0 -93 66 -160
t159 -67q94 0 160.5 67t66.5 160q0 94 -66.5 160t-160.5 66zM612 433q8 -11 19 -18l-37 -67l14 -9l38 66l25 -7v-89l-45 -31q-57 14 -97 56l3 54zM749 433l79 -45l3 -54q-39 -42 -97 -56l-44 31v89l26 7l38 -66l13 9l-38 67q13 7 20 18zM525 563l78 -45l-7 -26h-76v-18h76
l7 -27l-78 -45l-50 24q-7 29 -7 57q0 27 7 56zM836 563l50 -24q7 -29 7 -56q0 -28 -7 -57l-50 -24l-78 45l7 27h76v18h-76l-7 26zM680 554q30 0 50.5 -20.5t20.5 -50.5t-20.5 -50t-50.5 -20q-29 0 -49.5 20t-20.5 50t20.5 50.5t49.5 20.5zM680 516q-14 0 -23 -9.5t-9 -23.5
t9 -24t23 -10q15 0 24 10t9 24t-9 23.5t-24 9.5zM626 687l45 -29v-90l-25 -7l-38 66l-14 -10l37 -66q-11 -8 -19 -19l-80 45l-3 54q40 43 97 56zM734 687q58 -13 97 -56l-3 -54l-79 -45q-7 11 -20 19l38 66l-13 10l-38 -66l-26 7v90zM680 1545q-127 0 -217.5 -90.5
t-90.5 -218.5q0 -127 90.5 -217.5t217.5 -90.5q128 0 218.5 90.5t90.5 217.5q0 128 -90.5 218.5t-218.5 90.5zM680 1491q106 0 180.5 -74.5t74.5 -180.5q0 -105 -74.5 -179.5t-180.5 -74.5t-180 74.5t-74 179.5q0 106 74 180.5t180 74.5zM680 1463q-93 0 -159 -66.5
t-66 -160.5q0 -93 66 -159t159 -66q94 0 160.5 66t66.5 159q0 94 -66.5 160.5t-160.5 66.5zM612 1187q8 -11 19 -19l-37 -65l14 -10l38 66l25 -7v-90l-45 -31q-57 15 -97 57l3 55zM749 1187l79 -44l3 -55q-39 -42 -97 -57l-44 31v90l26 7l38 -66l13 10l-38 65q13 8 20 19z
M525 1317l78 -45l-7 -26h-76v-19h76l7 -25l-78 -45l-50 23q-7 28 -7 56q0 29 7 58zM836 1317l50 -23q7 -29 7 -58q0 -28 -7 -56l-50 -23l-78 45l7 25h76v19h-76l-7 26zM680 1307q30 0 50.5 -20.5t20.5 -50.5q0 -29 -20.5 -49.5t-50.5 -20.5q-29 0 -49.5 20.5t-20.5 49.5
q0 30 20.5 50.5t49.5 20.5zM680 1269q-14 0 -23 -9t-9 -24q0 -14 9 -23t23 -9q15 0 24 9t9 23q0 29 -33 33zM626 1442l45 -31v-90l-25 -7l-38 66l-14 -9l37 -66q-11 -7 -19 -20l-80 45l-3 54q40 43 97 58zM734 1442q58 -15 97 -58l-3 -54l-79 -45q-7 13 -20 20l38 66l-13 9
l-38 -66l-26 7v90z" />
</svg>
