<?xml version="1.0" standalone="no"?>
<!DOCTYPE svg PUBLIC "-//W3C//DTD SVG 1.1//EN" "http://www.w3.org/Graphics/SVG/1.1/DTD/svg11.dtd" >
<svg xmlns="http://www.w3.org/2000/svg" xmlns:xlink="http://www.w3.org/1999/xlink" version="1.1" viewBox="0 -49 1361 1814">
   <path fill="#292929" d="M131 1765q-53 0 -92 -39t-39 -92v-1552q0 -54 39 -92.5t92 -38.5h1098q54 0 93 38.5t39 92.5v1552q0 53 -39 92t-93 39h-1098z" />
   <path fill="#EC5F67" d="M680 1024q-69 0 -116.5 -47.5t-47.5 -116.5
t47.5 -117.5t116.5 -48.5t117.5 48.5t48.5 117.5t-48.5 116.5t-117.5 47.5zM646 791h9q6 -2 12 -2h13h14t12 2h10l26 -37l-10 -26q-23 -9 -52 -9q-28 0 -52 9l-9 26zM560 885l45 -14l5 -9q0 -16 3 -25.5t7 -16.5t6 -14l-25 -38h-29q-33 39 -33 92v9zM801 885l20 -16v-9
q0 -53 -32 -92h-28l-27 38q3 7 6 13q4 7 7.5 17t3.5 26l5 9zM680 907q20 0 33.5 -14t13.5 -33q0 -20 -13.5 -33.5t-33.5 -13.5q-19 0 -33 13.5t-14 33.5q0 19 14 33t33 14zM680 883q-21 0 -23 -23q0 -22 23 -24q22 0 24 24q0 21 -24 23zM648 997l21 -15v-47l-7 -7
q-26 -7 -41 -28l-9 -6l-42 15l-10 26q29 46 88 62zM713 997q58 -16 88 -62l-9 -26l-43 -15q0 1 -1 1q-25 24 -55 40v47z" />
   <path fill="#6699CC"
d="M398 566q-97 0 -166 -69.5t-69 -166.5q0 -98 69 -167t166 -69t166 69t69 167q0 97 -69 166.5t-166 69.5zM963 566q-98 0 -167 -69.5t-69 -166.5q0 -98 69 -167t167 -69q97 0 166.5 69t69.5 167q0 97 -69.5 166.5t-166.5 69.5zM398 518q78 0 133 -55.5t55 -132.5
q0 -78 -55 -133.5t-133 -55.5t-133 55.5t-55 133.5q0 77 55 132.5t133 55.5zM963 518q78 0 133.5 -55.5t55.5 -132.5q0 -78 -55.5 -133.5t-133.5 -55.5t-133.5 55.5t-55.5 133.5q0 77 55.5 132.5t133.5 55.5zM398 494q-69 0 -117 -47.5t-48 -116.5t48 -117t117 -48
q68 0 116.5 48t48.5 117t-48.5 116.5t-116.5 47.5zM963 494q-69 0 -117 -47.5t-48 -116.5t48 -117t117 -48t116.5 48t47.5 117t-47.5 116.5t-116.5 47.5zM363 262h9q7 -2 12.5 -2h13.5h13t13 2h9l26 -38l-9 -26q-24 -10 -52 -10q-29 0 -51 10l-11 26zM927 262h11q6 -2 12 -2
h13h13t13 2h10l25 -38l-9 -26q-23 -10 -52 -10q-28 0 -52 10l-9 26zM278 355l44 -14l5 -9q0 -16 3 -25.5t7 -16.5t6 -14l-25 -38h-29q-32 38 -32 92v9zM518 355l21 -16v-9q0 -54 -33 -92h-28l-26 38l6 14q4 7 7 16.5t3 25.5l5 9zM843 355l45 -14l5 -9q0 -16 3 -25.5t7 -16.5
t6 -14l-27 -38h-27q-34 38 -34 92v9zM1084 355l20 -16v-9q0 -54 -33 -92h-28l-26 38q2 7 6 14t7.5 16.5t3.5 25.5l5 9zM398 377q19 0 33 -14t14 -33q0 -20 -14 -33.5t-33 -13.5q-20 0 -33.5 13.5t-13.5 33.5q0 19 13.5 33t33.5 14zM963 377q20 0 33.5 -14t13.5 -33
q0 -20 -13.5 -33.5t-33.5 -13.5q-19 0 -33 13.5t-14 33.5q0 19 14 33t33 14zM398 353q-22 0 -24 -23q0 -21 24 -24q11 0 17 6.5t6 17.5q0 21 -23 23zM963 353q-21 0 -23 -23q0 -11 6.5 -17.5t16.5 -6.5t17 6.5t7 17.5q0 10 -7 16.5t-17 6.5zM365 467l21 -15v-47l-7 -7
q-25 -7 -41 -28l-9 -5l-42 14l-9 26q29 47 87 62zM430 467q59 -15 88 -62l-9 -26l-43 -14q-25 23 -56 40v47zM930 467l21 -15v-47l-6 -7q-27 -7 -41 -28l-9 -5l-42 14l-10 26q30 47 87 62zM996 467q58 -15 88 -62l-11 -26l-41 -14q-3 3 -7 6q-22 20 -51 34v47zM680 1096
q-97 0 -166 -69.5t-69 -166.5t69 -166.5t166 -69.5t166.5 69.5t69.5 166.5t-69.5 166.5t-166.5 69.5zM680 1049q78 0 133.5 -55.5t55.5 -133.5t-55.5 -133.5t-133.5 -55.5t-132.5 55.5t-54.5 133.5t54.5 133.5t132.5 55.5zM398 1625q-97 0 -166 -69t-69 -166t69 -166.5t166 -69.5t166 69.5t69 166.5t-69 166t-166 69zM963 1625q-98 0 -167 -69t-69 -166t69 -166.5t167 -69.5
q97 0 166.5 69.5t69.5 166.5t-69.5 166t-166.5 69zM398 1578q78 0 133 -55t55 -133t-55 -133t-133 -55t-133 55t-55 133t55 133t133 55zM963 1578q78 0 133.5 -55t55.5 -133t-55.5 -133t-133.5 -55t-133.5 55t-55.5 133t55.5 133t133.5 55zM398 1555q-69 0 -117 -48.5
t-48 -116.5q0 -69 48 -117t117 -48q68 0 116.5 48t48.5 117q0 68 -48.5 116.5t-116.5 48.5zM963 1555q-69 0 -117 -48.5t-48 -116.5q0 -69 48 -117t117 -48t116.5 48t47.5 117q0 68 -47.5 116.5t-116.5 48.5zM363 1321h9q7 -2 12.5 -2h13.5h13t13 2h9l26 -38l-9 -25
q-24 -9 -52 -9q-29 0 -51 9l-11 25zM927 1321h11q6 -2 12 -2h13h13t13 2h10l25 -38l-9 -25q-23 -9 -52 -9q-28 0 -52 9l-9 25zM278 1415l44 -13l5 -10q0 -15 3 -24.5t7 -17.5q4 -7 6 -15l-25 -37h-29q-32 39 -32 92v9zM518 1415l21 -16v-9q0 -53 -33 -92h-28l-26 37
q3 8 6 15q4 8 7 17.5t3 24.5l5 10zM843 1415l45 -13l5 -10q0 -15 3 -24.5t7 -17.5q3 -7 6 -15l-27 -37h-27q-34 39 -34 92v9zM1084 1415l20 -16v-9q0 -53 -33 -92h-28l-26 37q2 8 7 16q4 7 7 16.5t3 24.5l5 10zM398 1437q19 0 33 -14t14 -33q0 -20 -14 -33.5t-33 -13.5
q-20 0 -33.5 13.5t-13.5 33.5q0 19 13.5 33t33.5 14zM963 1437q20 0 33.5 -14t13.5 -33q0 -20 -13.5 -33.5t-33.5 -13.5q-19 0 -33 13.5t-14 33.5q0 19 14 33t33 14zM398 1413q-22 0 -24 -23q0 -22 24 -24q21 0 23 24q0 21 -23 23zM963 1413q-21 0 -23 -23q0 -22 23 -24
q21 0 24 24q0 10 -7 16.5t-17 6.5zM365 1526l21 -14v-47l-7 -7q-25 -7 -41 -29l-9 -4l-42 15l-9 25q29 47 87 61zM430 1526q59 -14 88 -61l-9 -25l-43 -15q-25 24 -56 40v47zM930 1526l21 -14v-47l-6 -7q-27 -7 -41 -29l-9 -4l-42 15l-10 25q30 47 87 61zM996 1526
q58 -14 88 -61l-11 -25l-41 -15h-1q-25 24 -57 40v47z" />
</svg>
