<svg xmlns="http://www.w3.org/2000/svg" viewBox="0 -49 1361 1814">
   <path fill="#292929"
      d="M131 1765q-53 0-92-39t-39-92V82q0-54 39-92.5T131-49h1098q54 0 93 38.5t39 92.5v1552q0 53-39 92t-93 39H131z" />
   <path fill="#EC5F67"
      d="M493 1177q-54 0-92-38t-38-90q0-54 38-92t92-38q52 0 90 38t38 92q0 52-38 90t-90 38zm376 0q-53 0-91-38t-38-90q0-54 38-92t91-38 91.5 38 38.5 92q0 52-38.5 90t-91.5 38zM473 991q7-2 20-2 10 0 18 2l16-2 15-19-8-18q-21-10-41-10-23 0-43 10l-7 18 14 19zm377 0q8-2 19-2 10 0 19 2l16-2 14-19-7-18q-22-10-42-10-21 0-43 10l-7 18 14 19zm-447 81q22-3 30-23 0-11 1.5-16.5t4.5-9.5q2-4 4.5-10t4.5-16l-15-20h-21q-26 32-26 72v9zm178 0l17-14v-9q0-40-26-72h-21l-15 20q2 10 4.5 16t4.5 10q3 4 4.5 9.5t1.5 16.5l9 16zm198 0q23-3 31-23 0-11 1.5-16.5t4.5-9.5q2-4 4-10t4-16l-14-20h-21q-26 32-26 72v9zm179 0l16-14v-9q0-40-25-72h-22l-14 20q2 10 4 16t5 10q2 4 3.5 9.5t1.5 16.5l11 16zm-465 11q13 0 23.5-10.5T527 1049q0-15-10.5-25.5T493 1013q-15 0-25.5 10.5T457 1049q0 13 10.5 23.5T493 1083zm376 0q14 0 24.5-10.5T904 1049q0-15-10.5-25.5T869 1013t-25 10.5-11 25.5q0 13 11 23.5t25 10.5zm-376-23q-13 0-13-11 0-12 13-13 10 0 11 13 0 10-11 11zm376 0q-11 0-12-11 0-12 12-13 10 0 11 13 0 10-11 11zm-401 92l19-13v-23l-12-11q-19-6-32-24l-15-7-21 7-6 22q24 36 67 49zm48 0q43-13 67-49l-6-22-21-7q-7 3-19.5 12t-24.5 18.5-15 11.5v23zm330 0l18-13v-23l-11-11q-21-6-34-24l-14-7-21 7-7 22q25 36 69 49zm47 0q42-13 68-49l-7-22-22-7q-7 3-19.5 12t-24.5 18.5-15 11.5v23zm-400 403q-54 0-92-38.5t-38-91.5 38-91 92-38q52 0 90 38t38 91-38 91.5-90 38.5zm376 0q-53 0-91-38.5t-38-91.5 38-91 91-38 91.5 38 38.5 91-38.5 91.5T869 1555zm-396-187q7-2 20-2 10 0 18 2l16-2 15-18-8-20q-21-9-41-9-23 0-43 9l-7 20 14 18zm377 0q8-2 19-2 10 0 19 2l16-2 14-18-7-20q-22-9-42-9-21 0-43 9l-7 20 14 18zm-447 81q22-3 30-24 0-10 1.5-15t4.5-10 4.5-10 4.5-17l-15-19h-21q-26 33-26 71v9zm178 0l17-15v-9q0-38-26-71h-21l-15 19q2 11 4.5 17t4.5 10q3 4 4.5 9.5t1.5 15.5l9 17zm198 0q23-3 31-24 0-10 1.5-15t3.5-10q3-4 5-10t4-17l-14-19h-21q-26 33-26 71v9zm179 0l16-15v-9q0-38-25-71h-22l-14 19q2 11 4.5 17t4.5 10q2 5 3.5 10t1.5 15l11 17zm-465 11q13 0 23.5-10.5T527 1425t-10.5-24.5T493 1390q-15 0-25.5 10.5T457 1425t10.5 24.5T493 1460zm376 0q14 0 24.5-10.5T904 1425t-10.5-24.5T869 1390t-25 10.5-11 24.5 11 24.5 25 10.5zm-376-23q-6 0-9.5-3.5t-3.5-8.5q0-11 13-12 10 0 11 12 0 5-3 8.5t-8 3.5zm376 0q-6 0-9-3.5t-3-8.5q0-11 12-12 10 0 11 12 0 5-3 8.5t-8 3.5zm-401 91l19-11v-23l-12-13q-19-6-32-23l-15-7-21 7-6 21q24 37 67 49zm48 0q43-12 67-49l-6-21-21-7q-7 3-19.5 12t-24.5 18.5-15 12.5v23zm330 0l18-11v-23l-11-13q-21-6-34-23l-14-7-21 7-7 21q25 37 69 49zm47 0q42-12 68-49l-7-21-22-7q-7 3-19.5 12t-24.5 18.5-15 12.5v23z" />
   <path fill="#69C"
      d="M493 1637q-89 0-151-62t-62-150q0-62 31.5-111.5T394 1236q-51-27-82.5-76.5T280 1049q0-89 62-151t151-62q61 0 110.5 31.5T680 950q50-93 161-112-54-61-54-144 0-13 2-27-25 12-52 19.5t-57 7.5q-88 0-150-61.5T468 483q0-14 3-28-25 12-51.5 20t-56.5 8q-89 0-150.5-62T151 271q0-89 61.5-151T363 58q88 0 149.5 62T574 271q0 14-2 28 25-12 52-20t56-8q89 0 151 62t62 150q0 14-3 29 48-29 109-29 88 0 149.5 61.5T1210 694q0 82-52 141t-132 70q55 61 55 144 0 61-31.5 110.5T968 1236q50 28 81.5 77.5T1081 1425q0 88-62 150t-150 62q-62 0-111.5-31.5T680 1524q-27 50-76.5 81.5T493 1637zM363 436q69 0 116.5-48T527 271t-47.5-117T363 106t-117 48-48 117 48 117 117 48zm0-36q-54 0-92-38t-38-91 38-91.5 92-38.5q52 0 91 38.5t39 91.5-39 91-91 38zm-20-185q9-2 20-2 10 0 18 2l17-2 14-20-7-18q-22-10-42-10-21 0-43 10l-7 18 14 20zm-70 79q22-3 31-23 0-10 1.5-15.5T310 245q2-3 4-9t4-17l-14-19h-22q-25 32-25 71v9zm179 0l16-14v-9q0-39-25-71h-22l-14 19q2 11 4 17t5 9q2 5 3.5 10.5T421 271l9 16zm-89 12q13 0 24-10.5t11-24.5-11-24.5-24-10.5q-15 0-25.5 10.5T327 271t10.5 24.5T363 306zm0-23q-11 0-12-12 0-10 12-11 10 0 11 11 0 11-11 12zm-25 92l20-12v-24l-11-11q-21-6-34-25l-14-7-21 7-7 22q25 37 67 50zm48 0q43-13 69-50l-7-22-22-7q-7 3-19.5 12.5T382 327t-15 12v24zm294 272q69 0 117.5-47.5T846 483t-48.5-117T680 318t-116.5 48T516 483t47.5 116.5T680 647zm0-34q-53 0-91-38.5T551 483t38-91.5 91-38.5 91.5 38.5T810 483t-38.5 91.5T680 613zm-18-187q8-2 18-2 12 0 20 2l16-2 13-19-6-19q-21-9-43-9-21 0-43 9l-6 19 15 19zm-71 81q22-4 30-24 0-10 2-15l4-10q2-4 4-10t4-17l-14-18h-20q-27 32-27 70v9zm179 0l17-15v-9q0-38-26-70h-21l-15 18q2 11 4 17t5 11q2 4 4 9t2 15l9 16zm-90 11q15 0 25.5-10.5T716 483t-10.5-25-25.5-11q-14 0-24 11t-10 25 10 24.5 24 10.5zm0-24q-10 0-11-11 0-11 11-12 12 0 13 12 0 10-13 11zm-23 92l18-11v-24l-11-12q-19-6-33-23l-14-7-21 7-8 21q26 38 69 49zm47 0q43-11 68-49l-7-21-21-7q-7 3-19.5 12T700 539t-15 12v24zm295 274q69 0 116.5-48.5T1163 694q0-68-47.5-116T999 530t-117.5 48T833 694q0 69 48.5 117.5T999 860zm0-36q-54 0-92-38t-38-92q0-52 38-90t92-38q52 0 90 38t38 90q0 54-38 92t-90 38zm-20-186q9-2 20-2 10 0 18 2l17-2 14-19-7-19q-22-9-42-9-21 0-43 9l-7 19 14 19zm-70 81q22-3 31-25 0-9 1.5-14.5t3.5-9.5q3-4 5-10t4-17l-14-19h-22q-25 32-25 70v11zm179 0l16-14v-11q0-38-26-70h-21l-14 19q2 11 4.5 17t4.5 10 3.5 9.5 1.5 14.5l9 18zm-89 11q13 0 24-10.5t11-25.5q0-13-11-23.5T999 660q-15 0-25.5 10.5T963 694q0 15 10.5 25.5T999 730zm0-23q-11 0-12-13 0-10 12-11 10 0 11 11 0 12-11 13zm-25 92l20-13v-23l-12-11q-21-8-33-24l-14-7-22 7-6 22q25 36 67 49zm48 0q43-13 69-49l-7-22-22-7q-7 3-19.5 12t-24.5 18.5-15 11.5v23zm-529 414q68 0 116-48t48-116q0-69-48-117.5T493 883q-69 0-117.5 48.5T327 1049q0 68 48.5 116t117.5 48zm376 0q69 0 117-48t48-116q0-69-48-117.5T869 883t-117 48.5-48 117.5q0 68 48 116t117 48zm-189 113q32-57 92-90-60-32-92-89-31 57-92 89 61 33 92 90zm-187 264q68 0 116-48t48-117-48-117-116-48q-69 0-117.5 48T327 1425t48.5 117 117.5 48zm376 0q69 0 117-48t48-117-48-117-117-48-117 48-48 117 48 117 117 48z" />
   </svg>