<?xml version="1.0" standalone="no"?>
<!DOCTYPE svg PUBLIC "-//W3C//DTD SVG 1.1//EN" "http://www.w3.org/Graphics/SVG/1.1/DTD/svg11.dtd" >
<svg xmlns="http://www.w3.org/2000/svg" xmlns:xlink="http://www.w3.org/1999/xlink" version="1.1" viewBox="0 -49 1361 1814">
   <path fill="#292929" d="M131 1765q-53 0 -92 -39t-39 -92v-1552q0 -54 39 -92.5t92 -38.5h1098q54 0 93 38.5t39 92.5
v1552q0 53 -39 92t-93 39h-1098z" />
   <path fill="#6699CC"
d="M493 1637q-89 0 -151 -62t-62 -150q0 -62 31.5 -111.5t82.5 -77.5q-51 -27 -82.5 -76.5t-31.5 -110.5q0 -63 31.5 -112.5t82.5 -76.5q-51 -27 -82.5 -77t-31.5 -112t31.5 -111.5t82.5 -76.5q-51 -28 -82.5 -77.5t-31.5 -111.5q0 -88 62 -149.5t151 -61.5q61 0 110.5 31
t76.5 81q28 -50 77.5 -81t111.5 -31q88 0 150 61.5t62 149.5q0 62 -31.5 111.5t-81.5 77.5q50 27 81.5 76.5t31.5 111.5t-31.5 112t-81.5 77q50 27 81.5 76.5t31.5 112.5q0 61 -31.5 110.5t-81.5 76.5q50 28 81.5 77.5t31.5 111.5q0 88 -62 150t-150 62q-62 0 -111.5 -31.5
t-77.5 -81.5q-27 50 -76.5 81.5t-110.5 31.5zM493 460q68 0 116 -48.5t48 -117.5t-48 -116.5t-116 -47.5q-69 0 -117.5 47.5t-48.5 116.5t48.5 117.5t117.5 48.5zM869 460q69 0 117 -48.5t48 -117.5t-48 -116.5t-117 -47.5t-117 47.5t-48 116.5t48 117.5t117 48.5zM493 424
q-54 0 -92 -38t-38 -92q0 -52 38 -90.5t92 -38.5q52 0 90 38.5t38 90.5q0 54 -38 92t-90 38zM869 424q-53 0 -91 -38t-38 -92q0 -52 38 -90.5t91 -38.5t91.5 38.5t38.5 90.5q0 54 -38.5 92t-91.5 38zM473 238q7 -2 20 -2q10 0 18 2l16 -2l15 -19l-8 -19q-21 -10 -41 -10
q-23 0 -43 10l-7 19l14 19zM850 238q8 -2 19 -2q10 0 19 2l16 -2l14 -19l-7 -19q-22 -10 -42 -10q-21 0 -43 10l-7 19l14 19zM403 318q22 -2 30 -24q0 -10 1.5 -15t4.5 -9q2 -4 4.5 -10t4.5 -18l-15 -18h-21q-26 32 -26 70v9zM581 318l17 -15v-9q0 -38 -26 -70h-21l-15 18
q2 11 4.5 17t4.5 10q3 5 4.5 10t1.5 15l9 17zM779 318q23 -2 31 -24q0 -10 1.5 -15t3.5 -9q3 -4 5 -10.5t4 -17.5l-14 -18h-21q-26 32 -26 70v9zM958 318l16 -15v-9q0 -38 -25 -70h-22l-14 18q2 11 4.5 17.5t4.5 10.5t3.5 9t1.5 15l11 17zM493 330q13 0 23.5 -10.5
t10.5 -25.5q0 -14 -10.5 -24t-23.5 -10q-15 0 -25.5 10t-10.5 24q0 15 10.5 25.5t25.5 10.5zM869 330q14 0 24.5 -10.5t10.5 -25.5q0 -14 -10.5 -24t-24.5 -10t-25 10t-11 24q0 15 11 25.5t25 10.5zM493 306q-13 0 -13 -12q0 -10 13 -11q10 0 11 11q0 11 -11 12zM869 306
q-11 0 -12 -12q0 -10 12 -11q10 0 11 11q0 11 -11 12zM468 398l19 -12v-23l-12 -12q-19 -7 -32 -23l-15 -7l-21 7l-6 20q24 38 67 50zM516 398q43 -12 67 -50l-6 -20l-21 -7q-7 2 -19.5 11.5t-24.5 18.5t-15 12v23zM846 398l18 -12v-23l-11 -12q-21 -7 -34 -23l-14 -7l-21 7
l-7 20q25 38 69 50zM893 398q42 -12 68 -50l-7 -20l-22 -7q-7 2 -19.5 11.5t-24.5 18.5t-15 12v23zM680 572q32 -56 92 -89q-60 -32 -92 -90q-31 58 -92 90q61 33 92 89zM493 836q68 0 116 -48t48 -117t-48 -116.5t-116 -47.5q-69 0 -117.5 47.5t-48.5 116.5t48.5 117
t117.5 48zM869 836q69 0 117 -48t48 -117t-48 -116.5t-117 -47.5t-117 47.5t-48 116.5t48 117t117 48zM493 801q-54 0 -92 -38.5t-38 -91.5t38 -91.5t92 -38.5q52 0 90 38.5t38 91.5t-38 91.5t-90 38.5zM869 801q-53 0 -91 -38.5t-38 -91.5t38 -91.5t91 -38.5t91.5 38.5
t38.5 91.5t-38.5 91.5t-91.5 38.5zM473 615q7 -2 20 -2q10 0 18 2l16 -2l15 -20l-8 -18q-21 -9 -41 -9q-23 0 -43 9l-7 18l14 20zM850 615q8 -2 19 -2q10 0 19 2l16 -2l14 -20l-7 -18q-22 -9 -42 -9q-21 0 -43 9l-7 18l14 20zM403 694q22 -2 30 -23q0 -10 1.5 -15.5
t4.5 -9.5q2 -4 4.5 -10t4.5 -16l-15 -20h-21q-26 32 -26 71v10zM581 694l17 -13v-10q0 -39 -26 -71h-21l-15 20q2 10 4.5 15.5t4.5 9.5q3 5 4.5 10.5t1.5 15.5l9 16zM779 694q23 -2 31 -23q0 -10 1.5 -15.5t4.5 -9.5q2 -4 4 -10t4 -16l-14 -20h-21q-26 32 -26 71v10z
M958 694l16 -13v-10q0 -39 -25 -71h-22l-14 20q2 10 4 16t5 10q2 4 3.5 9.5t1.5 15.5l11 16zM493 707q13 0 23.5 -11t10.5 -25q0 -13 -10.5 -24t-23.5 -11q-15 0 -25.5 11t-10.5 24q0 14 10.5 25t25.5 11zM869 707q14 0 24.5 -11t10.5 -25q0 -13 -10.5 -24t-24.5 -11t-25 11
t-11 24q0 14 11 25t25 11zM493 683q-13 0 -13 -12q0 -10 13 -11q10 0 11 11q0 11 -11 12zM869 683q-11 0 -12 -12q0 -10 12 -11q10 0 11 11q0 11 -11 12zM468 775l19 -12v-24l-12 -11q-19 -7 -32 -23l-15 -8l-21 8l-6 20q24 38 67 50zM516 775q43 -12 67 -50l-6 -20l-21 -8
q-7 3 -19.5 12t-24.5 18t-15 12v24zM846 775l18 -12v-24l-11 -11q-21 -7 -34 -23l-14 -8l-21 8l-7 20q25 38 69 50zM893 775q42 -12 68 -50l-7 -20l-22 -8q-7 3 -19.5 12t-24.5 18t-15 12v24zM680 950q32 -58 92 -90q-60 -33 -92 -90q-31 57 -92 90q61 32 92 90zM493 1213
q68 0 116 -48t48 -116q0 -69 -48 -117.5t-116 -48.5q-69 0 -117.5 48.5t-48.5 117.5q0 68 48.5 116t117.5 48zM869 1213q69 0 117 -48t48 -116q0 -69 -48 -117.5t-117 -48.5t-117 48.5t-48 117.5q0 68 48 116t117 48zM493 1177q-54 0 -92 -38t-38 -90q0 -54 38 -92t92 -38
q52 0 90 38t38 92q0 52 -38 90t-90 38zM869 1177q-53 0 -91 -38t-38 -90q0 -54 38 -92t91 -38t91.5 38t38.5 92q0 52 -38.5 90t-91.5 38zM473 991q7 -2 20 -2q10 0 18 2l16 -2l15 -19l-8 -18q-21 -10 -41 -10q-23 0 -43 10l-7 18l14 19zM850 991q8 -2 19 -2q10 0 19 2l16 -2
l14 -19l-7 -18q-22 -10 -42 -10q-21 0 -43 10l-7 18l14 19zM403 1072q22 -3 30 -23q0 -11 1.5 -16.5t4.5 -9.5q2 -4 4.5 -10t4.5 -16l-15 -20h-21q-26 32 -26 72v9zM581 1072l17 -14v-9q0 -40 -26 -72h-21l-15 20q2 10 4.5 16t4.5 10q3 4 4.5 9.5t1.5 16.5l9 16zM779 1072
q23 -3 31 -23q0 -11 1.5 -16.5t4.5 -9.5q2 -4 4 -10t4 -16l-14 -20h-21q-26 32 -26 72v9zM958 1072l16 -14v-9q0 -40 -25 -72h-22l-14 20q2 10 4 16t5 10q2 4 3.5 9.5t1.5 16.5l11 16zM493 1083q13 0 23.5 -10.5t10.5 -23.5q0 -15 -10.5 -25.5t-23.5 -10.5q-15 0 -25.5 10.5
t-10.5 25.5q0 13 10.5 23.5t25.5 10.5zM869 1083q14 0 24.5 -10.5t10.5 -23.5q0 -15 -10.5 -25.5t-24.5 -10.5t-25 10.5t-11 25.5q0 13 11 23.5t25 10.5zM493 1060q-13 0 -13 -11q0 -12 13 -13q10 0 11 13q0 10 -11 11zM869 1060q-11 0 -12 -11q0 -12 12 -13q10 0 11 13
q0 10 -11 11zM468 1152l19 -13v-23l-12 -11q-19 -6 -32 -24l-15 -7l-21 7l-6 22q24 36 67 49zM516 1152q43 -13 67 -49l-6 -22l-21 -7q-7 3 -19.5 12t-24.5 18.5t-15 11.5v23zM846 1152l18 -13v-23l-11 -11q-21 -6 -34 -24l-14 -7l-21 7l-7 22q25 36 69 49zM893 1152
q42 -13 68 -49l-7 -22l-22 -7q-7 3 -19.5 12t-24.5 18.5t-15 11.5v23zM680 1326q32 -57 92 -90q-60 -32 -92 -89q-31 57 -92 89q61 33 92 90zM493 1590q68 0 116 -48t48 -117t-48 -117t-116 -48q-69 0 -117.5 48t-48.5 117t48.5 117t117.5 48zM869 1590q69 0 117 -48
t48 -117t-48 -117t-117 -48t-117 48t-48 117t48 117t117 48zM493 1555q-54 0 -92 -38.5t-38 -91.5t38 -91t92 -38q52 0 90 38t38 91t-38 91.5t-90 38.5zM869 1555q-53 0 -91 -38.5t-38 -91.5t38 -91t91 -38t91.5 38t38.5 91t-38.5 91.5t-91.5 38.5zM473 1368q7 -2 20 -2
q10 0 18 2l16 -2l15 -18l-8 -20q-21 -9 -41 -9q-23 0 -43 9l-7 20l14 18zM850 1368q8 -2 19 -2q10 0 19 2l16 -2l14 -18l-7 -20q-22 -9 -42 -9q-21 0 -43 9l-7 20l14 18zM403 1449q22 -3 30 -24q0 -10 1.5 -15t4.5 -10q2 -4 4.5 -10t4.5 -17l-15 -19h-21q-26 33 -26 71v9z
M581 1449l17 -15v-9q0 -38 -26 -71h-21l-15 19q2 11 4.5 17t4.5 10q3 4 4.5 9.5t1.5 15.5l9 17zM779 1449q23 -3 31 -24q0 -10 1.5 -15t3.5 -10q3 -4 5 -10t4 -17l-14 -19h-21q-26 33 -26 71v9zM958 1449l16 -15v-9q0 -38 -25 -71h-22l-14 19q2 11 4.5 17t4.5 10q2 5 3.5 10
t1.5 15l11 17zM493 1460q13 0 23.5 -10.5t10.5 -24.5t-10.5 -24.5t-23.5 -10.5q-15 0 -25.5 10.5t-10.5 24.5t10.5 24.5t25.5 10.5zM869 1460q14 0 24.5 -10.5t10.5 -24.5t-10.5 -24.5t-24.5 -10.5t-25 10.5t-11 24.5t11 24.5t25 10.5zM493 1437q-6 0 -9.5 -3.5t-3.5 -8.5
q0 -11 13 -12q10 0 11 12q0 5 -3 8.5t-8 3.5zM869 1437q-6 0 -9 -3.5t-3 -8.5q0 -11 12 -12q10 0 11 12q0 5 -3 8.5t-8 3.5zM468 1528l19 -11v-23l-12 -13q-19 -6 -32 -23l-15 -7l-21 7l-6 21q24 37 67 49zM516 1528q43 -12 67 -49l-6 -21l-21 -7q-7 3 -19.5 12t-24.5 18.5
t-15 12.5v23zM846 1528l18 -11v-23l-11 -13q-21 -6 -34 -23l-14 -7l-21 7l-7 21q25 37 69 49zM893 1528q42 -12 68 -49l-7 -21l-22 -7q-7 3 -19.5 12t-24.5 18.5t-15 12.5v23z" />
</svg>
