<svg xmlns="http://www.w3.org/2000/svg" viewBox="0 -49 1361 1814">
   <path fill="#292929"
      d="M131 1765q-53 0-92-39t-39-92V82q0-54 39-92.5T131-49h1098q54 0 93 38.5t39 92.5v1552q0 53-39 92t-93 39H131z" />
   <path fill="#EC5F67"
      d="M351 977q-50 0-84-34t-34-83q0-50 34-84t84-34q49 0 83 34t34 84q0 49-34 83t-83 34zm329 0q-49 0-83-34t-34-83q0-50 34-84t83-34q50 0 84 34t34 84q0 49-34 83t-84 34zm330 0q-49 0-83-34t-34-83q0-50 34-84t83-34 83 34 34 84q0 49-34 83t-83 34zM329 806q10-5 22-5 10 0 21 5 21-5 29-24l-11-21q-18-7-39-7-22 0-40 7l-9 21q7 19 27 24zm330 0q11-5 21-5 12 0 22 5 21-5 27-24l-9-21q-18-7-40-7-21 0-39 7l-10 21q7 19 28 24zm330 0q11-5 21-5 9 0 19 4 1 1 3 1 21-5 28-24l-10-21q-19-7-40-7t-40 7l-9 21q6 19 28 24zm-728 77q21-4 30-25 0-23 15-36 0-24-15-33l-20 2q-27 29-27 69v7zm179 0l17-16v-7q0-40-27-69l-20-2q-6 5-10 13t-4 20q14 13 14 36 10 21 30 25zm151 0q21-4 30-25 0-23 14-36 0-12-4-20t-10-13l-20 2q-27 29-27 69v7zm179 0l17-16v-7q0-40-26-69l-21-2q-15 9-15 33 15 13 15 36 10 21 30 25zm150 0q22-4 31-25 0-23 14-36 0-12-4-20t-10-13l-21 2q-26 29-26 69v7zm180 0l16-16v-7q0-40-25-69l-22-2q-6 5-10 13t-4 20q14 13 14 36 10 21 31 25zm-749 24q19 0 33-14t14-33q0-20-14-33.5T351 813q-20 0-33.5 13.5T304 860q0 19 13.5 33t33.5 14zm329 0q20 0 33.5-14t13.5-33q0-20-13.5-33.5T680 813q-19 0-33 13.5T633 860q0 19 14 33t33 14zm330 0q20 0 33.5-14t13.5-33q0-20-13.5-33.5T1010 813q-19 0-33 13.5T963 860q0 19 14 33t33 14zm-659-24q-22 0-24-23 0-22 24-24 21 0 23 24 0 21-23 23zm329 0q-21 0-23-23 0-22 23-24 22 0 24 24 0 21-24 23zm330 0q-21 0-23-23 0-22 23-24 21 0 24 24 0 10-7 16.5t-17 6.5zm-685 78l22-9v-20l-11-16q-22-3-34-26l-20-5-16 7-5 24q11 16 27.5 28.5T325 961zm51 0q42-10 64-45l-5-24-16-7-18 5q-13 23-36 26l-9 16v20zm279 0l20-9v-20l-9-16q-23-3-35-26l-19-5-16 7-5 24q23 35 64 45zm51 0q20-4 36.5-16.5T770 916l-5-24-16-7-20 5q-12 23-34 26l-10 16v20zm279 0l20-9v-20l-9-16q-23-3-35-26l-19-5-17 7-5 24q24 35 65 45zm52 0q19-4 35.5-16.5T1100 916l-5-24-17-7-18 5q-12 23-36 26l-9 16v20z" />
   <path fill="#69C"
      d="M351 518q-78 0-133-55.5T163 330q0-78 55-133.5T351 141q53 0 96 27t69 70q25-43 68-70t96-27 96.5 27 69.5 70q24-43 67.5-70t96.5-27q78 0 133.5 55.5T1199 330q0 77-55.5 132.5T1010 518q-53 0-96.5-26.5T846 422q-26 43-69.5 69.5T680 518t-96-26.5-68-69.5q-26 43-69 69.5T351 518zm0-47q58 0 100-41.5t42-99.5q0-59-42-100.5T351 188q-59 0-100 41.5T210 330q0 58 41 99.5T351 471zm329 0q59 0 100-41.5t41-99.5q0-59-41-100.5T680 188q-58 0-99.5 41.5T539 330q0 58 41.5 99.5T680 471zm330 0q59 0 100.5-41.5T1152 330q0-59-41.5-100.5T1010 188t-100 41.5T869 330q0 58 41 99.5t100 41.5zm-659-24q-50 0-84-34t-34-83 34-83 84-34q49 0 83 34t34 83-34 83-83 34zm329 0q-49 0-83-34t-34-83 34-83 83-34q50 0 84 34t34 83-34 83-84 34zm330 0q-49 0-83-34t-34-83 34-83 83-34 83 34 34 83-34 83-83 34zM329 276q10-5 22-5 10 0 21 5 21-5 29-24l-11-21q-18-7-39-7-22 0-40 7l-9 21q7 19 27 24zm330 0q11-5 21-5 12 0 22 5 21-5 27-24l-9-21q-18-7-40-7-21 0-39 7l-10 21q7 19 28 24zm330 0q11-5 21-5 9 0 19 4 1 0 3 1 21-5 28-24l-10-21q-19-7-40-7t-40 7l-9 21q6 19 28 24zm-728 77q21-4 30-25 0-21 15-36 0-12-4-19.5T291 260l-20 2q-27 28-27 68v7zm179 0l17-16v-7q0-40-27-68l-20-2q-6 5-10 12.5t-4 19.5q14 15 14 36 10 21 30 25zm151 0q21-4 30-25 0-21 14-36 0-12-4-19.5T621 260l-20 2q-27 28-27 68v7zm179 0l17-16v-7q0-40-26-68l-21-2q-6 5-10.5 12.5T725 292q15 15 15 36 10 21 30 25zm150 0q22-4 31-25 0-21 14-36 0-12-4-19.5T951 260l-21 2q-26 28-26 68v7zm180 0l16-16v-7q0-40-25-68l-22-2q-6 5-10 12.5t-4 19.5q14 15 14 36 10 21 31 25zm-749 24q19 0 33-14t14-33q0-20-14-33.5T351 283q-20 0-33.5 13.5T304 330q0 19 13.5 33t33.5 14zm329 0q20 0 33.5-14t13.5-33q0-20-13.5-33.5T680 283q-19 0-33 13.5T633 330q0 19 14 33t33 14zm330 0q20 0 33.5-14t13.5-33q0-20-13.5-33.5T1010 283q-19 0-33 13.5T963 330q0 19 14 33t33 14zm-659-24q-22 0-24-23 0-21 24-24 10 0 16.5 6.5T374 330q0 21-23 23zm329 0q-21 0-23-23 0-11 6.5-17.5T680 306q22 0 24 24 0 21-24 23zm330 0q-21 0-23-23 0-11 6.5-17.5t16.5-6.5 17 6.5 7 17.5q0 10-7 16.5t-17 6.5zm-685 78l22-9v-20l-11-16q-22-4-34-25l-20-6-16 8-5 23q23 36 64 45zm51 0q42-9 64-45l-5-23-16-8-18 6q-6 10-15.5 16.5T365 386l-9 16v20zm279 0l20-9v-20l-9-16q-10-2-20-8.5T631 361l-19-6-16 8-5 23q23 36 64 45zm51 0q41-9 64-45l-5-23-16-8-20 6q-12 21-34 25l-10 16v20zm279 0l20-9v-20l-9-16q-10-2-20-8.5T961 361l-19-6-17 8-5 23q24 36 65 45zm52 0q40-9 63-45l-5-23-17-8-18 6q-12 21-36 25l-9 16v20zm-686 618q-78 0-133-55.5T163 860t55-133.5T351 671q53 0 96 27t69 70q25-43 68-70t96-27 96.5 27 69.5 70q24-43 67.5-70t96.5-27q78 0 133.5 55.5T1199 860t-55.5 133.5T1010 1049q-53 0-96.5-27T846 952q-26 43-69.5 70t-96.5 27-96-27-68-70q-26 43-69 70t-96 27zm0-48q58 0 100-41.5t42-99.5q0-59-42-100t-100-41q-59 0-100 41t-41 100q0 58 41 99.5t100 41.5zm329 0q59 0 100-41.5t41-99.5q0-59-41-100t-100-41q-58 0-99.5 41T539 860q0 58 41.5 99.5T680 1001zm330 0q59 0 100.5-41.5T1152 860q0-59-41.5-100T1010 719t-100 41-41 100q0 58 41 99.5t100 41.5zm-659 577q-78 0-133-55t-55-133 55-133 133-55q53 0 96 26.5t69 69.5q25-43 68-69.5t96-26.5 96.5 26.5T846 1298q24-43 67.5-69.5t96.5-26.5q78 0 133.5 55t55.5 133-55.5 133-133.5 55q-105 0-164-97-26 44-69.5 70.5T680 1578t-96-26.5-68-70.5q-26 44-69 70.5t-96 26.5zm0-48q58 0 100-41t42-99q0-59-42-100t-100-41q-59 0-100 41t-41 100q0 58 41 99t100 41zm329 0q59 0 100-41t41-99q0-59-41-100t-100-41q-58 0-99.5 41T539 1390q0 58 41.5 99t99.5 41zm330 0q59 0 100.5-41t41.5-99q0-59-41.5-100t-100.5-41-100 41-41 100q0 58 41 99t100 41zm-659-23q-50 0-84-34t-34-83q0-50 34-84t84-34q49 0 83 34t34 84q0 49-34 83t-83 34zm329 0q-49 0-83-34t-34-83q0-50 34-84t83-34q50 0 84 34t34 84q0 49-34 83t-84 34zm330 0q-49 0-83-34t-34-83q0-50 34-84t83-34 83 34 34 84q0 49-34 83t-83 34zm-681-172q10-5 22-5 10 0 21 5 21-5 29-23l-11-21q-18-8-39-8-22 0-40 8l-9 21q7 18 27 23zm330 0q11-5 21-5 12 0 22 5 21-5 27-23l-9-21q-18-8-40-8-21 0-39 8l-10 21q7 18 28 23zm330 0q11-5 21-5 9 0 19 4 1 1 3 1 21-5 28-23l-10-21q-19-8-40-8t-40 8l-9 21q6 18 28 23zm-728 78q21-4 30-25 0-23 15-36 0-13-4-20.5t-11-12.5l-20 2q-27 29-27 69v7zm179 0l17-16v-7q0-40-27-69l-20-2q-6 5-10 12.5t-4 20.5q14 13 14 36 10 21 30 25zm151 0q21-4 30-25 0-23 14-36 0-13-4-20.5t-10-12.5l-20 2q-27 29-27 69v7zm179 0l17-16v-7q0-40-26-69l-21-2q-6 5-10.5 12.5T725 1352q15 13 15 36 10 21 30 25zm150 0q22-4 31-25 0-23 14-36 0-13-4-20.5t-10-12.5l-21 2q-26 29-26 69v7zm180 0l16-16v-7q0-40-25-69l-22-2q-6 5-10 12.5t-4 20.5q14 13 14 36 10 21 31 25zm-749 24q19 0 33-14t14-33q0-20-14-33.5t-33-13.5q-20 0-33.5 13.5T304 1390q0 19 13.5 33t33.5 14zm329 0q20 0 33.5-14t13.5-33q0-20-13.5-33.5T680 1343q-19 0-33 13.5t-14 33.5q0 19 14 33t33 14zm330 0q20 0 33.5-14t13.5-33q0-20-13.5-33.5T1010 1343q-19 0-33 13.5t-14 33.5q0 19 14 33t33 14zm-659-24q-22 0-24-23 0-22 24-24 21 0 23 24 0 21-23 23zm329 0q-21 0-23-23 0-22 23-24 22 0 24 24 0 21-24 23zm330 0q-21 0-23-23 0-22 23-24 21 0 24 24 0 10-7 16.5t-17 6.5zm-685 78l22-10v-18l-11-17q-22-4-34-26l-20-5-16 7-5 24q11 16 27.5 28.5T325 1491zm51 0q42-10 64-45l-5-24-16-7-18 5q-6 11-15.5 18t-20.5 8l-9 17v18zm279 0l20-10v-18l-9-17q-10-1-20-8t-15-18l-19-5-16 7-5 24q23 35 64 45zm51 0q20-4 36.5-16.5T770 1446l-5-24-16-7-20 5q-12 22-34 26l-10 17v18zm279 0l20-10v-18l-9-17q-10-1-20-8t-15-18l-19-5-17 7-5 24q24 35 65 45zm52 0q19-4 35.5-16.5t27.5-28.5l-5-24-17-7-18 5q-12 22-36 26l-9 17v18z" />
   </svg>