<?xml version="1.0" standalone="no"?>
<!DOCTYPE svg PUBLIC "-//W3C//DTD SVG 1.1//EN" "http://www.w3.org/Graphics/SVG/1.1/DTD/svg11.dtd" >
<svg xmlns="http://www.w3.org/2000/svg" xmlns:xlink="http://www.w3.org/1999/xlink" version="1.1" viewBox="0 -49 1361 1814">
   <path fill="#292929" d="M131 1765q-53 0 -92 -39t-39 -92v-1552q0 -54 39 -92.5t92 -38.5h1098q54 0 93 38.5t39 92.5v1552q0 53 -39 92t-93 39h-1098z" />
   <path fill="#F5F5F5"
d="M599 1345q-13 0 -24 -10t-11 -24q0 -8 8 -16.5t21 -18.5q7 -6 15 -13q36 -24 73.5 -63t48.5 -106q-19 3 -45 5q-39 4 -72 10q-17 32 -29 61q-8 17 -15 31q-26 63 -49 98t-61 35q-31 0 -58 -25.5t-53 -59.5q-15 -18 -30 -35q-22 7 -46 5h-10q-21 0 -40 -30t-27 -59
q12 5 22 10q17 8 32 13t36 5q11 0 53 -17t93 -39.5t90.5 -42t47.5 -26.5q-3 -14 -16.5 -27t-27.5 -22q-19 4 -36 16.5t-30 27.5q-7 5 -13 9q-13 11 -25 18.5t-26 7.5q-28 0 -43 -20q37 -23 71 -49q5 -4 11 -7q48 -36 101 -62q14 -17 18 -29.5t4 -31.5q-9 -4 -14 -4.5
t-13 -0.5q-11 0 -25 5t-38 20q-78 94 -143 138t-160 62q203 -162 308 -298q-19 -30 -57 -61q-30 -27 -53 -54t-25 -56q32 5 69.5 29t67.5 50t41 39q17 -21 48.5 -69.5t51.5 -97.5q-42 6 -77 29l-8 4q-18 9 -35.5 15t-37.5 6q-19 0 -32 -10q6 -5 30 -21q30 -21 69.5 -50
t69.5 -54q27 -24 44 -51q14 -20 27.5 -33t28.5 -13q16 0 31 10t15 27q0 11 -3 19t-7 15q-4 8 -7 17q15 25 37 48l12 12q26 -42 48 -110l10 -28q12 -36 23 -63t21 -37q9 3 21.5 17.5t22.5 33.5t10 34q0 6 -3.5 10t-8.5 8q-9 6 -17 19q-32 83 -92 166q7 11 14 23q18 29 39 55
q40 -41 53.5 -67t16.5 -39v-2q26 4 45 25.5t19 36.5q0 7 -2.5 12t-9.5 5q-19 0 -35 13t-30 28q-13 14 -25 24q74 102 118 145.5t70 61.5q3 3 7 6q20 13 39 32t44 60t64 120q-26 0 -61 -18.5t-79 -46.5q-56 -36 -126 -69q-21 -34 -28 -61q-1 -3 -2 -7l-4 -10
q-8 -24 -26.5 -64.5t-62.5 -110.5q-10 5 -19 8t-24 3q6 -11 12 -20q9 -13 14 -26q-23 -43 -58.5 -100t-67.5 -93q-61 121 -123 210q-10 15 -20 31q-9 14 -19 28q8 7 15.5 11t21.5 4q16 0 28 -11q11 -12 28 -12q13 0 25 6.5t16 13.5q-6 12 -16 19t-21 12q-11 6 -22 13
q-6 11 -8.5 27.5t-1.5 26.5q20 -4 42.5 -12.5t41.5 -20.5q19 -72 26.5 -133.5t7.5 -71.5t-0.5 -18t-2.5 -20q17 10 40.5 34.5t23.5 57.5q0 17 -2.5 25t-8.5 18q-7 12 -20.5 44.5t-34.5 103.5q3 5 4 8q2 4 5 6.5t11 2.5q13 0 25.5 -5.5t25.5 -13.5l8 -4q15 -7 31.5 -13
t34.5 -6q12 0 19.5 7.5t11.5 16.5t5 15q-10 9 -34 13q-25 5 -50 17q-4 22 -6.5 42.5t-4.5 55.5q41 0 69 -4q15 -1 24 -1q13 0 22 -9q6 -4 12 -6.5t14 0.5q54 13 77 42q-7 17 -28.5 21.5t-70.5 4.5q-21 0 -40 -1t-43 -1q-9 0 -18 1q-10 1 -23 1q-1 10 -2 21q-4 40 -9 80
t-11 53q-15 19 -51.5 43t-74.5 43t-52 19zM630 1063q51 -10 83 -14l30 -4q10 -52 10 -95q-25 0 -35 -2t-19 -5l-1 1q-12 14 -24.5 27t-23.5 15q0 -13 11 -39q6 -18 13 -41q-28 5 -58 19t-52 35q4 19 11 26.5t15 11.5q10 3 18 13q3 8 7 15q11 20 15 37zM447 1243q18 0 42 -28
t42 -59t18 -42q0 -15 -16 -25q-106 46 -194 112q14 15 45.5 28.5t62.5 13.5zM965 1350q-3 0 -6 -1q-2 -1 -6 -1q-11 -18 -16.5 -29.5t-8.5 -22.5q-3 -5 -6 -12q-6 -15 -19.5 -39.5t-44.5 -65.5q10 -10 27.5 -13t37.5 -3q57 0 111.5 29.5t54.5 70.5q0 28 -20.5 47.5t-49 29.5
t-54.5 10z" />
</svg>
