<?xml version="1.0" standalone="no"?>
<!DOCTYPE svg PUBLIC "-//W3C//DTD SVG 1.1//EN" "http://www.w3.org/Graphics/SVG/1.1/DTD/svg11.dtd" >
<svg xmlns="http://www.w3.org/2000/svg" xmlns:xlink="http://www.w3.org/1999/xlink" version="1.1" viewBox="0 -49 1361 1814">
   <path fill="#292929" d="M131 1765q-53 0 -92 -39t-39 -92v-1552q0 -54 39 -92.5t92 -38.5h1098q54 0 93 38.5t39 92.5v1552q0 53 -39 92t-93 39h-1098z" />
   <path fill="#EC5F67"
d="M660 1541q-19 -19 -25 -79t-6 -118q0 -28 2 -62q0 -22 1 -49q2 -33 2 -74t-3 -110q0 -36 -1 -72q-1 -34 -1 -63q-29 0 -58 14q-2 1 -3 1q-5 2 -9 3q-17 5 -36.5 10t-41.5 5q-14 0 -17.5 -12.5t-3.5 -26.5q0 -17 -24 -42t-57 -52q-43 -35 -78.5 -71.5t-35.5 -69.5
q0 -54 21 -87q30 21 57 43q23 22 43.5 37t37.5 15q10 0 57.5 -16t92 -34t55.5 -27q-1 -14 -1 -30q1 -67 -10.5 -130t-59.5 -71q-2 -9 -5 -17q-5 -10 -5 -23q0 -29 15 -52t35.5 -41t39.5 -31q4 -2 7 -5q56 26 102 88.5t46 96.5q0 15 -5.5 22.5t-12.5 14.5q-15 12 -30.5 42.5
t-23.5 107.5l103 -39q42 -17 75.5 -28.5t51.5 -11.5q12 0 23.5 9t33.5 37q15 17 30 32q27 28 47 53t20 53q0 7 -6 15t-14 8q-20 0 -40.5 5t-30.5 13q-33 47 -65 87q-21 25 -35 45t-14 29q0 31 -10 38.5t-25 7.5q-11 0 -20 -1t-20 -4q-15 -3 -41 -6.5t-73 -6.5q0 17 -1 54
l-2 74q-1 28 -1.5 48.5t-0.5 28.5q0 24 4 72q1 7 1 15q2 32 3.5 64.5t1.5 53.5q0 69 -18 133.5t-38 86.5zM793 852q11 -17 26 -37q36 -48 69 -100.5t33 -87.5q0 -15 -13 -22.5t-28 -7.5q-23 0 -74 12.5t-85 24.5q-4 48 -7 107t-3 108q17 0 34 1q19 2 48 2zM548 873
q38 -3 81 -16v-191q-35 11 -66 27l-14 6q-23 11 -41.5 18t-32.5 7q-4 0 -8.5 -0.5t-11.5 -4.5q65 96 93 154z" />
</svg>
