<svg xmlns="http://www.w3.org/2000/svg" viewBox="0 -49 1361 1814">
  <path fill="#292929"
    d="M131 1765q-53 0-92-39t-39-92V82q0-54 39-92.5T131-49h1098q54 0 93 38.5t39 92.5v1552q0 53-39 92t-93 39H131z" />
  <path fill="#F5F5F5"
    d="M351 332q-1-9 13-3.5t17 13.5q1 15-66 47 36-42 36-57zm-133 79q-10 0-51-48 47 2 64 18 10 9 7.5 19.5T218 411zm71-92q21 8 18 16-4 6-3 70 67-23 72-21 30 12 32 32 1 10-5 13t-25.5-3.5T353 419q-4 0-49 14l1 9q11 0 57 16.5t47.5 30.5-2.5 16.5-11 2.5q-20 0-90-47 5 83-1.5 102T293 582q-6 0-24-29 8-28 4-111-25 12-77 50 4 30 26 45 11 8 5 21-9 19-28 10-13-6-13-21 0-5 4.5-18.5T194 506t-2-12q-14 4-20-4l-17-23q-5-7 16-14 31-11 101-36 0-7-3-70-1-14-7-21-19 6-33 5t-22-13q54-10 100-89-64 13-90 25-37 17-47 17-42-20-45-44-1-7 5-6 31 5 46 5 17 0 141-31 17-18 26-50 2-7-1-13-6-12-9-13t-5-1q-10 0-38.5 31.5T249 174q-31-19-38-40l-7-20q8-4 28 12 22 18 24.5 18.5t5.5.5q13 0 60-32 7-5 14-45 3-16 17-4 22 20 40.5 33t13.5 24l-35 65 30-7q26-6 32.5-20t9.5-14q26 0 63 31 20 0 29.5 9.5T547 205q0 4-7 10t-26 6q-8 0-34.5-13T444 197q-26 6-82 18-16 31-56 82 49-8 85-15 44-8 59 11 37 6 27 30-6 15-5 42 1 74-.5 114.5T469 541q-2 45-42 64-9-1-21-38-3-9-23-41 27 7 37 7t12.5-17 3.5-52q3-80 2-102-4-67-50-59-32 5-99 16z" />
  <path fill="#C594C5"
    d="M1095 1050q77 0 141 52-67 0-94 31t-70 31q-54 0-65-56 11-58 88-58zm-58.5 223.5Q1115 1263 1182 1392q-63-45-96.5-13t-79.5 21q-56-14-52-64 4-52 82.5-62.5zM653 1489q25 58-31 85-43 21-80.5 1.5T443 1629q26-131 106-163t104 23zm-255-374q-27 52-85 52-47 0-72.5-34.5T141 1099q71-58 149-58t108 74zm371-407q-19 19-49 17t-53-21q-37-31-33-74 3-43-54-90 92 1 151 52 30 28 40.5 63t-2.5 53zm-65 493q-10 0-18-8t-8-18q0-11 8-18.5t18-7.5q11 0 18.5 7.5t7.5 18.5-7.5 18.5-18.5 7.5zm195-179q0-18-12-30t-30-12q-37 0-71 51-17 26-43 84 13 7 23 20 133-57 133-113zm-233 212q-13-7-23-20-133 57-133 113 0 18 12 30t30 12q37 0 71-51 17-26 43-84zm-34-43q-2-10-2-16 0-8 2-16-77-32-122-32-25 0-43 11-21 14-21 37t21 36q18 11 43 11 45 0 122-31zm120 178q0-42-33-127-9 2-15 2-4 0-14-2-33 88-33 127 0 25 11 43 13 21 36 21t37-21q11-18 11-43zm147-42q0-55-133-113-9 12-23 20 26 59 43 84 34 51 71 51 18 0 30-12t12-30zm-146-152q0-19-15-31t-34-12q-18 0-33 12t-15 31q0 18 15 30t33 12q19 0 34-12t15-30zm-87-60q-26-59-43-84-34-51-71-51-18 0-30 12t-12 30q0 56 133 113 9-12 23-20zm86-135q0-25-11-43-14-21-37-21t-36 21q-11 18-11 43 0 43 33 127 9-2 14-2t15 2q33-87 33-127zm211 195q0-23-21-37-18-11-43-11-45 0-122 31 2 10 2 17t-2 16q77 31 122 31 25 0 43-11 21-13 21-36zm41 0q0 38-32 59-27 17-68 17h-14q47 39 47 84 0 30-21 51t-51 21q-45 0-84-47 1 13 1 19 0 38-19 65-22 30-59 30-38 0-59-32-17-27-17-68v-14q-39 47-84 47-30 0-51-21t-21-51q0-44 47-84-13 1-19 1-38 0-65-19-30-22-30-58 0-39 32-60 27-17 68-17h14q-47-39-47-84 0-30 21-51t51-21q44 0 84 47-1-13-1-19 0-38 19-65 22-30 58-30 39 0 60 32 17 27 17 68v14q39-47 84-47 30 0 51 21t21 51q0 45-47 84 13-1 19-1 38 0 65 19 30 22 30 59zm-232 280q5 12 11 23 14 27 57 36l170 38q42 10 59.5 25.5t22.5 15.5q4 0 2-7l-18-50q-3-8-21-8-16 0-107.5-22.5T828 1475q-35-10-35-40 0-13 8-38 11 10 26 19-5 31 41 43 19 5 76 19 63 17 121 17 39 0 51 36 12 39 15 61 5 38-28 38-22 0-58-28.5T842 1547q-76-11-91-68 7-4 21-24zm12-1016q-31 30-67 2-32-24-31-64 1-41-58-54 85-23 134 35 49 57 22 81zm75-59q-39-29 10-101 49-71 161-45-71 18-62 68 10 49-24 79-40 35-85-1zM744 859q35-145 48-309 22-316-102-449 164 84 158 381-5 209-62 418l-6-10q-14-23-36-31zm199-23q50-48 177-3-79 10-83.5 48.5T994 948t-78-10q-23-54 27-102zm-405 79q-49 28-83 10-43-22-48-72t-92-63q91-45 169.5 5T538 915zm-90 417q14 63-41 88-46 20-77.5 5.5T202 1455q47-115 112.5-144t133.5 21zm394-662q-12-25 4.5-60.5T903 553q78-39 176-16-73 36-81 83t-56 71q-29 14-57 10.5T842 670z" />
  </svg>