<svg xmlns="http://www.w3.org/2000/svg" viewBox="0 -49 1361 1814">
   <path fill="#292929"
      d="M131 1765q-53 0-92-39t-39-92V82q0-54 39-92.5T131-49h1098q54 0 93 38.5t39 92.5v1552q0 53-39 92t-93 39H131z" />
   <path fill="#F5F5F5"
      d="M413 81q25 18 20 33-6 18-15 31-12 19-24 40 59-8 88-13 26-4 56 8 43 19 43 32 0 22-21 21-14 0-61-19-15-6-29-7t-21-1q-34 0-68 6-55 42-71 42 23-19 33-37-47 13-180 53-26 0-55-25-12-11-1-10 46 8 69 3 84-18 108-31-42-64-46-108l15 7q20 9 46 50 60-36 79-89 15 0 35 14zm-108 89q2 13 2 31l25-5q19-4 22-18 2-8 6-37-51 25-55 29zm42 120q24 10 20 31 15-4 51-16 9 0 17 11 4 7-3.5 9.5T366 343q-3 14-4 29 22-6 34.5-12t15.5-6q5 0 48 21 13 7 5 16t-16 46q-6 33-20 33-6 0-16-10.5t-50-.5v12q55 19 77 22 8 1 16.5 6.5T463 512q-2 8-21 8-26 0-79-40 0 41 2 73 1 10-6 18.5t-10 8.5q-8 0-18-48 8-26 8-44-53 61-113 56 85-45 107-77l-23 11q-31 17-37 7-30-55-45-82-7-12-2-12 10 0 34 22 0-11 80-34 1-15 0-30-30 5-48.5 13.5T266 366q-19-16-19-17 0-5 39-10 23-3 53-11 0-13-4-25-6-21 12-13zm-173 16q40 10 40 29-10 96 3 218 4 37-30 37-11 0-11-24 4-106 4-110.5T168 324q-2-20 6-18zm189 82v53q24-7 43-5 9 1 17 5 11-35 11-42v-6q0-4-16-13-12-7-55 8zm-102 28q17 37 26 53 34-14 52-23 0-25 1-51-59 25-79 21zm70 2q-14 24-19 27.5t-10 3.5q-8 0-26-18 35 0 55-13zm68-31q20 0 16 7-16 30-46 38 14-17 24-37 4-8 6-8zm94-140q5 2 11 2 9 0 14 5.5t5 8.5q0 6-5.5 25t-5.5 36 2 96q3 65 8.5 98.5T518 561q-7 7-15 22.5T485 599q-3 0-31-40-14-19-24-27l31 9q20 6 20-40 0-105-3-186-2-48-26-47-10 0-36 11-31 12-58-1-19-9-25-8-17 3-48 22 8 8 7 21-1 10-11 11-13 1-24-18-21 8-28 4-6-2-17-10 17-3 37-11-4-11-14-29 24 2 41 18 48-18 64-20 15-2 36 9 24 13 77-27 18-12 31 0 5 5 9 7z" />
   <path fill="#C594C5"
      d="M367 1274q-18 34-52 34-62 0-107-51.5T163 1137q105-20 165.5 36.5T367 1274zm714 71q-20 0-20-40 0-39-34-39-17 0-47 10-29 10-55 10-76 0-76-63 0-20 14-62 14-43 14-60 0-35-33-43-21-5-21-22 0-19 28-17 71 5 71 61 0 15-3 32 68-48 128-48 26 0 57 12 0 93-77 147 82 0 82 63 0 59-28 59zm-770-74q23 0 23-23 0-26-37.5-57t-96.5-25q6 34 41.5 69.5T311 1271zm2-24q-25-2-48-20t-34-39q27 3 50.5 20.5T313 1247zm618-18q39 0 82-42.5t45-82.5q-44-13-100 23.5t-56 75.5q0 26 29 26zm-1-26q-1-26 40.5-55.5t62.5-24.5q-4 20-40.5 51.5T930 1203zm-196 259q-4 31 3.5 47.5T769 1556q28 35 16 51-15 19-36 19-11 0-19-9-63-68-98-105-45-45-88-45-64 0-165 84 21-58 65.5-94t105.5-36q34 0 67 22-37-71-68-86-37-19-76-33.5t-87-28.5q-10-3-7-17 3-13 14-12 73 6 159 47-39-66-86-202-64-186-162-186-62 0-166 95 24-75 77.5-113T316 869q144 0 206 238-15-185-68-294-53-116-172-125 46-19 80-19 90 0 148 104t58 258v86q0 143 53 235-42-140-42-258 0-75 22.5-199t102-266T783 404q0-96-38-242 126 121 126 245 0 104-71 214.5T710 801q99-102 241-102 138 0 184 87-166-60-268.5-19T707 875.5 637 1042q101-163 283-163 90 0 166 48.5t122 150.5q-88-75-145.5-103T940 947q-83 0-141.5 19t-106 78.5T645 1167q0 146 53 274 10-72 40-113 29-40 61.5-61t48.5-9q14 10-6 25-52 39-76 74-24 38-32 105z" />
   </svg>