<svg xmlns="http://www.w3.org/2000/svg" viewBox="0 -49 1361 1814">
   <path fill="#292929"
      d="M131 1765q-53 0-92-39t-39-92V82q0-54 39-92.5T131-49h1098q54 0 93 38.5t39 92.5v1552q0 53-39 92t-93 39H131z" />
   <path fill="#F5F5F5"
      d="M398 75q22 9 19 18-5 17-5 24 0 13 8 19t8 13q0 3-29 40 0 2 22-6 73-29 73-40 0-7 14-5 24 4 30 32 5 21-29 23t-105 19l-18-7q-26 23-64 33 45-54 56-132-15-11-32-13 0-6 29-10 11-2 23-8zM238 85q27 24 32 24 23 0 34 26-24 32-26 48l-3 22q15-5 30-12 14 0 15 10 0 12-5.5 16.5T273 244q-5 21-6 47 63 23 63 42t-10 16q-11 0-55-43l-5 68q23 1 80-14 15-4 18-26 4-22 4-30v-8q0-5-5-5-20 5-29 0l33-22q56-41 90-41 70 0 74 21 6 26 3 70 11-4 22.5-7t14.5-3q57 0 58 45-2 10-22 5-31-7-42-7-5 0-25 5-6 2-8 17-4 35-7 64-1 3 22 3 87 1 87 13 0 22-19 39-5 0-32-9t-70-9q-4 45-71 116-10-14-21-56-3-11-30-41-30 6-34.5 9t-9.5 3q-15 0-24-15 0-3 6-10t23-96l-68 14q-8 1-19-3 0 26 11 103 2 23-23 57.5T220 591q-8 0-11-63-1-25-29-64.5T139 411q-39 13-56 9 71-48 105-92 37-47 37-64-20 10-45 14-60-15-60-22 0-4 58-15 24-6 47-17 11-5 11-37 0-37-8-88-3-20 10-14zm198 182q22 18 24 22t-1 36l-1 12q17-3 32-9 3-16 2-28t-3-20q-4-13-40-13h-13zm-64 20q3 10 3 27 0 9-5 39l37-7q18-3 18-18 0-41-21-53h-5q-6 0-27 12zM149 404q10 5 66 55 0-22 1-50 2-28 4-60-30 31-71 55zm341-43q-22 0-35 4-10 52-30 87l41-5q12-1 17-33 5-28 7-53zm-136 97q-1 8 7 6 27-4 31-13 18-36 27-82-24 4-53 11-10 46-12 78zm47 33q3 11 45 26 14-12 21-37-34 4-66 11z" />
   <path fill="#C594C5"
      d="M398 886q14 0 24-10.5t10-26.5q0-15-10-26t-24-11q-15 0-24.5 11t-9.5 26q0 16 9.5 26.5T398 886zm-36 583q11 0 19-8t8-20q0-11-8-20t-19-9q-12 0-20 9t-8 20q0 12 8 20t20 8zm632-140q12 0 21-9t9-22-9-22.5-21-9.5-21 9.5-9 22.5 9 22 21 9zm-674 2q16 0 27-12t11-28q0-17-11-28.5t-27-11.5q-15 0-26 11.5t-11 28.5q0 16 11 28t26 12zm710-127q16 0 27.5-12.5t11.5-29.5q0-18-11.5-30t-27.5-12q-17 0-28.5 12t-11.5 30q0 17 11.5 29.5t28.5 12.5zm-770-174q11 0 18-8t7-19-7-18.5-18-7.5-18 7.5-7 18.5 7 19 18 8zm757-81q13 0 22-10t9-23q0-14-9-23.5t-22-9.5q-14 0-23 9.5t-9 23.5q0 13 9 23t23 10zM828 837q10 0 18.5-8t8.5-21q0-11-8.5-19.5T828 780q-12 0-20 8.5t-8 19.5q0 13 8 21t20 8zM704 685q12 0 21.5-10t9.5-24-9.5-23.5T704 618q-14 0-23.5 9.5T671 651t9.5 24 23.5 10zm191-133q11 0 20-9.5t9-22.5q0-14-9-23t-20-9q-13 0-22 9t-9 23q0 13 9 22.5t22 9.5zM758 382q11 0 20-9.5t9-22.5q0-14-9-23t-20-9q-13 0-22 9t-9 23q0 13 9 22.5t22 9.5zm-43 488q-17-12-37-19 27-39 67-142-18 15-41 15-29 0-49.5-21.5T634 651q0-31 20.5-52t49.5-21q28 0 48 21 16 17 20 38 49-140 40-241l-6 6q-20 21-48 21-29 0-49.5-21.5T688 350q0-31 20.5-52t49.5-21q11 0 21 3-10-51-99-171 187 114 182 342v2q15-8 33-8 28 0 49.5 21.5T966 520q0 31-21.5 53.5T895 596q-30 0-51-23-1 0-2-1-20 76-60 175-28 69-67 123zm154 190q-13-32-43.5-45t-61.5 2q-24 10-32 24.5t-17 7.5q-13-8-1.5-28.5T709 961q-13-33-44-45.5t-62 .5q-31 14-43 47t2 65q5 12 10.5 19t-3.5 14q-10 11-20.5-1t-36-18-49.5 5q-30 13-42 46t0 65q14 32 45 45t48.5 5 21.5 5q6 12-11.5 20t-30 41 1.5 66q13 32 44 44.5t61-1.5q24-11 37.5-35t12.5-40 12-17q12-2 13 7t5 23q14 32 45 45t61-2q31-13 43-46t-1-65q-16-40-38-45t-19-19q2-13 17-9.5t39-7.5q31-14 43-46.5t-2-65.5zM398 924q-29 0-49.5-22T328 849t20.5-53 49.5-22 49.5 22 20.5 53-20.5 53-49.5 22zm807 323q-19 0-33-14t-14-34q0-21 14-35t33-14 32.5 14 13.5 35q0 20-13.5 34t-32.5 14zm-86 174q-17 0-29-12.5t-12-30.5 12-31 29-13 29 13 12 31-12 30.5-29 12.5zm-955-11q-19 0-33-14.5t-14-34.5 14-34.5 33-14.5 32.5 14.5T210 1361t-13.5 34.5T164 1410zm78 174q-15 0-26-12t-11-28 11-28 26-12q16 0 27 12t11 28-11 28-27 12zm18-521q-23 0-40-17.5t-17-42.5q0-24 17-42t40-18 40 18 17 42q0 25-17 42.5t-40 17.5zm757-68q-32 0-54-23.5T941 916q0-33 22-56.5t54-23.5q31 0 53.5 23.5T1093 916q0 32-22.5 55.5T1017 995zM883 711q-17 0-28.5-12.5T843 669q0-18 11.5-30t28.5-12q16 0 27.5 12t11.5 30q0 17-11.5 29.5T883 711zM629 826q-17 0-28.5-13T589 782t11.5-31 28.5-13 29 13 12 31-12 31-29 13zm302-425q-20 0-34.5-15T882 349q0-21 14.5-36.5T931 297t34.5 15.5T980 349q0 22-14.5 37T931 401zM726 541q-17 0-28-12.5T687 499q0-18 11-30t28-12q16 0 28 12t12 30q0 17-12 29.5T726 541zm-202 472q-6-17-6-38 0-49 33.5-82.5T634 859q48 0 81.5 33.5T749 975q0 8-1 16 27-18 63-18 48 0 81.5 33.5T926 1089q0 48-33 81-28 28-65 33 12 7 24 18 33 34 33 83 0 48-33.5 81.5T770 1419q-49 0-82-34-12-11-19-24-8 26-28 46-34 34-82 34-49 0-82.5-33.5T443 1326q0-49 34-83 3-3 7-6h-2q-49 0-82.5-33.5T366 1122q0-49 33.5-82.5T482 1006q23 0 42 7zm126 193q20 0 34-14t14-33q0-20-14-34t-34-14-34 14-14 34q0 19 14 33t34 14zm-80-42h-39q-1 3-3 5-3 3-7 3t-7-3-3-7 3-7 7-3 7 3q2 2 3 4l39-1q0-7 1-14l-77-19q-3 5-8 8-7 4-15 1t-11.5-10-1.5-15 9.5-12 15.5-1 12 10q2 5 2 9l77 19q2-7 5-13l-34-21q-3 3-7 3t-7-3-3-7 3-7 7-3 7 3 3 5-1 5l36 19q4-7 10-13 12-12 27-18l-12-38h-1q-4 0-7-3t-3-7 3-7 7-3 7 3 3 7-3 7l-2 2 14 37q6-2 13-2l-6-79q-5-1-10-6-6-6-6-14t6-14 14-6 14 6 6 14-6 14q-3 3-8 5l6 79q8 0 14 1l9-39-2-2q-3-3-3-7t3-7 7-3 7 3 3 7-3 7-6 3l-7 39q25 5 40 26l33-24q-1-2-1-4 0-4 3-7t7-3 7 3 3 7-3 7-7 3q-3 0-6-2l-32 25q4 5 7 11l73-29q-1-6 2-12 3-7 11-10t16 1 10 12-1.5 15.5-11.5 9.5-15-2q-4-2-7-5l-73 29q2 8 3 15l40-3q0-4 3-7t7-3 7 3 3 7-3 7-7 3-7-3q-1-1-2-3l-40 6v5q0 24-13 43l32 23q3-3 7-3t7 3 3 7-3 7-7 3-7-3-3-7v-3l-32-22q-4 6-10 10l51 61q6-3 12-2 8 1 13 8t4 15-6 12q-6 5-15.5 4t-14.5-8-4-15q1-6 4-9l-51-60q-6 5-12 8l15 36h2q4 0 7 3t3 7-3 7-7 3-7-3-3-7 3-7l-17-37q-13 5-28 5-10 0-19-2l-12 38 2 2q3 3 3 7t-3 7-7 3-7-3-3-7 3-7 7-3l11-39q-6-2-12-5l-42 68q3 4 5 10 1 8-4 15t-13 8-15-4-8-12.5 4-14.5 13-8q5-1 10 1l42-68q-6-4-12-10l-30 27q1 2 1 5 0 4-3 7t-7 3-7-3-3-7 3-7 7-3q3 0 6 2l29-28q-17-20-19-46zm-176 219q8 5 16 12 19 19 19 48 0 26-19 46t-47 20q-27 0-46.5-19t-19.5-47q0-20 10-36-23 10-44 23-82 51-131 136-8 14-15 29 11-60 44-113 48-75 126-120-14-6-25-18-23-23-23-55 0-34 24-57t56-23 55.5 23 23.5 57q0 18-6 32 18-4 37-6v9q0 31 12 56-24 0-47 3zm434-507q-28 0-47.5-20T761 808t20-47.5 47-19.5q29 0 48.5 20t19.5 47q0 28-19.5 48T828 876zm120 377q-14-1-29-1-16 0-31 1-9-22-26-40 27-3 54-3 25 0 50 2-19-22-19-53 0-33 23.5-57.5t59.5-24.5q35 0 58.5 24.5t23.5 57.5q0 36-24 59-10 9-20 15l18 6q78 29 124.5 79t46.5 112v10q-9-43-43-80-47-50-125-79-17-6-35-11 7 13 7 30 0 27-19 46.5t-47 19.5q-29 0-48-19.5t-19-46.5 19-47h1zm-301 165q7 32 22 60 14 27 57 36l170 38q42 10 59.5 25.5T978 1593q4 0 2-7l-18-50q-3-8-21-8-16 0-107.5-22.5T714 1475q-35-10-35-40 0-13 8-32 11 10 26 19-5 25 41 37 19 5 76 19 63 17 121 17 39 0 51 36 12 39 15 61 5 38-28 38-22 0-58-28.5T728 1547q-76-11-95-57-11-27-13-52 15-8 27-20z" />
   </svg>