<svg xmlns="http://www.w3.org/2000/svg" viewBox="0 -49 1361 1814">
  <path fill="#292929"
    d="M131 1765q-53 0-92-39t-39-92V82q0-54 39-92.5T131-49h1098q54 0 93 38.5t39 92.5v1552q0 53-39 92t-93 39H131z" />
  <path fill="#F5F5F5"
    d="M241 172q21 51 42 44 37-13 41-10 28 21 8 29-33 14-49 16-8 11-8 60 1 60 5 95 4 34-36 34-6 0-8.5-9.5T235 401q11-100 13-122 2-20 4-29l-5-3-6 22q-17 65-56 88-10 6-60 15 51-30 70-66 13-26 22-67 4-19-5-25-14-9-53-6 57-17 82-36zm158-90q27 0 64 37-19 8-41 55-15 34-23 47 8 5 24-1 55-22 124-33 55-3 55 40 0 3-2.5 7.5T587 240q-12 1-36-3.5t-37-4.5-25 5q-15 154-9 216.5t6 81.5q0 40-47 68-37-45-68-97 62 14 63 2 0-121 10-265-45 11-56-2-32 56-60 62l23-46q26-55 33.5-86t7.5-36q0-4-2-6.5t-9-1.5q-25 4-39 8 42-53 57-53z" />
  <path fill="#C594C5"
    d="M604 1546q0 3 16 7.5t41 4.5 42-5 17-7-17-7.5-42-5.5-41 5.5-16 7.5zM357 755q11 0 18-7t7-17q0-11-7.5-18t-17.5-7-17 7-7 18q0 10 7 17t17 7zm644-262q11 0 18-7t7-17q0-11-7.5-18t-17.5-7-17 7-7 18q0 10 7 17t17 7zM268 897q28-8 39-16.5t8-14.5q-4-6-22.5-5t-44.5 9q-42 13-66 36 39 4 86-9zm6 130q27-46 34.5-72t1.5-37q-10 1-18.5 13.5T261 986q-44 81-58 136 43-47 71-95zm107-49q-3-34-9-52t-12-13q-6 9-8 36t1 60q5 55 24 95 11-40 4-126zm78-92q-29-11-49-14.5t-28 1.5q-6 5 5.5 14.5T422 906q46 18 91 19-15-24-54-39zm486-154q-17 74-12 104 20-29 39-102 6-23 9-50t-1-35q-5-5-13 6.5T945 732zm110 53q35 82 76 114-3-69-41-160-18-41-35-63t-25-14q-7 12 .5 46.5T1055 785zM905 620q-47 21-66 43 38-2 81-19 28-11 36.5-19t4.5-13q-5-4-20-2.5T905 620zm187 28q59 33 92 32-17-24-77-57-28-15-43-18t-21 1q-4 4 7 14t42 28zm-412-50q-9 1-19 1-11 0-22-1v236q11-1 22-1 10 0 19 1V598zm-41 662v238q11-1 22-1 10 0 19 1v-238q-9 1-19 1-11 0-22-1zm0-95q11-1 22-1 10 0 19 1V929q-9 1-19 1-11 0-22-1v236zm-35-614q0 3 16 7.5t41 4.5 42-5 17-7-17-7.5-42-5.5-41 5.5-16 7.5zm0 331q0 3 16 7.5t41 4.5 42-5 17-7-17-7.5-42-5.5-41 5.5-16 7.5zm0 331q0 3 16 7.5t41 4.5 42-5 17-7-17-7.5-42-5.5-41 5.5-16 7.5zM357 792q-25 0-43-17.5T296 731q0-27 18-44.5t43-17.5 43 17.5 18 44.5q0 25-17.5 43T357 792zm644-262q-25 0-43-17.5T940 469q0-27 18-44.5t43-17.5 43 17.5 18 44.5q0 25-17.5 43t-43.5 18zM440 941q56 117 65 209 10 103 10 183 0 125-18 201-14 62-35.5 60.5T458 1527q18-72 18-194 0-165-66-356 9 131-28 191-53-62-61-147-8 16-19 33-49 75-144 141 3-90 73-217 16-29 29-49-69 14-128-9 39-57 107-79 44-14 74-10 28 4 36 21 12-15 44-14t78 20q63 27 87 90-59 10-118-7zm485-270q-89 168-89 435 0 97 9 184.5t23 194.5q16 106-11 103.5T820 1485q-28-289-28-373 0-291 87-427-54 12-103 3 35-58 111-93 48-23 76-21 24 3 35 15 1-4 2-7 13-20 46-20.5t87 30.5q86 50 123 126-66 14-141-17 6 13 12 27 60 149 35 249-89-50-142-178-11-27-17-52-31 114-87 161-32-48 5-199 6-23 14-42zM689 503q10-61 34-136 30-101 126-236-78 188-108 385 32 14 32 34 0 21-33 35-4 2-8 3v256l8 2q33 14 33 35t-33 35q-4 2-8 3v256l8 2q33 14 33 35t-33 35q-4 2-8 3v258l8 2q33 14 33 35t-33.5 35-78.5 14q-44 0-77.5-14t-33.5-35 34-35q1 0 3-1v-261q-2 0-3-1-34-14-34-35t34-35q1 0 3-1V917q-2 0-3-1-34-14-34-35t34-35q1 0 3-1V586q-2 0-3-1-34-14-34-35t34-35q3-1 7-2 12-125 97-205-42 128-46 195 9-1 19-1 15 0 28 1z" />
</svg>