<?xml version="1.0" standalone="no"?>
<!DOCTYPE svg PUBLIC "-//W3C//DTD SVG 1.1//EN" "http://www.w3.org/Graphics/SVG/1.1/DTD/svg11.dtd" >
<svg xmlns="http://www.w3.org/2000/svg" xmlns:xlink="http://www.w3.org/1999/xlink" version="1.1" viewBox="0 -49 1361 1814">
   <path fill="currentColor"
d="M515 598q-14 -32 -31 -60q-32 -53 -48 -98q-20 -14 -70.5 -47.5t-78.5 -75t-28 -98.5q20 4 43 10t33 12t20 22l-2 -23q0 -50 28 -97.5t58 -78.5q10 41 28 71q13 31 19 53.5t6 68.5q10 -3 33 -15t51 -12q-10 72 -31.5 110t-47 63t-33.5 34q13 33 44 86q17 29 31 62z
M127 614q22 -16 51.5 -23.5t44.5 -14.5q-46 -31 -69.5 -63t-26.5 -113q61 11 87.5 23t45.5 27t32 21l-3 -19q0 -14 5.5 -32t6.5 -37l39 52q35 46 47.5 73.5t35.5 92.5q-29 14 -57 41.5t-42 57.5q-119 -20 -197 -86zM728 1147q-18 17 -28 12q-21 -9 -76 -19
q-63 -14 -101.5 -27.5t-68.5 -41.5q0 5 -45.5 -13t-82.5 -64.5t-37 -129.5q0 -45 39 -45q17 0 27 2q-12 -35 -12 -68q0 -56 36.5 -95t66.5 -39q16 0 27 7t14 12q18 -17 48.5 -33.5t60.5 -16.5t59.5 19t32.5 43q45 0 55 3.5t18 16.5t17 26q90 0 109 47q14 -12 46 -12
q24 0 55.5 41.5t31.5 76.5q0 43 -18 70q23 3 34.5 18t11.5 37q0 21 -23 47t-64 34q13 21 13 38q0 23 -22.5 35t-61 20.5t-45.5 13.5q-26 11 -54 11q-38 0 -63 -26zM621 674q5 -10 30 -17q0 -14 -23 -28t-36 -14q-5 0 -23 5.5t-37.5 19t-26.5 37.5l7 37q14 -20 53 -30t56 -10
zM482 784q0 -13 5 -30q-5 -13 -13 -37.5t-17 -41t-18 -16.5q-16 0 -38 26t-22 71q0 55 19.5 74.5t50.5 28t49 15.5q-16 -35 -16 -90zM748 706q-6 -14 -22 -30h-21q-37 0 -43 9q11 7 16 24q27 13 45 13q21 0 25 -16zM622 750q14 0 21 3q4 -15 4 -30q0 -17 -28 -17
q-64 0 -83 28t-19 75q16 -26 46 -42.5t59 -16.5zM872 785q0 -21 -21.5 -41.5t-56.5 -20.5q-6 0 -9.5 2.5t-5.5 2.5q9 6 16 15.5t11 14.5q44 10 64 38zM769 758l-14 -17q-8 2 -28 2q-18 0 -48 -10q0 10 -7 27q5 4 7.5 14t11.5 17.5t36 14.5q16 -42 42 -48zM976 855
q0 -24 -18.5 -50.5t-25.5 -26.5l-14 -3q-11 0 -20 12q4 12 4 34q0 19 -1 27q1 4 0.5 14t-0.5 14q0 17 -17.5 48.5t-63.5 48.5q21 8 23 8q41 0 87 -37.5t46 -88.5zM868 867q-1 -42 -28.5 -61.5t-44.5 -19.5q-20 0 -41 36q35 11 35 71q0 47 -21 68q41 0 70.5 -29t29.5 -65z
M751 878q0 -26 -7.5 -33.5t-28.5 -9.5q-4 -2 -21.5 -6t-31.5 -17q-4 -5 -5 -11t-7 -9.5t-22 -3.5q-34 0 -63.5 23.5t-29.5 48.5q0 53 36 74q57 0 85 14q34 12 59 12q36 0 36 -82zM458 1011q5 -17 19.5 -28.5t29.5 -20.5t20 -11q-18 -10 -27 -34q-14 -9 -31 -14.5t-24 -7.5
q-51 -11 -68 -36q-19 -5 -25 -5q-8 0 -13.5 6.5t-5.5 15.5q0 71 32 110.5t63 39.5q19 0 30 -15zM229 1478q0 -26 2 -42q-13 14 -54 14q-32 0 -50 2q25 -67 41.5 -97t56 -57t115.5 -55q3 -15 8 -28t7 -25q-15 10 -68 15q-5 -34 -5 -36q0 -17 12 -41q-35 17 -58 17
q-43 0 -109 -55q33 -38 62 -58t77 -28q-33 -21 -46 -73q21 -9 48 -14q14 63 52 107t125 72q-74 85 -80 153q53 53 67 79t35 98l15 52q-13 2 -38 2q-48 0 -66 -38q-5 17 -16.5 58.5t-25.5 62t-44 55.5q-8 -10 -27 -34.5t-27.5 -49.5t-8.5 -56zM1010 973q0 -9 -8 -17.5
t-21 -8.5q-8 0 -34 23t-67 33q45 15 62 30q29 -2 48.5 -24.5t19.5 -35.5zM711 1084q0 -33 -16 -88q-18 0 -48 -11q-26 -15 -66 -15q-21 0 -54 25.5t-33 47.5q0 24 29.5 35.5t91.5 24.5q55 12 78 21q18 -2 18 -40zM830 1133q12 -7 48 -15q20 -5 36.5 -10t16.5 -16
q0 -26 -29 -43t-65.5 -29.5t-54.5 -21.5l-21 3l-20 -3q16 56 16 88q0 23 -4 32q6 24 45 24q19 0 32 -9zM898 1268q17 -59 52.5 -85t81.5 -44l69 -27q0 14 -6.5 26t-6.5 21q15 -7 29 -10.5t21 -6.5q52 -9 102 -40q-10 74 -39 107.5t-72 44.5q9 5 24.5 17t40.5 21
q-75 17 -116 17q-43 0 -83.5 -9.5t-96.5 -31.5zM515 1251q0 -19 8 -43q-18 15 -30.5 17t-38.5 0q0 -26 6.5 -40.5t16.5 -35.5t13 -26q30 17 107.5 36t115.5 19q15 0 18 -2q-3 42 -18 92q-28 -9 -43.5 -17.5t-27.5 -25.5q0 43 -31 78.5t-68 50.5q-28 -74 -28 -103zM1106 1599
q-31 -7 -49.5 -21t-39.5 -57q-7 26 -28.5 40t-52.5 14q-5 -43 -5 -54q0 -43 7.5 -64t19.5 -45q3 -5 10.5 -18.5t10.5 -34.5q-12 -10 -49 -27.5t-66.5 -43.5t-67.5 -97h11q17 0 20 -2q38 63 61 83t58 39q36 19 56 33q104 0 241 93q-3 18 -20.5 27.5t-35.5 9.5q-13 0 -18 -3
q25 33 25 66q0 22 -10 46t-15 38q-31 -17 -63 -22zM647 1490q13 -50 31 -72q-16 3 -27.5 5.5t-24.5 2.5q-4 0 -35 -5q84 -136 203 -136q28 0 58 7q13 29 22 51.5t9 41.5q0 24 -12.5 66t-15.5 53l-15 55q-28 -27 -37 -50.5t-12 -30.5q-25 34 -79.5 69.5t-104.5 37.5
q17 -29 27 -57.5t13 -37.5zM131 1765q-53 0 -92 -39t-39 -92v-1552q0 -54 39 -92.5t92 -38.5h1098q54 0 93 38.5t39 92.5v1552q0 53 -39 92t-93 39h-1098zM131 1699h1098q28 0 47 -18.5t19 -46.5v-1552q0 -28 -19 -46.5t-47 -18.5h-1098q-27 0 -46 18.5t-19 46.5v1552
q0 28 19 46.5t46 18.5zM1003 66q15 29 49 43q-1 13 -12 19q-8 4 -26 65q39 -4 55 -16q27 0 43 22q4 10 2.5 14.5t-20.5 4.5q-9 0 -22 -2q-69 -1 -81 27l-10 19l31 -6q68 -16 73 -13q16 7 16 12q0 23 -46 30l-42 7q10 17 15 17q19 0 68 -12q70 -17 87 -5q25 17 27 35
q-3 24 -20 17q-49 -22 -57 -22h-5q-17 0 -79 13q24 29 77 65q87 46 111 51l9 3q0 13 -46 20q-27 6 -72 10q-14 0 -49 -52q-14 0 -12 53l7 43q-1 24 -14 52.5t-25 28.5q-8 0 -17 -61q-4 -12 -47 -3q-29 6 -37 30q-2 5 -7 5q-24 -1 -18 -54q11 -86 -7 -121q-94 79 -142 79
q-15 0 -15 -5q14 -10 53 -28q63 -35 94 -85l-46 11q-3 -2 -22 -16q0 -6 15 -9l44 -8q41 -6 41 -30q-16 7 -22 3q-15 -8 -34 -25q0 -4 61 -12q20 -9 30 -47l-10 3q-19 4 -34 12q-17 0 -40 -22q0 -4 37 -10q24 -9 54 -17q10 -21 22 -72q4 -15 0 -24q-5 -9 -5 -20q9 -17 20 -17
zM950 330q50 -11 43 -21l-5 -10q-34 3 -38 31zM926 386q16 7 27 17q60 -15 70 -22q8 5 31 12l-10 -13q-17 -27 -30 -38q-70 9 -73 20zM956 422q3 25 5 37l42 -3q21 0 24 -10q0 -6 4 -30q-25 11 -52 12q-16 -1 -23 -6zM993 485q-16 1 -32 -4q-3 25 -7 42l21 -2q45 -5 45 -10
l3 -15q0 -12 -4 -18q-15 6 -26 7z" />
</svg>
