<?xml version="1.0" standalone="no"?>
<!DOCTYPE svg PUBLIC "-//W3C//DTD SVG 1.1//EN" "http://www.w3.org/Graphics/SVG/1.1/DTD/svg11.dtd" >
<svg xmlns="http://www.w3.org/2000/svg" xmlns:xlink="http://www.w3.org/1999/xlink" version="1.1" viewBox="0 -49 1361 1814">
   <path fill="currentColor"
d="M367 1057l34 -66q-25 -2 -71 -2q-13 -36 -38 -69q-26 7 -52 72q-45 -18 -100 -1q10 35 30 69q-37 34 -43 68q36 -4 76 2l-6 27q25 -10 39 -18q-26 -33 -33 -54q-13 -48 58 -71q66 -19 77 22q7 25 4 61q35 -11 47 -21zM337 1228q28 -9 25 -109q-21 7 -60 13q-37 22 -57 29
q68 73 92 67zM281 1084q49 -15 43 -41q-7 -24 -58 -8q-55 17 -48 43q6 22 63 6zM352 538l-64 -61q-11 28 -27 81q-45 3 -92 22q0 32 65 83q-36 45 -36 114q44 0 90 -11q26 54 61 72q9 -43 29 -87l30 16q-3 -33 -9 -51q-46 19 -72 19q-61 0 -61 -89q0 -82 50 -82q33 0 72 16
q0 -44 -7 -61zM536 629q0 -35 -115 -65q0 27 -7 73q14 52 14 76q108 -55 108 -84zM352 646q0 -63 -32 -63q-29 0 -29 63q0 70 33 70q27 0 28 -70zM973 966l-25 23q13 11 50 24q-2 -42 8 -73q14 -49 84 -25q77 26 60 84q-8 25 -38 64q15 10 41 22l-5 -33q43 -6 83 -3
q-5 -39 -45 -79q23 -41 36 -84q-58 -19 -108 2q-26 -76 -53 -85q-30 40 -46 82q-49 0 -76 2zM998 1169q26 7 103 -80q-20 -7 -61 -35q-42 -7 -64 -15q-8 119 22 130zM1065 998q62 19 69 -7q10 -32 -51 -52q-54 -18 -63 10q-8 31 45 49zM419 1633q-10 -198 -28 -279
q-16 -63 -47 -89q-45 4 -69 -22q-37 -42 -54 -70q-28 12 -55 21q-3 -10 7 -43q-39 -5 -79 -1q15 -64 50 -93q-15 -32 -29 -84q70 -21 114 -9q13 -42 62 -78q26 21 56 80q45 -6 89 8l-35 74q18 11 35 30q-19 16 -42 29q3 99 -21 137q60 42 88 389h-42zM564 1633
q25 -482 59 -687q66 -446 -129 -755q233 163 221 603q-8 155 -27 268t-30 206t-15 114q50 -197 76 -373q32 -234 19 -416q70 69 54 336q-16 193 -74 431q-23 95 -33 273h-121zM708 1633q70 -202 93 -447q20 -224 26 -402q49 134 43 327q-6 261 -74 522h-88zM280 431l72 65
q20 -18 47 -30q11 26 19 57q164 41 164 108q45 15 32 73t-36.5 186t-45.5 743h-48q11 -692 74 -902q19 -66 -26 -26q-60 30 -98 41q4 36 5 69q-13 0 -47 -23q-19 44 -29 92q-67 -39 -89 -90q-41 8 -105 7q0 -88 29 -134q-45 -29 -68 -98q32 -24 111 -39q7 -53 39 -99z
M953 1182q-20 -40 -12 -157q-24 -16 -44 -34q18 -23 40 -36l-35 -88q48 -18 96 -9q35 -70 66 -95q51 42 64 92q47 -14 123 12q-17 60 -35 98q37 35 50 111q-44 -4 -86 1q10 39 5 52q-28 -11 -57 -25q-20 33 -63 83q-27 31 -76 25q-35 27 -55 106q-43 180 -54 315h-47
q42 -383 120 -451zM131 1765q-53 0 -92 -39t-39 -92v-1552q0 -54 39 -92.5t92 -38.5h1098q54 0 93 38.5t39 92.5v1552q0 53 -39 92t-93 39h-1098zM131 1699h1098q28 0 47 -18.5t19 -46.5v-1552q0 -28 -19 -46.5t-47 -18.5h-1098q-27 0 -46 18.5t-19 46.5v1552q0 28 19 46.5
t46 18.5zM1079 118q39 33 39 44q0 12 -28 28q-10 7 -31.5 37.5t-23.5 35.5q80 50 108 57q84 23 91 34h-2q-29 0 -73.5 17.5t-57.5 17.5q-15 -6 -46 -62q-12 -21 -44 -43q-15 23 -55 55q64 52 64 69v3q0 23 -34 27q-8 0 -22 -52q-7 -23 -17 -40q-17 11 -68 35q-30 14 -79 22
q-33 5 -38 3q36 -14 111 -52q43 -21 76 -61q11 -13 27 -32q-18 -17 -24 -18q-46 50 -102 58q58 -43 77 -92q10 -26 5 -60q-4 -28 12 -28q13 0 48 46l-2 7q60 -8 62 -23q12 -42 27 -33zM969 219q10 6 30 20q8 -8 31 -47q-16 10 -50 12zM948 457q76 48 85 82q2 9 -2.5 21.5
t-32.5 12.5t-44 -41q-2 -6 -3 -13q-1 -5 3 -9.5t1 -10.5q-4 -12 -5 -22q-1 -3 -2 -20z" />
</svg>
