<?xml version="1.0" standalone="no"?>
<!DOCTYPE svg PUBLIC "-//W3C//DTD SVG 1.1//EN" "http://www.w3.org/Graphics/SVG/1.1/DTD/svg11.dtd" >
<svg xmlns="http://www.w3.org/2000/svg" xmlns:xlink="http://www.w3.org/1999/xlink" version="1.1" viewBox="0 -49 1361 1814">
   <path fill="currentColor"
d="M650 1256q-62 10 -104 10h-118q-27 59 -28 130q74 -5 136 -33q84 -38 114 -107zM564 1104q-23 -2 -64 1q-102 6 -208 85q80 45 200 45q36 0 120 -7q-44 -39 -48 -124zM408 1093q-34 -27 -76 -71q-114 0 -180 26q96 94 147 99q62 -39 109 -54zM585 999
q-141 -106 -288 -109q64 139 153 189q62 -4 118 0q3 -31 17 -80zM584 827q-39 -69 -116 -105q-20 73 -15 159q38 11 119 65q0 -69 12 -119zM708 1256q30 69 115 107q61 28 136 33q-2 -71 -29 -130h-118q-42 0 -104 -10zM794 1104q-4 85 -48 124q84 7 120 7q120 0 201 -45
q-107 -79 -209 -85q-41 -3 -64 -1zM950 1093q47 15 109 54q52 -5 147 -99q-66 -26 -180 -26q-41 44 -76 71zM773 999q15 49 17 80q56 -4 118 0q89 -50 153 -189q-147 3 -288 109zM774 827q13 50 12 119q81 -54 119 -65q5 -86 -15 -159q-77 36 -116 105zM355 1442
q11 -124 36 -179q-45 -2 -153 -64q7 -13 28 -29q-99 -32 -162 -137q88 -41 207 -41q-42 -52 -59 -135h40q84 0 127 15q-5 -82 29 -201q84 37 148 108q24 -81 84 -129q58 48 82 129q64 -71 148 -108q34 119 30 201q42 -15 127 -15h39q-17 83 -58 135q118 0 206 41
q-63 105 -162 137q21 16 29 29q-108 62 -153 64q24 55 36 179q-245 -4 -324 -157q-81 153 -325 157zM680 1220q78 0 78 -120q0 -98 -78 -180q-80 82 -80 180q0 120 80 120zM753 959v-30q0 -130 -73 -233q-75 103 -75 233v30q19 -39 75 -86q54 47 73 86zM1031 1397
q6 -6 36 -16q56 -17 109 6q54 24 73.5 74t-6.5 98q-27 47 -83.5 64t-109.5 -6q-54 -24 -73 -73q-10 -27 -7 -53l135 8zM366 605q12 18 14 39q4 40 -29 70q-33 31 -84 34t-89 -23q-39 -26 -42.5 -66t29.5 -71q33 -30 83 -33q27 -1 51 5l-37 87zM367 1514q3 19 -5 38
q-15 37 -62 54q-47 18 -97 6t-74 -45q-24 -34 -8 -70.5t63 -53.5q46 -18 96 -6q26 6 46 19l-78 66zM476 336q22 -19 52 -29q55 -18 108 6q53 25 72.5 77t-6.5 101q-26 50 -82 67.5t-109 -6.5q-53 -25 -72 -76q-10 -28 -8 -55l135 8zM375 262q-5 17 -19 33q-24 29 -65 34
t-73.5 -17t-37.5 -58t20.5 -65t65.5 -34q41 -5 73 17q17 12 27 27l-81 42zM131 1765q-53 0 -92 -39t-39 -92v-1552q0 -54 39 -92.5t92 -38.5h1098q54 0 93 38.5t39 92.5v1552q0 53 -39 92t-93 39h-1098zM131 1699h1098q28 0 47 -18.5t19 -46.5v-1552q0 -28 -19 -46.5
t-47 -18.5h-1098q-27 0 -46 18.5t-19 46.5v1552q0 28 19 46.5t46 18.5zM1122 104q36 0 46 28q11 27 -15 17t-76 -3q-40 5 -55 25q-56 44 -65 44q0 7 8 14q6 0 59 -18q12 -4 34 -16t35 -10q29 5 29 25q0 14 -29 148q17 -1 44 -10q11 -3 14 -1q25 19 25 30q0 25 -15 23
q-42 -9 -49 -9q-5 0 -21 2q31 3 41 48q0 7 -27 19q-22 11 -30 20q18 21 85 46q43 16 85 50q-43 -10 -125 -10q-10 2 -14 -3l-61 -61q-95 49 -144 49h-15q12 -8 54 -27q46 -20 79 -48q-5 -7 -37 -40q-35 55 -98 91q-22 14 -62 22q0 -4 42 -37q58 -49 81 -96q-32 2 -61.5 7
t-34.5 5q-11 0 -51 -29q82 -12 125 -17q1 -11 1 -27q0 -22 -2 -49q-2 -23 -7 -56q-4 -26 -4 -35q0 -15 37 -8q48 -37 56 -51q-24 2 -55 16.5t-36 14.5q-33 -11 -37 -22v-2q0 -6 121 -34q109 -25 125 -25zM965 254q0 21 -6 122q24 -3 90 -13q8 0 9 -8q2 -14 1 -16t-6 -2
l-49 8q-19 0 -37 -15q0 -10 62 -20q24 -4 27 -9q1 -14 2 -19q-30 4 -59 11q-29 -4 -29 -16q2 -7 90 -18q8 -20 3 -25q-7 -5 -19 0t-79 20zM1024 403q-17 3 -20 3l-4 5q37 42 46 42q6 0 22.5 -17t16.5 -27q0 -11 -27 -10q-8 0 -34 4z" />
</svg>
