<?xml version="1.0" standalone="no"?>
<!DOCTYPE svg PUBLIC "-//W3C//DTD SVG 1.1//EN" "http://www.w3.org/Graphics/SVG/1.1/DTD/svg11.dtd" >
<svg xmlns="http://www.w3.org/2000/svg" xmlns:xlink="http://www.w3.org/1999/xlink" version="1.1" viewBox="0 -49 1361 1814">
   <path fill="currentColor"
d="M319 145q0 -26 8 -47q93 30 129 82.5t36 119.5q0 31 -12 111q-75 -43 -118 -121t-43 -145zM649 232q4 25 4 35q0 59 -36 100.5t-101 62.5q13 -94 40 -131.5t93 -66.5zM141 411q60 -53 151 -53q56 0 162 91q-34 21 -88 21q-91 0 -134.5 -15t-90.5 -44zM516 784
q-18 -91 -26 -171q-10 -108 -10 -164l37 -2q0 93 15 196q9 60 19 116zM132 587q26 -6 57 -6q101 0 183.5 67t95.5 158q-155 -70 -236.5 -116.5t-99.5 -102.5zM109 825q65 -26 145 -26q116 0 193 53q-56 52 -139 52q-104 0 -199 -79zM126 1027q59 -17 106 -17q87 0 158.5 40
t94.5 109q-108 0 -215.5 -31.5t-143.5 -100.5zM446 1212q78 0 127 35q-62 58 -212 105.5t-238 47.5q24 -78 123.5 -133t199.5 -55zM836 1275q49 -31 119 -31q93 0 181 54.5t119 124.5q-45 19 -91 19q-78 0 -155.5 -44.5t-172.5 -122.5zM467 1523q0 -79 38.5 -145.5
t127.5 -103.5q20 42 20 90q0 76 -50 149t-118 130q-18 -62 -18 -120zM691 1277q27 3 45 0q110 124 168 179t178 149l-31 38q-131 -99 -203.5 -175t-156.5 -191zM490 1105q-35 -70 -35 -142q0 -99 60.5 -157.5t150.5 -80.5q18 -16 45 -33.5t55 -44.5q18 32 20.5 48.5
t5.5 27.5q18 -6 43.5 -4.5t30.5 1.5q-16 52 -20.5 77.5t-13.5 44.5q16 -13 39.5 -20t92.5 -7q22 0 30 2q-9 12 -13.5 41.5t-12.5 46.5q11 29 11 108q0 105 -82.5 178.5t-187.5 73.5q-66 0 -125 -45t-94 -115zM720 1091q5 0 25.5 5.5t41.5 27.5q12 -22 22.5 -54.5t10.5 -53.5
q0 -12 -3 -17q54 0 70.5 -18.5t27.5 -62.5q10 -51 28 -76q-33 0 -54 6.5t-48 20.5t-45 19q6 -59 15 -87.5t17 -53.5l-59 3q-3 -11 -4.5 -22t-8.5 -38q-26 27 -47.5 40.5t-32.5 24.5q-61 0 -124 64t-66 143q29 70 59.5 118.5t89.5 83.5q54 -56 85 -73zM717 774l21 -5l7 22
l-22 10zM663 812l3 -24l21 -3l10 16l-18 14zM612 810l23 -14l3 19l-13 8zM742 817l24 -7l-3 23zM691 833l16 -10l13 10l-15 17zM573 845l16 -16l15 21l-20 17zM630 855l15 -13l24 6l4 19l-28 19zM723 871l12 -21l21 8l-3 19l-8 19zM548 871l15 22l-36 16zM589 899l20 -22
l18 28l-23 16zM666 905l23 -17l18 17l-20 23zM871 899l26 -11l-5 21zM825 925l28 -10l18 19l-15 19l-24 6zM527 953l28 -28l21 9l10 46h-41zM715 944l15 -19l18 12l-10 22zM609 953l31 -22l29 28l-18 23l-31 9zM769 975l8 -32l22 -3l8 23l-18 22zM679 1001l18 -32l26 16
l-18 38zM555 1010l29 -3l-8 32zM733 1048l20 -41l34 19l-13 35zM602 1067l13 -41l36 -8l30 38l-41 43zM131 1765q-53 0 -92 -39t-39 -92v-1552q0 -54 39 -92.5t92 -38.5h1098q54 0 93 38.5t39 92.5v1552q0 53 -39 92t-93 39h-1098zM131 1699h1098q28 0 47 -18.5t19 -46.5
v-1552q0 -28 -19 -46.5t-47 -18.5h-1098q-27 0 -46 18.5t-19 46.5v1552q0 28 19 46.5t46 18.5zM1032 111q17 0 24.5 12t38.5 42q-17 4 -27 66q-11 62 -18 90q21 -4 55 -42t40 -38q24 27 24 74q-8 6 -22 6q-10 0 -29 4q-82 13 -79 41q51 97 120 119l72 21q0 12 -91 19
q-42 4 -59 4q-5 -3 -52 -126q-27 55 -92 95q-12 49 -43 70q0 -50 -53 -138q-13 7 -30 11t-28 4q-29 0 -29 -5q36 -5 118 -86q32 -31 32 -37q-26 5 -57 35q-13 12 -17 12q-28 -7 -42 -25q0 -4 22 -7q30 -22 96 -52q-4 -37 -15 -51q-38 17 -58 17q-15 0 -25 -5l29 -15
q54 -28 75 -58q18 -25 21 -35h8q27 0 59 49q-57 22 -68 34q12 20 11 56q34 -1 34 11q0 7 -4.5 11t-31.5 13q-3 18 -3 30q44 30 42 43q-1 11 -10 11q-8 0 -37 -20q-5 24 -5 70q0 21 5 41q88 -91 96 -165q14 -124 3 -178q-5 -21 0 -28zM1014 241q5 0 5 17q0 68 -11 83.5
t-23 15.5q-15 0 -12 -26q16 -28 41 -90zM848 426q22 22 43 34q5 -70 5 -81q-26 28 -48 47z" />
</svg>
