<?xml version="1.0" standalone="no"?>
<!DOCTYPE svg PUBLIC "-//W3C//DTD SVG 1.1//EN" "http://www.w3.org/Graphics/SVG/1.1/DTD/svg11.dtd" >
<svg xmlns="http://www.w3.org/2000/svg" xmlns:xlink="http://www.w3.org/1999/xlink" version="1.1" viewBox="0 -49 1361 1814">
   <path fill="#292929" d="M131 1765q-53 0 -92 -39t-39 -92v-1552q0 -54 39 -92.5t92 -38.5h1098q54 0 93 38.5t39 92.5v1552q0 53 -39 92t-93 39h-1098z" />
   <path fill="#F5F5F5"
d="M232 1336q-17 0 -31.5 -11t-14.5 -43q0 -14 8 -27.5t22 -31.5q3 -4 6 -9q4 -4 7 -9q32 -38 74.5 -113t80.5 -210q-34 -20 -62.5 -48.5t-35.5 -74.5q49 23 115 30q4 -25 15 -47q4 9 6 21.5t4 37.5q2 0 4 1q26 6 47.5 17.5t21.5 37.5q0 16 -16.5 23.5t-36 9.5t-30.5 2
q-31 169 -49 221q-3 17 -5 28q-5 16 -5 26q0 15 5 27q21 -3 59.5 -24t78 -47.5t62.5 -45.5q10 -16 12.5 -44.5t2.5 -65.5q0 -29 -1 -61q-1 -34 -1 -65q0 -65 -9.5 -102.5t-22.5 -58t-27 -33.5q-2 -3 -4 -5q-8 -10 -14.5 -21.5t-6.5 -29.5q0 -28 20 -49q42 15 71 22
q15 4 27 8q44 10 65 25.5t37 66.5q-42 24 -53.5 93t-15.5 234q0 13 -1 27q38 -27 65 -49q23 -15 43 -31q0 -92 13 -166q2 -24 4 -45q4 -34 4 -65q0 -43 -9.5 -66.5t-23.5 -36.5t-30 -22l-12 -8q24 -61 70 -95q22 -18 45 -44q1 -1 1 -2q11 9 35.5 36.5t46 61t21.5 56.5
q0 9 -6 15t-15 11q-13 9 -28.5 25t-27 50t-11.5 96v148q28 -19 51 -30q4 -2 7 -4q32 -19 52 -38.5t20 -57.5q0 -5 -1 -10q-1 -4 -1 -11q20 -15 53 -15t73 24t40 58q0 11 -14.5 17t-43.5 13h-1q-2 1 -5 2q-38 9 -95 29.5t-130 63.5v20q0 108 12 160.5t45.5 69t98.5 16.5
q41 0 68 -4.5t47 -10.5q11 -1 21 -3q18 -4 38 -4q11 0 22.5 6t11.5 19q0 16 -10.5 35t-41 35.5t-88 26.5t-150.5 10q-67 0 -108.5 -28.5t-41.5 -76.5q0 -27 1 -45q1 -17 1 -41q0 -43 -5 -77q0 -15 -1 -31q-2 -16 -2 -31q-51 38 -108 88q0 15 3 25t3 26q0 25 -11.5 43.5
t-25.5 29t-23 11.5q-7 0 -17 -8t-10 -20q0 -11 -4 -18t-9 -12q-2 -3 -5 -6q-71 50 -123 100q-5 4 -9 8q-44 40 -84.5 67.5t-93.5 27.5z" />
</svg>
