<?xml version="1.0" standalone="no"?>
<!DOCTYPE svg PUBLIC "-//W3C//DTD SVG 1.1//EN" "http://www.w3.org/Graphics/SVG/1.1/DTD/svg11.dtd" >
<svg xmlns="http://www.w3.org/2000/svg" xmlns:xlink="http://www.w3.org/1999/xlink" version="1.1" viewBox="0 -49 1361 1814">
   <path fill="#292929" d="M131 1765q-53 0 -92 -39t-39 -92v-1552q0 -54 39 -92.5t92 -38.5h1098q54 0 93 38.5t39 92.5v1552q0 53 -39 92t-93 39h-1098z" />
   <path fill="#F5F5F5"
d="M860 1461q-27 0 -47 -11t-55 -38q-11 -7 -25 -16q-48 -37 -153 -101q8 0 22.5 2t26.5 5q2 -13 3.5 -50t1.5 -62q-23 6 -41 12q-27 10 -40 10q-12 0 -19 -6.5t-13 -18.5q18 -10 45 -16q25 -6 68 -22q-4 -19 -5 -36q-2 -18 -5 -36q-44 13 -62 23q-12 7 -19 7q-17 0 -25 -6
t-13 -14q0 -1 -1 -2q16 -13 42 -23.5t50 -17.5q-5 -32 -22 -60.5t-31 -44.5q-24 7 -55 21.5t-55 31t-24 27.5q0 28 16 66t38 79q2 4 4 9q19 38 34 74t15 65q0 20 -15 33.5t-31 13.5q-20 0 -40.5 -25.5t-40.5 -65t-39 -83.5q-12 -30 -26 -56q-4 -8 -8 -15q-59 -122 -81 -193
q2 -1 4 -3t4.5 -3t6.5 -1q17 0 34.5 7.5t35.5 17.5q5 2 10 5l4 2q22 16 47 26q32 -12 59 -21q49 -18 79 -32q-44 -44 -82.5 -63t-65.5 -27q-17 -5 -26.5 -10t-9.5 -13q0 -9 5.5 -16.5t12.5 -4.5q12 5 25 11q61 25 113 51t69 54q8 -5 20 -10t24 -9q16 -88 25 -176
q-50 15 -123 15q-15 0 -28 -15q10 -8 38 -17q6 -2 13 -4q49 -10 114 -43q12 -116 12 -175q0 -42 -7.5 -60t-21.5 -18h-7q14 -31 43 -70.5t54 -63.5q15 7 43.5 41t52.5 78t24 78q0 6 -1 10q-1 5 -1 12l-5.5 1t-14.5 1q-12 0 -27.5 -4t-33.5 -20q-10 35 -21 83q-8 36 -16 69
q33 -18 59 -47q15 -13 28.5 -23t22.5 -10q12 0 24.5 17.5t21.5 38t11 31.5q-55 30 -193 71q-26 71 -45 134q34 -6 70.5 -29.5t77.5 -55.5q51 -43 112 -79q20 17 35.5 33t15.5 31q0 16 -6 25t-16 16q-11 9 -23 25q38 0 63 4t47 24t49 65l2 4q17 27 31 45q16 18 24.5 34
t8.5 37q0 35 -29 91.5t-68 123.5q-3 4 -5 9q-32 58 -54 101q-35 70 -60.5 105.5t-59.5 35.5zM626 877q120 -31 172 -66l4 -10t2 -14q0 -7 -7 -11t-14 -4q-12 0 -43 17q-42 22 -101 40q-9 20 -11 40q-1 5 -2 8zM785 1359q12 0 44.5 -43.5t75.5 -135.5q7 -15 14 -28
q8 -16 15 -31q3 -7 7 -15q20 -39 29.5 -64.5t9.5 -54.5q0 -19 -30.5 -54.5t-55.5 -60.5q-2 -2 -4 -5q-11 -2 -22 -2q-15 0 -27 2q-10 18 -24 36q-28 35 -52 87q30 -6 46.5 -8t27.5 -2q16 0 28.5 11.5t12.5 27.5q0 9 -10 12t-19 3q-22 0 -60.5 3t-79.5 14q-4 25 -5 51
q-1 11 -2 24q69 -19 92 -29q16 -7 25 -7q15 0 24.5 12.5t9.5 28.5q0 15 -16 18q-41 0 -66.5 3.5t-68.5 14.5q-2 40 -6.5 83.5t-12.5 69.5l22 10q23 11 44.5 20t33.5 9zM626 1034q29 -6 49 -12.5t39 -16.5q20 -37 34 -66.5t25 -63.5q-88 12 -134.5 26.5t-63.5 22.5
q34 55 51 110z" />
</svg>
