<?xml version="1.0" standalone="no"?>
<!DOCTYPE svg PUBLIC "-//W3C//DTD SVG 1.1//EN" "http://www.w3.org/Graphics/SVG/1.1/DTD/svg11.dtd" >
<svg xmlns="http://www.w3.org/2000/svg" xmlns:xlink="http://www.w3.org/1999/xlink" version="1.1" viewBox="0 -49 1361 1814">
   <path fill="#292929" d="M131 1765q-53 0 -92 -39t-39 -92v-1552q0 -54 39 -92.5t92 -38.5h1098q54 0 93 38.5t39 92.5v1552q0 53 -39 92t-93 39h-1098z" />
   <path fill="#F5F5F5"
d="M504 1325q-58 0 -78 -17.5t-20 -32.5q0 -12 10.5 -19.5t20.5 -12.5q5 -2 8 -4q-79 -214 -121 -315t-45 -125q4 -3 6 -7q3 -3 5.5 -5t5.5 0q32 23 60.5 49.5t37.5 40.5q75 -22 137 -56q-2 -21 -5 -46q-4 -31 -7 -58.5t-3 -39.5q0 -13 2 -26.5t13 -13.5q16 0 25 30.5
t12.5 66t3.5 51.5q40 -41 72.5 -78.5t47.5 -59.5q1 -4 2 -9q1 -15 10 -32q11 -4 23 -8q6 -2 14 -4q17 -13 32.5 -29.5t21.5 -32.5q-9 -10 -34.5 -13t-51.5 -3q-101 0 -197 17.5t-158 31.5q-5 1 -9 2q-23 4 -36 7q-15 3 -20 3q-20 0 -37 -6.5t-20 -23.5q67 -13 167 -37
q24 -6 48 -11l38 -8q24 -6 49 -10q143 -34 261.5 -59.5t145.5 -25.5q22 0 36 7.5t27 18.5q14 11 35 23q64 35 87 60t23 52q0 22 -10.5 28t-26.5 6q-56 0 -125 -14q-70 -10 -122 -10q-20 0 -33 4q-4 1 -8 1l-1 1q-6 4 -13.5 10.5t-9.5 17.5l4 2q17 8 29.5 18.5t12.5 30.5
t-12 25.5t-30 7.5q-21 2 -42 11q-5 11 -10 24.5t-8 39.5q30 -6 47 -13t27 -13t20 -9.5t27 -3.5q26 0 78.5 33.5t97 77.5t44.5 77q0 16 -9.5 28.5t-26.5 27.5q-32 25 -85 94t-123 221v1q-2 7 -10 17.5t-27 18.5t-58 8q-30 0 -59 -5q-25 -5 -61 -5q-37 0 -66 5q-26 5 -56 5z
M626 787q13 -1 21.5 -3t16.5 -5q8 -4 21 -7q0 -8 1 -19t1 -24v-8l-10 -2q-18 0 -30 10q-8 14 -13.5 30.5t-7.5 27.5zM704 1244q7 0 14 -3q3 -1 8 -2q25 -35 65.5 -109.5t74.5 -148t34 -94.5q0 -25 -19.5 -45t-43.5 -31.5t-37 -11.5q-19 0 -33 1.5t-33 5.5l-13 89l-7 62
q-17 102 -29 284q6 0 11 2q4 1 8 1zM644 1236q11 -147 21 -259q3 -28 5 -53l7 -105q-22 6 -42 10q-31 6 -55 15l7 131q9 102 17 259q9 0 20 1q10 1 20 1zM519 1231h43q-2 -29 -6 -52q-2 -17 -4 -33q-12 -49 -12 -130l-9 -154q-22 7 -56 21t-66 31q17 40 40 104t43 124t27 89
z" />
</svg>
