<?xml version="1.0" standalone="no"?>
<!DOCTYPE svg PUBLIC "-//W3C//DTD SVG 1.1//EN" "http://www.w3.org/Graphics/SVG/1.1/DTD/svg11.dtd" >
<svg xmlns="http://www.w3.org/2000/svg" xmlns:xlink="http://www.w3.org/1999/xlink" version="1.1" viewBox="0 -49 1361 1814">
   <path fill="#292929" d="M131 1765q-53 0 -92 -39t-39 -92v-1552q0 -54 39 -92.5t92 -38.5h1098q54 0 93 38.5t39 92.5v1552q0 53 -39 92t-93 39h-1098z" />
   <path fill="#F5F5F5"
d="M653 1507q-21 0 -39.5 -36t-29.5 -83t-11 -81q0 -15 -38.5 -73t-86.5 -124q-52 42 -114 78t-104 36h-21q-10 0 -19.5 -1.5t-20.5 -7.5q65 -32 130 -69.5t120 -83.5l-10 -33l24 17q44 -35 81 -110q-26 -4 -49 -30q-2 -2 -1 -4.5t2 -5.5q4 -4 4 -9q0 -3 -17.5 -24.5
t-43.5 -51.5q-35 -40 -66 -79t-42 -62q8 -13 22 -13q18 0 46 16q10 5 20 9q117 -23 227 -56q-2 -12 -2 -28v-28q-20 3 -36 8q-23 8 -54 8q-28 0 -42.5 -9.5t-21.5 -26.5l51 -8q45 -2 98 -21v-7q0 -67 -14.5 -101t-32.5 -57l-2 -4q-2 -2 -3 -4q-15 -21 -28 -49t-13 -79
q117 49 180 61q42 10 62 21t20 40q0 13 -7.5 18.5t-19.5 10.5q-21 7 -43.5 32t-29.5 98q29 -9 43.5 -18.5t21.5 -17.5q6 -6 11 -9.5t14 -3.5q16 0 34 8.5t30 19.5t12 19q0 11 -16.5 17.5t-45.5 12.5q-7 2 -14 3q-43 8 -93 23q0 14 -3 32q-2 16 -2 27l95 -18q23 -4 45 -8
q56 -13 78 -13q15 0 40 21t45 49.5t20 50.5q0 19 -20 25t-37 8q-28 70 -61 105l-8 10q-11 14 -18.5 26.5t-7.5 26.5q0 13 -4.5 27.5t-17.5 14.5q-11 0 -21 -6t-18 -12l-9 1t-20.5 3.5t-21.5 5.5q67 81 141.5 122t144.5 66l6 2q6 2 11 5q54 20 98 43.5t73 64.5
q-58 -9 -87 -27q-23 -15 -46 -15q-18 0 -44 20q-16 10 -35.5 19.5t-41.5 9.5q-28 0 -55.5 -23t-55.5 -62t-58 -86q-42 -65 -92 -134q-9 3 -20 3q0 25 -2 44q-1 17 -1 33q-2 26 -2 61q0 52 6.5 104t14.5 98q2 12 4 23q13 60 13 88q0 24 -3 51.5t-13.5 46.5t-31.5 19zM665 740
q25 -3 38 -9t20 -12q8 -7 18 -11t32 -4q13 0 22 6t18 15q8 8 18 15q3 -6 7 -12q9 -17 18 -36.5t9 -36.5q0 -11 -17.5 -15.5t-43.5 -4.5q-62 0 -134 17q-4 27 -4 53q0 16 -1 35zM475 775q30 -14 65 -17q7 -2 15 -3t17 -2q24 -1 47 -8q0 -19 -1 -39q-2 -22 -2 -46
q-104 20 -192 59q13 12 28.5 29t22.5 27zM668 880q25 0 50.5 -4t44.5 -9q10 -15 25 -45q13 -25 26 -47q-4 -2 -7 -4q-4 -2 -8.5 -4t-13.5 -2q-15 0 -43 7q-6 2 -13 3q-33 8 -61 12q-3 22 -3 44q0 19 3 49zM621 885q0 -26 -1 -51q-1 -23 -1 -40q-79 2 -115 20q11 33 44 66
q19 4 41 4q15 0 32 1zM583 1197q13 0 21 -43.5t11.5 -98t4.5 -91.5q1 -15 1 -23q-9 0 -18 -1q-10 -1 -23 -1q-35 60 -110 151q19 18 33 37q2 2 3 4l8 10q20 22 37.5 39t31.5 17z" />
</svg>
